# Blender 5.2.2 LTS
# www.blender.org
o Sphere
v 0.000000 0.000000 0.500000
v 0.277785 0.000000 0.415735
v 0.415735 0.000000 0.277785
v 0.490393 0.000000 0.097545
v 0.500000 0.000000 0.000000
v 0.490393 0.000000 -0.097545
v 0.415735 0.000000 -0.277785
v 0.000000 0.000000 -0.500000
v 0.095671 -0.019030 0.490393
v 0.187665 -0.037329 0.461940
v 0.272448 -0.054193 0.415735
v 0.346760 -0.068975 0.353553
v 0.407747 -0.081106 0.277785
v 0.453064 -0.090120 0.191342
v 0.480970 -0.095671 0.097545
v 0.490393 -0.097545 0.000000
v 0.480970 -0.095671 -0.097545
v 0.453064 -0.090120 -0.191342
v 0.407747 -0.081106 -0.277785
v 0.346760 -0.068975 -0.353553
v 0.272448 -0.054193 -0.415735
v 0.187665 -0.037329 -0.461940
v 0.095671 -0.019030 -0.490393
v 0.090120 -0.037329 0.490393
v 0.176777 -0.073223 0.461940
v 0.256640 -0.106304 0.415735
v 0.326641 -0.135299 0.353553
v 0.384089 -0.159095 0.277785
v 0.426777 -0.176777 0.191342
v 0.453064 -0.187665 0.097545
v 0.461940 -0.191342 0.000000
v 0.453064 -0.187665 -0.097545
v 0.426777 -0.176777 -0.191342
v 0.384089 -0.159095 -0.277785
v 0.326641 -0.135299 -0.353553
v 0.256640 -0.106304 -0.415735
v 0.176777 -0.073223 -0.461940
v 0.090120 -0.037329 -0.490393
v 0.081106 -0.054193 0.490393
v 0.159095 -0.106304 0.461940
v 0.230970 -0.154329 0.415735
v 0.293969 -0.196424 0.353553
v 0.345671 -0.230970 0.277785
v 0.384089 -0.256640 0.191342
v 0.407747 -0.272448 0.097545
v 0.415735 -0.277785 0.000000
v 0.407747 -0.272448 -0.097545
v 0.384089 -0.256640 -0.191342
v 0.345671 -0.230970 -0.277785
v 0.293969 -0.196424 -0.353553
v 0.230970 -0.154329 -0.415735
v 0.159095 -0.106304 -0.461940
v 0.081106 -0.054193 -0.490393
v 0.068975 -0.068975 0.490393
v 0.135299 -0.135299 0.461940
v 0.196424 -0.196424 0.415735
v 0.250000 -0.250000 0.353553
v 0.293969 -0.293969 0.277785
v 0.326641 -0.326641 0.191342
v 0.346760 -0.346760 0.097545
v 0.353553 -0.353554 0.000000
v 0.346760 -0.346760 -0.097545
v 0.326641 -0.326641 -0.191342
v 0.293969 -0.293969 -0.277785
v 0.250000 -0.250000 -0.353553
v 0.196424 -0.196424 -0.415735
v 0.135299 -0.135299 -0.461940
v 0.068975 -0.068975 -0.490393
v 0.054193 -0.081106 0.490393
v 0.106304 -0.159095 0.461940
v 0.154329 -0.230970 0.415735
v 0.196424 -0.293969 0.353553
v 0.230970 -0.345671 0.277785
v 0.256640 -0.384089 0.191342
v 0.272448 -0.407747 0.097545
v 0.277785 -0.415735 0.000000
v 0.272448 -0.407747 -0.097545
v 0.256640 -0.384089 -0.191342
v 0.230970 -0.345671 -0.277785
v 0.196424 -0.293969 -0.353553
v 0.154329 -0.230970 -0.415735
v 0.106304 -0.159095 -0.461940
v 0.054193 -0.081106 -0.490393
v 0.037329 -0.090120 0.490393
v 0.073223 -0.176777 0.461940
v 0.106304 -0.256640 0.415735
v 0.135299 -0.326641 0.353553
v 0.159095 -0.384089 0.277785
v 0.176777 -0.426777 0.191342
v 0.187665 -0.453064 0.097545
v 0.191342 -0.461940 0.000000
v 0.187665 -0.453064 -0.097545
v 0.176777 -0.426777 -0.191342
v 0.159095 -0.384089 -0.277785
v 0.135299 -0.326641 -0.353553
v 0.106304 -0.256640 -0.415735
v 0.073223 -0.176777 -0.461940
v 0.037329 -0.090120 -0.490393
v 0.019030 -0.095671 0.490393
v 0.037329 -0.187665 0.461940
v 0.054193 -0.272448 0.415735
v 0.068975 -0.346760 0.353553
v 0.081106 -0.407747 0.277785
v 0.090120 -0.453064 0.191342
v 0.095671 -0.480970 0.097545
v 0.097545 -0.490393 0.000000
v 0.095671 -0.480970 -0.097545
v 0.090120 -0.453064 -0.191342
v 0.081106 -0.407747 -0.277785
v 0.068975 -0.346760 -0.353553
v 0.054193 -0.272448 -0.415735
v 0.037329 -0.187665 -0.461940
v 0.019030 -0.095671 -0.490393
v -0.000000 -0.097545 0.490393
v -0.000000 -0.191342 0.461940
v -0.000000 -0.277785 0.415735
v 0.000000 -0.353554 0.353553
v -0.000000 -0.415735 0.277785
v 0.000000 -0.461940 0.191342
v -0.000000 -0.490393 0.097545
v -0.000000 -0.500000 0.000000
v -0.000000 -0.490393 -0.097545
v 0.000000 -0.461940 -0.191342
v -0.000000 -0.415735 -0.277785
v 0.000000 -0.353554 -0.353553
v -0.000000 -0.277785 -0.415735
v -0.000000 -0.191342 -0.461940
v -0.000000 -0.097545 -0.490393
v -0.019030 -0.095671 0.490393
v -0.037329 -0.187665 0.461940
v -0.054193 -0.272448 0.415735
v -0.068975 -0.346760 0.353553
v -0.081106 -0.407747 0.277785
v -0.090120 -0.453064 0.191342
v -0.095671 -0.480970 0.097545
v -0.097545 -0.490393 0.000000
v -0.095671 -0.480970 -0.097545
v -0.090120 -0.453064 -0.191342
v -0.081106 -0.407747 -0.277785
v -0.068975 -0.346760 -0.353553
v -0.054193 -0.272448 -0.415735
v -0.037329 -0.187665 -0.461940
v -0.019030 -0.095671 -0.490393
v -0.037329 -0.090120 0.490393
v -0.073223 -0.176777 0.461940
v -0.106304 -0.256640 0.415735
v -0.135299 -0.326641 0.353553
v -0.159095 -0.384089 0.277785
v -0.176777 -0.426777 0.191342
v -0.187665 -0.453064 0.097545
v -0.191342 -0.461940 0.000000
v -0.187665 -0.453064 -0.097545
v -0.176777 -0.426777 -0.191342
v -0.159095 -0.384089 -0.277785
v -0.135299 -0.326641 -0.353553
v -0.106304 -0.256640 -0.415735
v -0.073223 -0.176777 -0.461940
v -0.037329 -0.090120 -0.490393
v -0.054193 -0.081106 0.490393
v -0.106304 -0.159095 0.461940
v -0.154329 -0.230970 0.415735
v -0.196424 -0.293969 0.353553
v -0.230970 -0.345671 0.277785
v -0.256640 -0.384089 0.191342
v -0.272448 -0.407747 0.097545
v -0.277785 -0.415735 0.000000
v -0.272448 -0.407747 -0.097545
v -0.256640 -0.384089 -0.191342
v -0.230970 -0.345671 -0.277785
v -0.196424 -0.293969 -0.353553
v -0.154329 -0.230970 -0.415735
v -0.106304 -0.159095 -0.461940
v -0.054193 -0.081106 -0.490393
v -0.068975 -0.068975 0.490393
v -0.135299 -0.135299 0.461940
v -0.196424 -0.196424 0.415735
v -0.250000 -0.250000 0.353553
v -0.293969 -0.293969 0.277785
v -0.326641 -0.326641 0.191342
v -0.346760 -0.346760 0.097545
v -0.353553 -0.353553 0.000000
v -0.346760 -0.346760 -0.097545
v -0.326641 -0.326641 -0.191342
v -0.293969 -0.293969 -0.277785
v -0.250000 -0.250000 -0.353553
v -0.196424 -0.196424 -0.415735
v -0.135299 -0.135299 -0.461940
v -0.068975 -0.068975 -0.490393
v -0.081106 -0.054193 0.490393
v -0.159095 -0.106304 0.461940
v -0.230970 -0.154329 0.415735
v -0.293969 -0.196424 0.353553
v -0.345671 -0.230970 0.277785
v -0.384089 -0.256640 0.191342
v -0.407747 -0.272448 0.097545
v -0.415735 -0.277785 0.000000
v -0.407747 -0.272448 -0.097545
v -0.384089 -0.256640 -0.191342
v -0.345671 -0.230970 -0.277785
v -0.293969 -0.196424 -0.353553
v -0.230970 -0.154329 -0.415735
v -0.159095 -0.106304 -0.461940
v -0.081106 -0.054193 -0.490393
v -0.090120 -0.037329 0.490393
v -0.176777 -0.073223 0.461940
v -0.256640 -0.106304 0.415735
v -0.326641 -0.135299 0.353553
v -0.384089 -0.159095 0.277785
v -0.426777 -0.176777 0.191342
v -0.453064 -0.187665 0.097545
v -0.461940 -0.191342 0.000000
v -0.453064 -0.187665 -0.097545
v -0.426777 -0.176777 -0.191342
v -0.384089 -0.159095 -0.277785
v -0.326641 -0.135299 -0.353553
v -0.256640 -0.106304 -0.415735
v -0.176777 -0.073223 -0.461940
v -0.090120 -0.037329 -0.490393
v -0.095671 -0.019030 0.490393
v -0.187665 -0.037329 0.461940
v -0.272448 -0.054193 0.415735
v -0.346760 -0.068975 0.353553
v -0.407747 -0.081106 0.277785
v -0.453064 -0.090120 0.191342
v -0.480970 -0.095671 0.097545
v -0.490393 -0.097545 0.000000
v -0.480970 -0.095671 -0.097545
v -0.453064 -0.090120 -0.191342
v -0.407747 -0.081106 -0.277785
v -0.346760 -0.068975 -0.353553
v -0.272448 -0.054193 -0.415735
v -0.187665 -0.037329 -0.461940
v -0.095671 -0.019030 -0.490393
v -0.097545 0.000000 0.490393
v -0.191342 0.000000 0.461940
v -0.277785 0.000000 0.415735
v -0.353553 0.000000 0.353553
v -0.415735 0.000000 0.277785
v -0.461940 -0.000000 0.191342
v -0.490393 0.000000 0.097545
v -0.500000 0.000000 0.000000
v -0.490393 0.000000 -0.097545
v -0.461940 -0.000000 -0.191342
v -0.415735 0.000000 -0.277785
v -0.353553 0.000000 -0.353553
v -0.277785 0.000000 -0.415735
v -0.191342 0.000000 -0.461940
v -0.097545 0.000000 -0.490393
v -0.095671 0.019030 0.490393
v -0.187665 0.037329 0.461940
v -0.272447 0.054193 0.415735
v -0.346760 0.068975 0.353553
v -0.407747 0.081106 0.277785
v -0.453064 0.090120 0.191342
v -0.480970 0.095671 0.097545
v -0.490392 0.097545 0.000000
v -0.480970 0.095671 -0.097545
v -0.453064 0.090120 -0.191342
v -0.407747 0.081106 -0.277785
v -0.346760 0.068975 -0.353553
v -0.272447 0.054193 -0.415735
v -0.187665 0.037329 -0.461940
v -0.095671 0.019030 -0.490393
v -0.090120 0.037329 0.490393
v -0.176777 0.073223 0.461940
v -0.256640 0.106304 0.415735
v -0.326641 0.135299 0.353553
v -0.384089 0.159095 0.277785
v -0.426777 0.176777 0.191342
v -0.453064 0.187665 0.097545
v -0.461940 0.191342 0.000000
v -0.453064 0.187665 -0.097545
v -0.426777 0.176777 -0.191342
v -0.384089 0.159095 -0.277785
v -0.326641 0.135299 -0.353553
v -0.256640 0.106304 -0.415735
v -0.176777 0.073223 -0.461940
v -0.090120 0.037329 -0.490393
v -0.081106 0.054193 0.490393
v -0.159095 0.106304 0.461940
v -0.230970 0.154329 0.415735
v -0.293969 0.196424 0.353553
v -0.345671 0.230970 0.277785
v -0.384089 0.256640 0.191342
v -0.407747 0.272448 0.097545
v -0.415735 0.277785 0.000000
v -0.407747 0.272448 -0.097545
v -0.384089 0.256640 -0.191342
v -0.345671 0.230970 -0.277785
v -0.293969 0.196424 -0.353553
v -0.230970 0.154329 -0.415735
v -0.159095 0.106304 -0.461940
v -0.081106 0.054193 -0.490393
v -0.068975 0.068975 0.490393
v -0.135299 0.135299 0.461940
v -0.196424 0.196424 0.415735
v -0.250000 0.250000 0.353553
v -0.293969 0.293969 0.277785
v -0.326641 0.326641 0.191342
v -0.346760 0.346760 0.097545
v -0.353553 0.353553 0.000000
v -0.346760 0.346760 -0.097545
v -0.326641 0.326641 -0.191342
v -0.293969 0.293969 -0.277785
v -0.250000 0.250000 -0.353553
v -0.196424 0.196424 -0.415735
v -0.135299 0.135299 -0.461940
v -0.068975 0.068975 -0.490393
v -0.054193 0.081106 0.490393
v -0.106304 0.159095 0.461940
v -0.154329 0.230970 0.415735
v -0.196424 0.293969 0.353553
v -0.230970 0.345671 0.277785
v -0.256640 0.384089 0.191342
v -0.272447 0.407747 0.097545
v -0.277785 0.415735 0.000000
v -0.272447 0.407747 -0.097545
v -0.256640 0.384089 -0.191342
v -0.230970 0.345671 -0.277785
v -0.196424 0.293969 -0.353553
v -0.154329 0.230970 -0.415735
v -0.106304 0.159095 -0.461940
v -0.054193 0.081106 -0.490393
v -0.037329 0.090120 0.490393
v -0.073223 0.176777 0.461940
v -0.106304 0.256640 0.415735
v -0.135299 0.326641 0.353553
v -0.159095 0.384089 0.277785
v -0.176777 0.426777 0.191342
v -0.187665 0.453064 0.097545
v -0.191341 0.461940 0.000000
v -0.187665 0.453064 -0.097545
v -0.176777 0.426777 -0.191342
v -0.159095 0.384089 -0.277785
v -0.135299 0.326641 -0.353553
v -0.106304 0.256640 -0.415735
v -0.073223 0.176777 -0.461940
v -0.037329 0.090120 -0.490393
v -0.019030 0.095671 0.490393
v -0.037329 0.187665 0.461940
v -0.054193 0.272447 0.415735
v -0.068975 0.346760 0.353553
v -0.081106 0.407747 0.277785
v -0.090120 0.453064 0.191342
v -0.095671 0.480970 0.097545
v -0.097545 0.490393 0.000000
v -0.095671 0.480970 -0.097545
v -0.090120 0.453064 -0.191342
v -0.081106 0.407747 -0.277785
v -0.068975 0.346760 -0.353553
v -0.054193 0.272447 -0.415735
v -0.037329 0.187665 -0.461940
v -0.019030 0.095671 -0.490393
v 0.000000 0.097545 0.490393
v 0.000000 0.191342 0.461940
v 0.000000 0.277785 0.415735
v 0.000000 0.353554 0.353553
v 0.000000 0.415735 0.277785
v 0.000000 0.461940 0.191342
v 0.000000 0.490393 0.097545
v 0.000000 0.500000 0.000000
v 0.000000 0.490393 -0.097545
v 0.000000 0.461940 -0.191342
v 0.000000 0.415735 -0.277785
v 0.000000 0.353554 -0.353553
v 0.000000 0.277785 -0.415735
v 0.000000 0.191342 -0.461940
v 0.000000 0.097545 -0.490393
v 0.019030 0.095671 0.490393
v 0.037329 0.187665 0.461940
v 0.054193 0.272447 0.415735
v 0.068975 0.346760 0.353553
v 0.081106 0.407747 0.277785
v 0.090120 0.453064 0.191342
v 0.095671 0.480970 0.097545
v 0.097545 0.490392 0.000000
v 0.095671 0.480970 -0.097545
v 0.090120 0.453064 -0.191342
v 0.081106 0.407747 -0.277785
v 0.068975 0.346760 -0.353553
v 0.054193 0.272447 -0.415735
v 0.037329 0.187665 -0.461940
v 0.019030 0.095671 -0.490393
v 0.037329 0.090120 0.490393
v 0.073223 0.176777 0.461940
v 0.106304 0.256640 0.415735
v 0.135299 0.326641 0.353553
v 0.159095 0.384089 0.277785
v 0.176777 0.426777 0.191342
v 0.187665 0.453064 0.097545
v 0.191342 0.461939 0.000000
v 0.187665 0.453064 -0.097545
v 0.176777 0.426777 -0.191342
v 0.159095 0.384089 -0.277785
v 0.135299 0.326641 -0.353553
v 0.106304 0.256640 -0.415735
v 0.073223 0.176777 -0.461940
v 0.037329 0.090120 -0.490393
v 0.054193 0.081106 0.490393
v 0.106304 0.159095 0.461940
v 0.154329 0.230970 0.415735
v 0.196424 0.293969 0.353553
v 0.230970 0.345671 0.277785
v 0.256640 0.384089 0.191342
v 0.272448 0.407747 0.097545
v 0.277785 0.415734 0.000000
v 0.272448 0.407747 -0.097545
v 0.256640 0.384089 -0.191342
v 0.230970 0.345671 -0.277785
v 0.196424 0.293969 -0.353553
v 0.154329 0.230970 -0.415735
v 0.106304 0.159095 -0.461940
v 0.054193 0.081106 -0.490393
v 0.068975 0.068975 0.490393
v 0.135299 0.135299 0.461940
v 0.196424 0.196424 0.415735
v 0.250000 0.250000 0.353553
v 0.293969 0.293969 0.277785
v 0.326641 0.326641 0.191342
v 0.346760 0.346760 0.097545
v 0.353553 0.353553 0.000000
v 0.346760 0.346760 -0.097545
v 0.326641 0.326641 -0.191342
v 0.293969 0.293969 -0.277785
v 0.250000 0.250000 -0.353553
v 0.196424 0.196424 -0.415735
v 0.135299 0.135299 -0.461940
v 0.068975 0.068975 -0.490393
v 0.081106 0.054193 0.490393
v 0.159095 0.106304 0.461940
v 0.230970 0.154329 0.415735
v 0.293969 0.196424 0.353553
v 0.345671 0.230970 0.277785
v 0.384089 0.256640 0.191342
v 0.407747 0.272447 0.097545
v 0.415735 0.277785 0.000000
v 0.407747 0.272447 -0.097545
v 0.384089 0.256640 -0.191342
v 0.345671 0.230970 -0.277785
v 0.293969 0.196424 -0.353553
v 0.230970 0.154329 -0.415735
v 0.159095 0.106304 -0.461940
v 0.081106 0.054193 -0.490393
v 0.090120 0.037329 0.490393
v 0.176777 0.073223 0.461940
v 0.256640 0.106304 0.415735
v 0.326641 0.135299 0.353553
v 0.384089 0.159095 0.277785
v 0.426777 0.176777 0.191342
v 0.453064 0.187665 0.097545
v 0.461939 0.191341 0.000000
v 0.453064 0.187665 -0.097545
v 0.426777 0.176777 -0.191342
v 0.384089 0.159095 -0.277785
v 0.326641 0.135299 -0.353553
v 0.256640 0.106304 -0.415735
v 0.176777 0.073223 -0.461940
v 0.090120 0.037329 -0.490393
v 0.095671 0.019030 0.490393
v 0.187665 0.037329 0.461940
v 0.272447 0.054193 0.415735
v 0.346760 0.068975 0.353553
v 0.407746 0.081106 0.277785
v 0.453064 0.090120 0.191342
v 0.480970 0.095671 0.097545
v 0.490392 0.097545 0.000000
v 0.480970 0.095671 -0.097545
v 0.453064 0.090120 -0.191342
v 0.407746 0.081106 -0.277785
v 0.346760 0.068975 -0.353553
v 0.272447 0.054193 -0.415735
v 0.187665 0.037329 -0.461940
v 0.095671 0.019030 -0.490393
v 0.097545 -0.000000 0.490393
v 0.191342 -0.000000 0.461940
v 0.353553 -0.000000 0.353553
v 0.461940 -0.000000 0.191342
v 0.461940 -0.000000 -0.191342
v 0.353553 -0.000000 -0.353553
v 0.277785 -0.000000 -0.415735
v 0.191342 -0.000000 -0.461940
v 0.097545 -0.000000 -0.490393
vn 0.0980 -0.0097 0.9951
vn 0.0980 -0.0097 -0.9951
vn 0.9904 -0.0975 -0.0975
vn 0.2902 -0.0286 0.9565
vn 0.9527 -0.0938 -0.2890
vn 0.4709 -0.0464 0.8810
vn 0.8786 -0.0865 -0.4696
vn 0.6332 -0.0624 0.7715
vn 0.7708 -0.0759 -0.6326
vn 0.7708 -0.0759 0.6326
vn 0.6332 -0.0624 -0.7715
vn 0.8786 -0.0865 0.4696
vn 0.4709 -0.0464 -0.8810
vn 0.9527 -0.0938 0.2890
vn 0.2902 -0.0286 -0.9565
vn 0.9904 -0.0975 0.0975
vn 0.2790 -0.0846 -0.9565
vn 0.9524 -0.2889 0.0976
vn 0.0942 -0.0286 0.9951
vn 0.0942 -0.0286 -0.9951
vn 0.9524 -0.2889 -0.0976
vn 0.2790 -0.0846 0.9565
vn 0.9161 -0.2779 -0.2890
vn 0.4528 -0.1374 0.8810
vn 0.8448 -0.2563 -0.4696
vn 0.6088 -0.1847 0.7715
vn 0.7412 -0.2248 -0.6326
vn 0.7412 -0.2248 0.6326
vn 0.6088 -0.1847 -0.7715
vn 0.8448 -0.2563 0.4696
vn 0.4528 -0.1374 -0.8810
vn 0.9161 -0.2779 0.2890
vn 0.5611 -0.2999 0.7715
vn 0.6831 -0.3651 -0.6326
vn 0.6831 -0.3651 0.6326
vn 0.5611 -0.2999 -0.7715
vn 0.7786 -0.4162 0.4696
vn 0.4173 -0.2231 -0.8810
vn 0.8443 -0.4513 0.2890
vn 0.2571 -0.1374 -0.9565
vn 0.8777 -0.4691 0.0976
vn 0.0869 -0.0464 0.9951
vn 0.0869 -0.0464 -0.9951
vn 0.8777 -0.4691 -0.0976
vn 0.2571 -0.1374 0.9565
vn 0.8443 -0.4513 -0.2890
vn 0.4173 -0.2231 0.8810
vn 0.7786 -0.4162 -0.4696
vn 0.7693 -0.6314 0.0975
vn 0.0761 -0.0625 0.9951
vn 0.0761 -0.0625 -0.9951
vn 0.7693 -0.6314 -0.0975
vn 0.2254 -0.1850 0.9565
vn 0.7400 -0.6073 -0.2890
vn 0.3658 -0.3002 0.8810
vn 0.6825 -0.5601 -0.4696
vn 0.4918 -0.4036 0.7715
vn 0.5987 -0.4913 -0.6326
vn 0.5987 -0.4913 0.6326
vn 0.4918 -0.4036 -0.7715
vn 0.6825 -0.5601 0.4696
vn 0.3658 -0.3002 -0.8810
vn 0.7400 -0.6073 0.2890
vn 0.2254 -0.1850 -0.9565
vn 0.4913 -0.5987 -0.6326
vn 0.4913 -0.5987 0.6326
vn 0.4036 -0.4918 -0.7715
vn 0.5601 -0.6825 0.4696
vn 0.3002 -0.3658 -0.8810
vn 0.6073 -0.7400 0.2890
vn 0.1850 -0.2254 -0.9565
vn 0.6314 -0.7693 0.0975
vn 0.0625 -0.0761 0.9951
vn 0.0625 -0.0761 -0.9951
vn 0.6314 -0.7693 -0.0975
vn 0.1850 -0.2254 0.9565
vn 0.6073 -0.7400 -0.2890
vn 0.3002 -0.3658 0.8810
vn 0.5601 -0.6825 -0.4696
vn 0.4036 -0.4918 0.7715
vn 0.0464 -0.0869 0.9951
vn 0.0464 -0.0869 -0.9951
vn 0.4691 -0.8777 -0.0975
vn 0.1374 -0.2571 0.9565
vn 0.4513 -0.8443 -0.2890
vn 0.2230 -0.4173 0.8810
vn 0.4162 -0.7786 -0.4696
vn 0.2999 -0.5611 0.7715
vn 0.3651 -0.6831 -0.6326
vn 0.3651 -0.6831 0.6326
vn 0.2999 -0.5611 -0.7715
vn 0.4162 -0.7786 0.4696
vn 0.2230 -0.4173 -0.8810
vn 0.4513 -0.8443 0.2890
vn 0.1374 -0.2571 -0.9565
vn 0.4691 -0.8777 0.0975
vn 0.2248 -0.7412 0.6326
vn 0.1847 -0.6088 -0.7715
vn 0.2563 -0.8448 0.4696
vn 0.1374 -0.4528 -0.8810
vn 0.2779 -0.9161 0.2890
vn 0.0846 -0.2790 -0.9565
vn 0.2889 -0.9524 0.0975
vn 0.0286 -0.0942 0.9951
vn 0.0286 -0.0942 -0.9951
vn 0.2889 -0.9524 -0.0975
vn 0.0846 -0.2790 0.9565
vn 0.2779 -0.9161 -0.2890
vn 0.1374 -0.4528 0.8810
vn 0.2563 -0.8448 -0.4696
vn 0.1847 -0.6088 0.7715
vn 0.2248 -0.7412 -0.6326
vn 0.0975 -0.9904 -0.0975
vn 0.0286 -0.2902 0.9565
vn 0.0938 -0.9527 -0.2890
vn 0.0464 -0.4709 0.8810
vn 0.0865 -0.8786 -0.4696
vn 0.0624 -0.6332 0.7715
vn 0.0759 -0.7708 -0.6326
vn 0.0759 -0.7708 0.6326
vn 0.0624 -0.6332 -0.7715
vn 0.0865 -0.8786 0.4696
vn 0.0464 -0.4709 -0.8810
vn 0.0938 -0.9527 0.2890
vn 0.0286 -0.2902 -0.9565
vn 0.0975 -0.9904 0.0975
vn 0.0097 -0.0980 0.9951
vn 0.0097 -0.0980 -0.9951
vn -0.0624 -0.6332 -0.7715
vn -0.0865 -0.8786 0.4696
vn -0.0464 -0.4709 -0.8810
vn -0.0938 -0.9527 0.2890
vn -0.0286 -0.2902 -0.9565
vn -0.0975 -0.9904 0.0975
vn -0.0097 -0.0980 0.9951
vn -0.0097 -0.0980 -0.9951
vn -0.0975 -0.9904 -0.0975
vn -0.0286 -0.2902 0.9565
vn -0.0938 -0.9527 -0.2890
vn -0.0464 -0.4709 0.8810
vn -0.0865 -0.8786 -0.4696
vn -0.0624 -0.6332 0.7715
vn -0.0759 -0.7708 -0.6326
vn -0.0759 -0.7708 0.6326
vn -0.2779 -0.9161 -0.2890
vn -0.1374 -0.4528 0.8810
vn -0.2563 -0.8448 -0.4696
vn -0.1847 -0.6088 0.7715
vn -0.2248 -0.7412 -0.6326
vn -0.2248 -0.7412 0.6326
vn -0.1847 -0.6088 -0.7715
vn -0.2563 -0.8448 0.4696
vn -0.1374 -0.4528 -0.8810
vn -0.2779 -0.9161 0.2890
vn -0.0846 -0.2790 -0.9565
vn -0.2889 -0.9524 0.0975
vn -0.0286 -0.0942 0.9951
vn -0.0286 -0.0942 -0.9951
vn -0.2889 -0.9524 -0.0975
vn -0.0846 -0.2790 0.9565
vn -0.2231 -0.4173 -0.8810
vn -0.4513 -0.8443 0.2890
vn -0.1374 -0.2571 -0.9565
vn -0.4691 -0.8777 0.0975
vn -0.0464 -0.0869 0.9951
vn -0.0464 -0.0869 -0.9951
vn -0.4691 -0.8777 -0.0975
vn -0.1374 -0.2571 0.9565
vn -0.4513 -0.8443 -0.2890
vn -0.2231 -0.4173 0.8810
vn -0.4162 -0.7786 -0.4696
vn -0.2999 -0.5611 0.7715
vn -0.3651 -0.6831 -0.6326
vn -0.3651 -0.6831 0.6326
vn -0.2999 -0.5611 -0.7715
vn -0.4162 -0.7786 0.4696
vn -0.3002 -0.3658 0.8810
vn -0.5601 -0.6825 -0.4696
vn -0.4036 -0.4918 0.7715
vn -0.4913 -0.5987 -0.6326
vn -0.4913 -0.5987 0.6326
vn -0.4036 -0.4918 -0.7715
vn -0.5601 -0.6825 0.4696
vn -0.3002 -0.3658 -0.8810
vn -0.6073 -0.7400 0.2890
vn -0.1850 -0.2254 -0.9565
vn -0.6314 -0.7693 0.0975
vn -0.0625 -0.0761 0.9951
vn -0.0625 -0.0761 -0.9951
vn -0.6314 -0.7693 -0.0975
vn -0.1850 -0.2254 0.9565
vn -0.6073 -0.7400 -0.2890
vn -0.7400 -0.6073 0.2890
vn -0.2254 -0.1850 -0.9565
vn -0.7693 -0.6314 0.0975
vn -0.0761 -0.0625 0.9951
vn -0.0761 -0.0625 -0.9951
vn -0.7693 -0.6314 -0.0975
vn -0.2254 -0.1850 0.9565
vn -0.7400 -0.6073 -0.2890
vn -0.3658 -0.3002 0.8810
vn -0.6825 -0.5601 -0.4696
vn -0.4918 -0.4036 0.7715
vn -0.5987 -0.4913 -0.6326
vn -0.5987 -0.4913 0.6326
vn -0.4918 -0.4036 -0.7715
vn -0.6825 -0.5601 0.4696
vn -0.3658 -0.3002 -0.8810
vn -0.7786 -0.4162 -0.4696
vn -0.5611 -0.2999 0.7715
vn -0.6831 -0.3651 -0.6326
vn -0.6831 -0.3651 0.6326
vn -0.5611 -0.2999 -0.7715
vn -0.7786 -0.4162 0.4696
vn -0.4173 -0.2230 -0.8810
vn -0.8443 -0.4513 0.2890
vn -0.2571 -0.1374 -0.9565
vn -0.8777 -0.4691 0.0975
vn -0.0869 -0.0464 0.9951
vn -0.0869 -0.0464 -0.9951
vn -0.8777 -0.4691 -0.0975
vn -0.2571 -0.1374 0.9565
vn -0.8443 -0.4513 -0.2890
vn -0.4173 -0.2230 0.8810
vn -0.2790 -0.0846 -0.9565
vn -0.9524 -0.2889 0.0975
vn -0.0942 -0.0286 0.9951
vn -0.0942 -0.0286 -0.9951
vn -0.9524 -0.2889 -0.0975
vn -0.2790 -0.0846 0.9565
vn -0.9161 -0.2779 -0.2890
vn -0.4528 -0.1374 0.8810
vn -0.8448 -0.2563 -0.4696
vn -0.6088 -0.1847 0.7715
vn -0.7412 -0.2248 -0.6326
vn -0.7412 -0.2248 0.6326
vn -0.6088 -0.1847 -0.7715
vn -0.8448 -0.2563 0.4696
vn -0.4528 -0.1374 -0.8810
vn -0.9161 -0.2779 0.2890
vn -0.6332 -0.0624 0.7715
vn -0.7708 -0.0759 -0.6326
vn -0.7708 -0.0759 0.6326
vn -0.6332 -0.0624 -0.7715
vn -0.8786 -0.0865 0.4696
vn -0.4709 -0.0464 -0.8810
vn -0.9527 -0.0938 0.2890
vn -0.2902 -0.0286 -0.9565
vn -0.9904 -0.0975 0.0975
vn -0.0980 -0.0097 0.9951
vn -0.0980 -0.0097 -0.9951
vn -0.9904 -0.0975 -0.0975
vn -0.2902 -0.0286 0.9565
vn -0.9527 -0.0938 -0.2890
vn -0.4709 -0.0464 0.8810
vn -0.8786 -0.0865 -0.4696
vn -0.9904 0.0976 0.0975
vn -0.0980 0.0097 0.9951
vn -0.0980 0.0097 -0.9951
vn -0.9904 0.0976 -0.0975
vn -0.2902 0.0286 0.9565
vn -0.9527 0.0938 -0.2890
vn -0.4709 0.0464 0.8810
vn -0.8786 0.0865 -0.4696
vn -0.6332 0.0624 0.7715
vn -0.7708 0.0759 -0.6326
vn -0.7708 0.0759 0.6326
vn -0.6332 0.0624 -0.7715
vn -0.8786 0.0865 0.4696
vn -0.4709 0.0464 -0.8810
vn -0.9527 0.0938 0.2890
vn -0.2902 0.0286 -0.9565
vn -0.7412 0.2248 -0.6326
vn -0.7412 0.2248 0.6326
vn -0.6088 0.1847 -0.7715
vn -0.8448 0.2563 0.4696
vn -0.4528 0.1374 -0.8810
vn -0.9161 0.2779 0.2890
vn -0.2790 0.0846 -0.9565
vn -0.9524 0.2889 0.0975
vn -0.0942 0.0286 0.9951
vn -0.0942 0.0286 -0.9951
vn -0.9524 0.2889 -0.0975
vn -0.2790 0.0846 0.9565
vn -0.9161 0.2779 -0.2890
vn -0.4528 0.1374 0.8810
vn -0.8448 0.2563 -0.4696
vn -0.6088 0.1847 0.7715
vn -0.0869 0.0464 -0.9951
vn -0.8777 0.4691 -0.0975
vn -0.2571 0.1374 0.9565
vn -0.8443 0.4513 -0.2890
vn -0.4173 0.2230 0.8810
vn -0.7786 0.4162 -0.4696
vn -0.5611 0.2999 0.7715
vn -0.6831 0.3651 -0.6326
vn -0.6831 0.3651 0.6326
vn -0.5611 0.2999 -0.7715
vn -0.7786 0.4162 0.4696
vn -0.4173 0.2230 -0.8810
vn -0.8443 0.4513 0.2890
vn -0.2571 0.1374 -0.9565
vn -0.8777 0.4691 0.0975
vn -0.0869 0.0464 0.9951
vn -0.4918 0.4036 -0.7715
vn -0.6825 0.5601 0.4696
vn -0.3658 0.3002 -0.8810
vn -0.7400 0.6073 0.2890
vn -0.2254 0.1850 -0.9565
vn -0.7693 0.6314 0.0975
vn -0.0761 0.0625 0.9951
vn -0.0761 0.0625 -0.9951
vn -0.7693 0.6314 -0.0975
vn -0.2254 0.1850 0.9565
vn -0.7400 0.6073 -0.2890
vn -0.3658 0.3002 0.8810
vn -0.6825 0.5601 -0.4696
vn -0.4918 0.4036 0.7715
vn -0.5987 0.4913 -0.6326
vn -0.5987 0.4913 0.6326
vn -0.1850 0.2254 0.9565
vn -0.6073 0.7400 -0.2890
vn -0.3002 0.3658 0.8810
vn -0.5601 0.6825 -0.4696
vn -0.4036 0.4918 0.7715
vn -0.4913 0.5987 -0.6326
vn -0.4913 0.5987 0.6326
vn -0.4036 0.4918 -0.7715
vn -0.5601 0.6825 0.4696
vn -0.3002 0.3658 -0.8810
vn -0.6073 0.7400 0.2890
vn -0.1850 0.2254 -0.9565
vn -0.6314 0.7693 0.0975
vn -0.0625 0.0761 0.9951
vn -0.0625 0.0761 -0.9951
vn -0.6314 0.7693 -0.0975
vn -0.4162 0.7786 0.4696
vn -0.2230 0.4173 -0.8810
vn -0.4513 0.8443 0.2890
vn -0.1374 0.2571 -0.9565
vn -0.4691 0.8777 0.0975
vn -0.0464 0.0869 0.9951
vn -0.0464 0.0869 -0.9951
vn -0.4691 0.8777 -0.0975
vn -0.1374 0.2571 0.9565
vn -0.4513 0.8443 -0.2890
vn -0.2230 0.4173 0.8810
vn -0.4162 0.7786 -0.4696
vn -0.2999 0.5611 0.7715
vn -0.3651 0.6831 -0.6326
vn -0.3651 0.6831 0.6326
vn -0.2999 0.5611 -0.7715
vn -0.2779 0.9161 -0.2890
vn -0.1374 0.4528 0.8810
vn -0.2563 0.8448 -0.4696
vn -0.1847 0.6088 0.7715
vn -0.2248 0.7412 -0.6326
vn -0.2248 0.7412 0.6326
vn -0.1847 0.6088 -0.7715
vn -0.2563 0.8448 0.4696
vn -0.1374 0.4528 -0.8810
vn -0.2779 0.9161 0.2890
vn -0.0846 0.2790 -0.9565
vn -0.2889 0.9524 0.0975
vn -0.0286 0.0942 0.9951
vn -0.0286 0.0942 -0.9951
vn -0.2889 0.9524 -0.0975
vn -0.0846 0.2790 0.9565
vn -0.0464 0.4709 -0.8810
vn -0.0938 0.9527 0.2890
vn -0.0286 0.2902 -0.9565
vn -0.0975 0.9904 0.0975
vn -0.0097 0.0980 0.9951
vn -0.0097 0.0980 -0.9951
vn -0.0975 0.9904 -0.0975
vn -0.0286 0.2902 0.9565
vn -0.0938 0.9527 -0.2890
vn -0.0464 0.4709 0.8810
vn -0.0865 0.8786 -0.4696
vn -0.0624 0.6332 0.7715
vn -0.0759 0.7708 -0.6326
vn -0.0759 0.7708 0.6326
vn -0.0624 0.6332 -0.7715
vn -0.0865 0.8786 0.4696
vn 0.0464 0.4709 0.8810
vn 0.0865 0.8786 -0.4696
vn 0.0624 0.6332 0.7715
vn 0.0759 0.7708 -0.6326
vn 0.0759 0.7708 0.6326
vn 0.0624 0.6332 -0.7715
vn 0.0865 0.8786 0.4696
vn 0.0464 0.4709 -0.8810
vn 0.0938 0.9527 0.2890
vn 0.0286 0.2902 -0.9565
vn 0.0976 0.9904 0.0975
vn 0.0097 0.0980 0.9951
vn 0.0097 0.0980 -0.9951
vn 0.0976 0.9904 -0.0975
vn 0.0286 0.2902 0.9565
vn 0.0938 0.9527 -0.2890
vn 0.2779 0.9161 0.2890
vn 0.0846 0.2790 -0.9565
vn 0.2889 0.9524 0.0975
vn 0.0286 0.0942 0.9951
vn 0.0286 0.0942 -0.9951
vn 0.2889 0.9524 -0.0975
vn 0.0846 0.2790 0.9565
vn 0.2779 0.9161 -0.2890
vn 0.1374 0.4528 0.8810
vn 0.2563 0.8448 -0.4696
vn 0.1847 0.6088 0.7715
vn 0.2248 0.7412 -0.6326
vn 0.2248 0.7412 0.6326
vn 0.1847 0.6088 -0.7715
vn 0.2563 0.8448 0.4696
vn 0.1374 0.4528 -0.8810
vn 0.4162 0.7786 -0.4696
vn 0.2999 0.5611 0.7715
vn 0.3651 0.6831 -0.6326
vn 0.3651 0.6831 0.6326
vn 0.2999 0.5611 -0.7715
vn 0.4162 0.7786 0.4696
vn 0.2231 0.4173 -0.8810
vn 0.4513 0.8443 0.2890
vn 0.1374 0.2571 -0.9565
vn 0.4691 0.8777 0.0975
vn 0.0464 0.0869 0.9951
vn 0.0464 0.0869 -0.9951
vn 0.4691 0.8777 -0.0975
vn 0.1374 0.2571 0.9565
vn 0.4513 0.8443 -0.2890
vn 0.2231 0.4173 0.8810
vn 0.1850 0.2254 -0.9565
vn 0.6314 0.7693 0.0975
vn 0.0625 0.0761 0.9951
vn 0.0625 0.0761 -0.9951
vn 0.6314 0.7693 -0.0975
vn 0.1850 0.2254 0.9565
vn 0.6073 0.7400 -0.2890
vn 0.3002 0.3658 0.8810
vn 0.5601 0.6825 -0.4696
vn 0.4036 0.4918 0.7715
vn 0.4913 0.5987 -0.6326
vn 0.4913 0.5987 0.6326
vn 0.4036 0.4918 -0.7715
vn 0.5601 0.6825 0.4696
vn 0.3002 0.3658 -0.8810
vn 0.6073 0.7400 0.2890
vn 0.5987 0.4913 -0.6326
vn 0.5987 0.4913 0.6326
vn 0.4918 0.4036 -0.7715
vn 0.6825 0.5601 0.4696
vn 0.3658 0.3002 -0.8810
vn 0.7400 0.6073 0.2890
vn 0.2254 0.1850 -0.9565
vn 0.7693 0.6314 0.0975
vn 0.0761 0.0625 0.9951
vn 0.0761 0.0625 -0.9951
vn 0.7693 0.6314 -0.0975
vn 0.2254 0.1850 0.9565
vn 0.7400 0.6073 -0.2890
vn 0.3658 0.3002 0.8810
vn 0.6825 0.5601 -0.4696
vn 0.4918 0.4036 0.7715
vn 0.0869 0.0464 0.9951
vn 0.0869 0.0464 -0.9951
vn 0.8777 0.4691 -0.0975
vn 0.2571 0.1374 0.9565
vn 0.8443 0.4513 -0.2890
vn 0.4173 0.2230 0.8810
vn 0.7786 0.4162 -0.4696
vn 0.5611 0.2999 0.7715
vn 0.6831 0.3651 -0.6326
vn 0.6831 0.3651 0.6326
vn 0.5611 0.2999 -0.7715
vn 0.7786 0.4162 0.4696
vn 0.4173 0.2230 -0.8810
vn 0.8443 0.4513 0.2890
vn 0.2571 0.1374 -0.9565
vn 0.8777 0.4691 0.0975
vn 0.7412 0.2248 0.6326
vn 0.6088 0.1847 -0.7715
vn 0.8448 0.2563 0.4696
vn 0.4528 0.1374 -0.8810
vn 0.9161 0.2779 0.2890
vn 0.2790 0.0846 -0.9565
vn 0.9524 0.2889 0.0975
vn 0.0942 0.0286 0.9951
vn 0.0942 0.0286 -0.9951
vn 0.9524 0.2889 -0.0975
vn 0.2790 0.0846 0.9565
vn 0.9161 0.2779 -0.2890
vn 0.4528 0.1374 0.8810
vn 0.8448 0.2563 -0.4696
vn 0.6088 0.1847 0.7715
vn 0.7412 0.2248 -0.6326
vn 0.9904 0.0976 -0.0975
vn 0.2902 0.0286 0.9565
vn 0.9527 0.0938 -0.2890
vn 0.4709 0.0464 0.8810
vn 0.8786 0.0865 -0.4696
vn 0.6332 0.0624 0.7715
vn 0.7708 0.0759 -0.6326
vn 0.7708 0.0759 0.6326
vn 0.6332 0.0624 -0.7715
vn 0.8786 0.0865 0.4696
vn 0.4709 0.0464 -0.8810
vn 0.9527 0.0938 0.2890
vn 0.2902 0.0286 -0.9565
vn 0.9904 0.0976 0.0975
vn 0.0980 0.0097 0.9951
vn 0.0980 0.0097 -0.9951
vt 0.750000 0.937500
vt 0.734375 1.000000
vt 0.718750 0.937500
vt 0.734375 0.000000
vt 0.750000 0.062500
vt 0.718750 0.062500
vt 0.750000 0.437500
vt 0.750000 0.500000
vt 0.718750 0.500000
vt 0.718750 0.437500
vt 0.750000 0.875000
vt 0.718750 0.875000
vt 0.750000 0.375000
vt 0.718750 0.375000
vt 0.750000 0.812500
vt 0.718750 0.812500
vt 0.750000 0.312500
vt 0.718750 0.312500
vt 0.750000 0.750000
vt 0.718750 0.750000
vt 0.750000 0.250000
vt 0.718750 0.250000
vt 0.750000 0.687500
vt 0.718750 0.687500
vt 0.750000 0.187500
vt 0.718750 0.187500
vt 0.750000 0.625000
vt 0.718750 0.625000
vt 0.750000 0.125000
vt 0.718750 0.125000
vt 0.750000 0.562500
vt 0.718750 0.562500
vt 0.687500 0.125000
vt 0.687500 0.062500
vt 0.687500 0.562500
vt 0.687500 0.500000
vt 0.703125 1.000000
vt 0.687500 0.937500
vt 0.703125 0.000000
vt 0.687500 0.437500
vt 0.687500 0.875000
vt 0.687500 0.375000
vt 0.687500 0.812500
vt 0.687500 0.312500
vt 0.687500 0.750000
vt 0.687500 0.250000
vt 0.687500 0.687500
vt 0.687500 0.187500
vt 0.687500 0.625000
vt 0.656250 0.812500
vt 0.656250 0.750000
vt 0.656250 0.312500
vt 0.656250 0.250000
vt 0.656250 0.687500
vt 0.656250 0.187500
vt 0.656250 0.625000
vt 0.656250 0.125000
vt 0.656250 0.562500
vt 0.656250 0.062500
vt 0.656250 0.500000
vt 0.671875 1.000000
vt 0.656250 0.937500
vt 0.671875 0.000000
vt 0.656250 0.437500
vt 0.656250 0.875000
vt 0.656250 0.375000
vt 0.625000 0.562500
vt 0.625000 0.500000
vt 0.640625 1.000000
vt 0.625000 0.937500
vt 0.640625 0.000000
vt 0.625000 0.062500
vt 0.625000 0.437500
vt 0.625000 0.875000
vt 0.625000 0.375000
vt 0.625000 0.812500
vt 0.625000 0.312500
vt 0.625000 0.750000
vt 0.625000 0.250000
vt 0.625000 0.687500
vt 0.625000 0.187500
vt 0.625000 0.625000
vt 0.625000 0.125000
vt 0.593750 0.312500
vt 0.593750 0.250000
vt 0.593750 0.750000
vt 0.593750 0.687500
vt 0.593750 0.187500
vt 0.593750 0.625000
vt 0.593750 0.125000
vt 0.593750 0.562500
vt 0.593750 0.062500
vt 0.593750 0.500000
vt 0.609375 1.000000
vt 0.593750 0.937500
vt 0.609375 0.000000
vt 0.593750 0.437500
vt 0.593750 0.875000
vt 0.593750 0.375000
vt 0.593750 0.812500
vt 0.578125 1.000000
vt 0.562500 0.937500
vt 0.578125 0.000000
vt 0.562500 0.062500
vt 0.562500 0.500000
vt 0.562500 0.437500
vt 0.562500 0.875000
vt 0.562500 0.375000
vt 0.562500 0.812500
vt 0.562500 0.312500
vt 0.562500 0.750000
vt 0.562500 0.250000
vt 0.562500 0.687500
vt 0.562500 0.187500
vt 0.562500 0.625000
vt 0.562500 0.125000
vt 0.562500 0.562500
vt 0.531250 0.750000
vt 0.531250 0.687500
vt 0.531250 0.250000
vt 0.531250 0.187500
vt 0.531250 0.625000
vt 0.531250 0.125000
vt 0.531250 0.562500
vt 0.531250 0.062500
vt 0.531250 0.500000
vt 0.546875 1.000000
vt 0.531250 0.937500
vt 0.546875 0.000000
vt 0.531250 0.437500
vt 0.531250 0.875000
vt 0.531250 0.375000
vt 0.531250 0.812500
vt 0.531250 0.312500
vt 0.500000 0.500000
vt 0.500000 0.437500
vt 0.500000 0.937500
vt 0.500000 0.875000
vt 0.500000 0.375000
vt 0.500000 0.812500
vt 0.500000 0.312500
vt 0.500000 0.750000
vt 0.500000 0.250000
vt 0.500000 0.687500
vt 0.500000 0.187500
vt 0.500000 0.625000
vt 0.500000 0.125000
vt 0.500000 0.562500
vt 0.500000 0.062500
vt 0.515625 1.000000
vt 0.515625 0.000000
vt 0.468750 0.250000
vt 0.468750 0.187500
vt 0.468750 0.687500
vt 0.468750 0.625000
vt 0.468750 0.125000
vt 0.468750 0.562500
vt 0.468750 0.062500
vt 0.468750 0.500000
vt 0.484375 1.000000
vt 0.468750 0.937500
vt 0.484375 0.000000
vt 0.468750 0.437500
vt 0.468750 0.875000
vt 0.468750 0.375000
vt 0.468750 0.812500
vt 0.468750 0.312500
vt 0.468750 0.750000
vt 0.437500 0.437500
vt 0.437500 0.375000
vt 0.437500 0.875000
vt 0.437500 0.812500
vt 0.437500 0.312500
vt 0.437500 0.750000
vt 0.437500 0.250000
vt 0.437500 0.687500
vt 0.437500 0.187500
vt 0.437500 0.625000
vt 0.437500 0.125000
vt 0.437500 0.562500
vt 0.437500 0.062500
vt 0.437500 0.500000
vt 0.453125 1.000000
vt 0.437500 0.937500
vt 0.453125 0.000000
vt 0.406250 0.187500
vt 0.406250 0.125000
vt 0.406250 0.625000
vt 0.406250 0.562500
vt 0.406250 0.062500
vt 0.406250 0.500000
vt 0.421875 1.000000
vt 0.406250 0.937500
vt 0.421875 0.000000
vt 0.406250 0.437500
vt 0.406250 0.875000
vt 0.406250 0.375000
vt 0.406250 0.812500
vt 0.406250 0.312500
vt 0.406250 0.750000
vt 0.406250 0.250000
vt 0.406250 0.687500
vt 0.375000 0.875000
vt 0.375000 0.812500
vt 0.375000 0.375000
vt 0.375000 0.312500
vt 0.375000 0.750000
vt 0.375000 0.250000
vt 0.375000 0.687500
vt 0.375000 0.187500
vt 0.375000 0.625000
vt 0.375000 0.125000
vt 0.375000 0.562500
vt 0.375000 0.062500
vt 0.375000 0.500000
vt 0.390625 1.000000
vt 0.375000 0.937500
vt 0.390625 0.000000
vt 0.375000 0.437500
vt 0.343750 0.625000
vt 0.343750 0.562500
vt 0.343750 0.125000
vt 0.343750 0.062500
vt 0.343750 0.500000
vt 0.359375 1.000000
vt 0.343750 0.937500
vt 0.359375 0.000000
vt 0.343750 0.437500
vt 0.343750 0.875000
vt 0.343750 0.375000
vt 0.343750 0.812500
vt 0.343750 0.312500
vt 0.343750 0.750000
vt 0.343750 0.250000
vt 0.343750 0.687500
vt 0.343750 0.187500
vt 0.312500 0.375000
vt 0.312500 0.312500
vt 0.312500 0.812500
vt 0.312500 0.750000
vt 0.312500 0.250000
vt 0.312500 0.687500
vt 0.312500 0.187500
vt 0.312500 0.625000
vt 0.312500 0.125000
vt 0.312500 0.562500
vt 0.312500 0.062500
vt 0.312500 0.500000
vt 0.328125 1.000000
vt 0.312500 0.937500
vt 0.328125 0.000000
vt 0.312500 0.437500
vt 0.312500 0.875000
vt 0.281250 0.125000
vt 0.281250 0.062500
vt 0.281250 0.562500
vt 0.281250 0.500000
vt 0.296875 1.000000
vt 0.281250 0.937500
vt 0.296875 0.000000
vt 0.281250 0.437500
vt 0.281250 0.875000
vt 0.281250 0.375000
vt 0.281250 0.812500
vt 0.281250 0.312500
vt 0.281250 0.750000
vt 0.281250 0.250000
vt 0.281250 0.687500
vt 0.281250 0.187500
vt 0.281250 0.625000
vt 0.250000 0.812500
vt 0.250000 0.750000
vt 0.250000 0.312500
vt 0.250000 0.250000
vt 0.250000 0.687500
vt 0.250000 0.187500
vt 0.250000 0.625000
vt 0.250000 0.125000
vt 0.250000 0.562500
vt 0.250000 0.062500
vt 0.250000 0.500000
vt 0.265625 1.000000
vt 0.250000 0.937500
vt 0.265625 0.000000
vt 0.250000 0.437500
vt 0.250000 0.875000
vt 0.250000 0.375000
vt 0.218750 0.562500
vt 0.218750 0.500000
vt 0.234375 1.000000
vt 0.218750 0.937500
vt 0.234375 0.000000
vt 0.218750 0.062500
vt 0.218750 0.437500
vt 0.218750 0.875000
vt 0.218750 0.375000
vt 0.218750 0.812500
vt 0.218750 0.312500
vt 0.218750 0.750000
vt 0.218750 0.250000
vt 0.218750 0.687500
vt 0.218750 0.187500
vt 0.218750 0.625000
vt 0.218750 0.125000
vt 0.187500 0.312500
vt 0.187500 0.250000
vt 0.187500 0.750000
vt 0.187500 0.687500
vt 0.187500 0.187500
vt 0.187500 0.625000
vt 0.187500 0.125000
vt 0.187500 0.562500
vt 0.187500 0.062500
vt 0.187500 0.500000
vt 0.203125 1.000000
vt 0.187500 0.937500
vt 0.203125 0.000000
vt 0.187500 0.437500
vt 0.187500 0.875000
vt 0.187500 0.375000
vt 0.187500 0.812500
vt 0.171875 0.000000
vt 0.156250 0.062500
vt 0.156250 0.500000
vt 0.156250 0.437500
vt 0.156250 0.937500
vt 0.156250 0.875000
vt 0.156250 0.375000
vt 0.156250 0.812500
vt 0.156250 0.312500
vt 0.156250 0.750000
vt 0.156250 0.250000
vt 0.156250 0.687500
vt 0.156250 0.187500
vt 0.156250 0.625000
vt 0.156250 0.125000
vt 0.156250 0.562500
vt 0.171875 1.000000
vt 0.125000 0.250000
vt 0.125000 0.187500
vt 0.125000 0.687500
vt 0.125000 0.625000
vt 0.125000 0.125000
vt 0.125000 0.562500
vt 0.125000 0.062500
vt 0.125000 0.500000
vt 0.140625 1.000000
vt 0.125000 0.937500
vt 0.140625 0.000000
vt 0.125000 0.437500
vt 0.125000 0.875000
vt 0.125000 0.375000
vt 0.125000 0.812500
vt 0.125000 0.312500
vt 0.125000 0.750000
vt 0.093750 0.937500
vt 0.093750 0.875000
vt 0.093750 0.437500
vt 0.093750 0.375000
vt 0.093750 0.812500
vt 0.093750 0.312500
vt 0.093750 0.750000
vt 0.093750 0.250000
vt 0.093750 0.687500
vt 0.093750 0.187500
vt 0.093750 0.625000
vt 0.093750 0.125000
vt 0.093750 0.562500
vt 0.093750 0.062500
vt 0.093750 0.500000
vt 0.109375 1.000000
vt 0.109375 0.000000
vt 0.062500 0.687500
vt 0.062500 0.625000
vt 0.062500 0.187500
vt 0.062500 0.125000
vt 0.062500 0.562500
vt 0.062500 0.062500
vt 0.062500 0.500000
vt 0.078125 1.000000
vt 0.062500 0.937500
vt 0.078125 0.000000
vt 0.062500 0.437500
vt 0.062500 0.875000
vt 0.062500 0.375000
vt 0.062500 0.812500
vt 0.062500 0.312500
vt 0.062500 0.750000
vt 0.062500 0.250000
vt 0.031250 0.437500
vt 0.031250 0.375000
vt 0.031250 0.875000
vt 0.031250 0.812500
vt 0.031250 0.312500
vt 0.031250 0.750000
vt 0.031250 0.250000
vt 0.031250 0.687500
vt 0.031250 0.187500
vt 0.031250 0.625000
vt 0.031250 0.125000
vt 0.031250 0.562500
vt 0.031250 0.062500
vt 0.031250 0.500000
vt 0.046875 1.000000
vt 0.031250 0.937500
vt 0.046875 0.000000
vt 0.000000 0.187500
vt 0.000000 0.125000
vt 0.000000 0.625000
vt 0.000000 0.562500
vt 0.000000 0.062500
vt 0.000000 0.500000
vt 0.015625 1.000000
vt 0.000000 0.937500
vt 0.015625 0.000000
vt 0.000000 0.437500
vt 0.000000 0.875000
vt 0.000000 0.375000
vt 0.000000 0.812500
vt 0.000000 0.312500
vt 0.000000 0.750000
vt 0.000000 0.250000
vt 0.000000 0.687500
vt 1.000000 0.812500
vt 1.000000 0.875000
vt 0.968750 0.875000
vt 0.968750 0.812500
vt 1.000000 0.312500
vt 1.000000 0.375000
vt 0.968750 0.375000
vt 0.968750 0.312500
vt 1.000000 0.750000
vt 0.968750 0.750000
vt 1.000000 0.250000
vt 0.968750 0.250000
vt 1.000000 0.687500
vt 0.968750 0.687500
vt 1.000000 0.187500
vt 0.968750 0.187500
vt 1.000000 0.625000
vt 0.968750 0.625000
vt 1.000000 0.125000
vt 0.968750 0.125000
vt 1.000000 0.562500
vt 0.968750 0.562500
vt 1.000000 0.062500
vt 0.968750 0.062500
vt 1.000000 0.500000
vt 0.968750 0.500000
vt 1.000000 0.937500
vt 0.984375 1.000000
vt 0.968750 0.937500
vt 0.984375 0.000000
vt 1.000000 0.437500
vt 0.968750 0.437500
vt 0.937500 0.625000
vt 0.937500 0.562500
vt 0.937500 0.125000
vt 0.937500 0.062500
vt 0.937500 0.500000
vt 0.953125 1.000000
vt 0.937500 0.937500
vt 0.953125 0.000000
vt 0.937500 0.437500
vt 0.937500 0.875000
vt 0.937500 0.375000
vt 0.937500 0.812500
vt 0.937500 0.312500
vt 0.937500 0.750000
vt 0.937500 0.250000
vt 0.937500 0.687500
vt 0.937500 0.187500
vt 0.906250 0.375000
vt 0.906250 0.312500
vt 0.906250 0.812500
vt 0.906250 0.750000
vt 0.906250 0.250000
vt 0.906250 0.687500
vt 0.906250 0.187500
vt 0.906250 0.625000
vt 0.906250 0.125000
vt 0.906250 0.562500
vt 0.906250 0.062500
vt 0.906250 0.500000
vt 0.921875 1.000000
vt 0.906250 0.937500
vt 0.921875 0.000000
vt 0.906250 0.437500
vt 0.906250 0.875000
vt 0.875000 0.125000
vt 0.875000 0.062500
vt 0.875000 0.562500
vt 0.875000 0.500000
vt 0.890625 1.000000
vt 0.875000 0.937500
vt 0.890625 0.000000
vt 0.875000 0.437500
vt 0.875000 0.875000
vt 0.875000 0.375000
vt 0.875000 0.812500
vt 0.875000 0.312500
vt 0.875000 0.750000
vt 0.875000 0.250000
vt 0.875000 0.687500
vt 0.875000 0.187500
vt 0.875000 0.625000
vt 0.843750 0.312500
vt 0.843750 0.250000
vt 0.843750 0.750000
vt 0.843750 0.687500
vt 0.843750 0.187500
vt 0.843750 0.625000
vt 0.843750 0.125000
vt 0.843750 0.562500
vt 0.843750 0.062500
vt 0.843750 0.500000
vt 0.859375 1.000000
vt 0.843750 0.937500
vt 0.859375 0.000000
vt 0.843750 0.437500
vt 0.843750 0.875000
vt 0.843750 0.375000
vt 0.843750 0.812500
vt 0.828125 1.000000
vt 0.812500 0.937500
vt 0.828125 0.000000
vt 0.812500 0.062500
vt 0.812500 0.500000
vt 0.812500 0.437500
vt 0.812500 0.875000
vt 0.812500 0.375000
vt 0.812500 0.812500
vt 0.812500 0.312500
vt 0.812500 0.750000
vt 0.812500 0.250000
vt 0.812500 0.687500
vt 0.812500 0.187500
vt 0.812500 0.625000
vt 0.812500 0.125000
vt 0.812500 0.562500
vt 0.781250 0.750000
vt 0.781250 0.687500
vt 0.781250 0.250000
vt 0.781250 0.187500
vt 0.781250 0.625000
vt 0.781250 0.125000
vt 0.781250 0.562500
vt 0.781250 0.062500
vt 0.781250 0.500000
vt 0.796875 1.000000
vt 0.781250 0.937500
vt 0.796875 0.000000
vt 0.781250 0.437500
vt 0.781250 0.875000
vt 0.781250 0.375000
vt 0.781250 0.812500
vt 0.781250 0.312500
vt 0.765625 1.000000
vt 0.765625 0.000000
s 0
f 474/1/1 1/2/1 9/3/1
f 8/4/2 482/5/2 23/6/2
f 6/7/3 5/8/3 16/9/3 17/10/3
f 475/11/4 474/1/4 9/3/4 10/12/4
f 478/13/5 6/7/5 17/10/5 18/14/5
f 2/15/6 475/11/6 10/12/6 11/16/6
f 7/17/7 478/13/7 18/14/7 19/18/7
f 476/19/8 2/15/8 11/16/8 12/20/8
f 479/21/9 7/17/9 19/18/9 20/22/9
f 3/23/10 476/19/10 12/20/10 13/24/10
f 480/25/11 479/21/11 20/22/11 21/26/11
f 477/27/12 3/23/12 13/24/12 14/28/12
f 481/29/13 480/25/13 21/26/13 22/30/13
f 4/31/14 477/27/14 14/28/14 15/32/14
f 482/5/15 481/29/15 22/30/15 23/6/15
f 5/8/16 4/31/16 15/32/16 16/9/16
f 23/6/17 22/30/17 37/33/17 38/34/17
f 16/9/18 15/32/18 30/35/18 31/36/18
f 9/3/19 1/37/19 24/38/19
f 8/39/20 23/6/20 38/34/20
f 17/10/21 16/9/21 31/36/21 32/40/21
f 10/12/22 9/3/22 24/38/22 25/41/22
f 18/14/23 17/10/23 32/40/23 33/42/23
f 11/16/24 10/12/24 25/41/24 26/43/24
f 19/18/25 18/14/25 33/42/25 34/44/25
f 12/20/26 11/16/26 26/43/26 27/45/26
f 20/22/27 19/18/27 34/44/27 35/46/27
f 13/24/28 12/20/28 27/45/28 28/47/28
f 21/26/29 20/22/29 35/46/29 36/48/29
f 14/28/30 13/24/30 28/47/30 29/49/30
f 22/30/31 21/26/31 36/48/31 37/33/31
f 15/32/32 14/28/32 29/49/32 30/35/32
f 27/45/33 26/43/33 41/50/33 42/51/33
f 35/46/34 34/44/34 49/52/34 50/53/34
f 28/47/35 27/45/35 42/51/35 43/54/35
f 36/48/36 35/46/36 50/53/36 51/55/36
f 29/49/37 28/47/37 43/54/37 44/56/37
f 37/33/38 36/48/38 51/55/38 52/57/38
f 30/35/39 29/49/39 44/56/39 45/58/39
f 38/34/40 37/33/40 52/57/40 53/59/40
f 31/36/41 30/35/41 45/58/41 46/60/41
f 24/38/42 1/61/42 39/62/42
f 8/63/43 38/34/43 53/59/43
f 32/40/44 31/36/44 46/60/44 47/64/44
f 25/41/45 24/38/45 39/62/45 40/65/45
f 33/42/46 32/40/46 47/64/46 48/66/46
f 26/43/47 25/41/47 40/65/47 41/50/47
f 34/44/48 33/42/48 48/66/48 49/52/48
f 46/60/49 45/58/49 60/67/49 61/68/49
f 39/62/50 1/69/50 54/70/50
f 8/71/51 53/59/51 68/72/51
f 47/64/52 46/60/52 61/68/52 62/73/52
f 40/65/53 39/62/53 54/70/53 55/74/53
f 48/66/54 47/64/54 62/73/54 63/75/54
f 41/50/55 40/65/55 55/74/55 56/76/55
f 49/52/56 48/66/56 63/75/56 64/77/56
f 42/51/57 41/50/57 56/76/57 57/78/57
f 50/53/58 49/52/58 64/77/58 65/79/58
f 43/54/59 42/51/59 57/78/59 58/80/59
f 51/55/60 50/53/60 65/79/60 66/81/60
f 44/56/61 43/54/61 58/80/61 59/82/61
f 52/57/62 51/55/62 66/81/62 67/83/62
f 45/58/63 44/56/63 59/82/63 60/67/63
f 53/59/64 52/57/64 67/83/64 68/72/64
f 65/79/65 64/77/65 79/84/65 80/85/65
f 58/80/66 57/78/66 72/86/66 73/87/66
f 66/81/67 65/79/67 80/85/67 81/88/67
f 59/82/68 58/80/68 73/87/68 74/89/68
f 67/83/69 66/81/69 81/88/69 82/90/69
f 60/67/70 59/82/70 74/89/70 75/91/70
f 68/72/71 67/83/71 82/90/71 83/92/71
f 61/68/72 60/67/72 75/91/72 76/93/72
f 54/70/73 1/94/73 69/95/73
f 8/96/74 68/72/74 83/92/74
f 62/73/75 61/68/75 76/93/75 77/97/75
f 55/74/76 54/70/76 69/95/76 70/98/76
f 63/75/77 62/73/77 77/97/77 78/99/77
f 56/76/78 55/74/78 70/98/78 71/100/78
f 64/77/79 63/75/79 78/99/79 79/84/79
f 57/78/80 56/76/80 71/100/80 72/86/80
f 69/95/81 1/101/81 84/102/81
f 8/103/82 83/92/82 98/104/82
f 77/97/83 76/93/83 91/105/83 92/106/83
f 70/98/84 69/95/84 84/102/84 85/107/84
f 78/99/85 77/97/85 92/106/85 93/108/85
f 71/100/86 70/98/86 85/107/86 86/109/86
f 79/84/87 78/99/87 93/108/87 94/110/87
f 72/86/88 71/100/88 86/109/88 87/111/88
f 80/85/89 79/84/89 94/110/89 95/112/89
f 73/87/90 72/86/90 87/111/90 88/113/90
f 81/88/91 80/85/91 95/112/91 96/114/91
f 74/89/92 73/87/92 88/113/92 89/115/92
f 82/90/93 81/88/93 96/114/93 97/116/93
f 75/91/94 74/89/94 89/115/94 90/117/94
f 83/92/95 82/90/95 97/116/95 98/104/95
f 76/93/96 75/91/96 90/117/96 91/105/96
f 88/113/97 87/111/97 102/118/97 103/119/97
f 96/114/98 95/112/98 110/120/98 111/121/98
f 89/115/99 88/113/99 103/119/99 104/122/99
f 97/116/100 96/114/100 111/121/100 112/123/100
f 90/117/101 89/115/101 104/122/101 105/124/101
f 98/104/102 97/116/102 112/123/102 113/125/102
f 91/105/103 90/117/103 105/124/103 106/126/103
f 84/102/104 1/127/104 99/128/104
f 8/129/105 98/104/105 113/125/105
f 92/106/106 91/105/106 106/126/106 107/130/106
f 85/107/107 84/102/107 99/128/107 100/131/107
f 93/108/108 92/106/108 107/130/108 108/132/108
f 86/109/109 85/107/109 100/131/109 101/133/109
f 94/110/110 93/108/110 108/132/110 109/134/110
f 87/111/111 86/109/111 101/133/111 102/118/111
f 95/112/112 94/110/112 109/134/112 110/120/112
f 107/130/113 106/126/113 121/135/113 122/136/113
f 100/131/114 99/128/114 114/137/114 115/138/114
f 108/132/115 107/130/115 122/136/115 123/139/115
f 101/133/116 100/131/116 115/138/116 116/140/116
f 109/134/117 108/132/117 123/139/117 124/141/117
f 102/118/118 101/133/118 116/140/118 117/142/118
f 110/120/119 109/134/119 124/141/119 125/143/119
f 103/119/120 102/118/120 117/142/120 118/144/120
f 111/121/121 110/120/121 125/143/121 126/145/121
f 104/122/122 103/119/122 118/144/122 119/146/122
f 112/123/123 111/121/123 126/145/123 127/147/123
f 105/124/124 104/122/124 119/146/124 120/148/124
f 113/125/125 112/123/125 127/147/125 128/149/125
f 106/126/126 105/124/126 120/148/126 121/135/126
f 99/128/127 1/150/127 114/137/127
f 8/151/128 113/125/128 128/149/128
f 126/145/129 125/143/129 140/152/129 141/153/129
f 119/146/130 118/144/130 133/154/130 134/155/130
f 127/147/131 126/145/131 141/153/131 142/156/131
f 120/148/132 119/146/132 134/155/132 135/157/132
f 128/149/133 127/147/133 142/156/133 143/158/133
f 121/135/134 120/148/134 135/157/134 136/159/134
f 114/137/135 1/160/135 129/161/135
f 8/162/136 128/149/136 143/158/136
f 122/136/137 121/135/137 136/159/137 137/163/137
f 115/138/138 114/137/138 129/161/138 130/164/138
f 123/139/139 122/136/139 137/163/139 138/165/139
f 116/140/140 115/138/140 130/164/140 131/166/140
f 124/141/141 123/139/141 138/165/141 139/167/141
f 117/142/142 116/140/142 131/166/142 132/168/142
f 125/143/143 124/141/143 139/167/143 140/152/143
f 118/144/144 117/142/144 132/168/144 133/154/144
f 138/165/145 137/163/145 152/169/145 153/170/145
f 131/166/146 130/164/146 145/171/146 146/172/146
f 139/167/147 138/165/147 153/170/147 154/173/147
f 132/168/148 131/166/148 146/172/148 147/174/148
f 140/152/149 139/167/149 154/173/149 155/175/149
f 133/154/150 132/168/150 147/174/150 148/176/150
f 141/153/151 140/152/151 155/175/151 156/177/151
f 134/155/152 133/154/152 148/176/152 149/178/152
f 142/156/153 141/153/153 156/177/153 157/179/153
f 135/157/154 134/155/154 149/178/154 150/180/154
f 143/158/155 142/156/155 157/179/155 158/181/155
f 136/159/156 135/157/156 150/180/156 151/182/156
f 129/161/157 1/183/157 144/184/157
f 8/185/158 143/158/158 158/181/158
f 137/163/159 136/159/159 151/182/159 152/169/159
f 130/164/160 129/161/160 144/184/160 145/171/160
f 157/179/161 156/177/161 171/186/161 172/187/161
f 150/180/162 149/178/162 164/188/162 165/189/162
f 158/181/163 157/179/163 172/187/163 173/190/163
f 151/182/164 150/180/164 165/189/164 166/191/164
f 144/184/165 1/192/165 159/193/165
f 8/194/166 158/181/166 173/190/166
f 152/169/167 151/182/167 166/191/167 167/195/167
f 145/171/168 144/184/168 159/193/168 160/196/168
f 153/170/169 152/169/169 167/195/169 168/197/169
f 146/172/170 145/171/170 160/196/170 161/198/170
f 154/173/171 153/170/171 168/197/171 169/199/171
f 147/174/172 146/172/172 161/198/172 162/200/172
f 155/175/173 154/173/173 169/199/173 170/201/173
f 148/176/174 147/174/174 162/200/174 163/202/174
f 156/177/175 155/175/175 170/201/175 171/186/175
f 149/178/176 148/176/176 163/202/176 164/188/176
f 161/198/177 160/196/177 175/203/177 176/204/177
f 169/199/178 168/197/178 183/205/178 184/206/178
f 162/200/179 161/198/179 176/204/179 177/207/179
f 170/201/180 169/199/180 184/206/180 185/208/180
f 163/202/181 162/200/181 177/207/181 178/209/181
f 171/186/182 170/201/182 185/208/182 186/210/182
f 164/188/183 163/202/183 178/209/183 179/211/183
f 172/187/184 171/186/184 186/210/184 187/212/184
f 165/189/185 164/188/185 179/211/185 180/213/185
f 173/190/186 172/187/186 187/212/186 188/214/186
f 166/191/187 165/189/187 180/213/187 181/215/187
f 159/193/188 1/216/188 174/217/188
f 8/218/189 173/190/189 188/214/189
f 167/195/190 166/191/190 181/215/190 182/219/190
f 160/196/191 159/193/191 174/217/191 175/203/191
f 168/197/192 167/195/192 182/219/192 183/205/192
f 180/213/193 179/211/193 194/220/193 195/221/193
f 188/214/194 187/212/194 202/222/194 203/223/194
f 181/215/195 180/213/195 195/221/195 196/224/195
f 174/217/196 1/225/196 189/226/196
f 8/227/197 188/214/197 203/223/197
f 182/219/198 181/215/198 196/224/198 197/228/198
f 175/203/199 174/217/199 189/226/199 190/229/199
f 183/205/200 182/219/200 197/228/200 198/230/200
f 176/204/201 175/203/201 190/229/201 191/231/201
f 184/206/202 183/205/202 198/230/202 199/232/202
f 177/207/203 176/204/203 191/231/203 192/233/203
f 185/208/204 184/206/204 199/232/204 200/234/204
f 178/209/205 177/207/205 192/233/205 193/235/205
f 186/210/206 185/208/206 200/234/206 201/236/206
f 179/211/207 178/209/207 193/235/207 194/220/207
f 187/212/208 186/210/208 201/236/208 202/222/208
f 199/232/209 198/230/209 213/237/209 214/238/209
f 192/233/210 191/231/210 206/239/210 207/240/210
f 200/234/211 199/232/211 214/238/211 215/241/211
f 193/235/212 192/233/212 207/240/212 208/242/212
f 201/236/213 200/234/213 215/241/213 216/243/213
f 194/220/214 193/235/214 208/242/214 209/244/214
f 202/222/215 201/236/215 216/243/215 217/245/215
f 195/221/216 194/220/216 209/244/216 210/246/216
f 203/223/217 202/222/217 217/245/217 218/247/217
f 196/224/218 195/221/218 210/246/218 211/248/218
f 189/226/219 1/249/219 204/250/219
f 8/251/220 203/223/220 218/247/220
f 197/228/221 196/224/221 211/248/221 212/252/221
f 190/229/222 189/226/222 204/250/222 205/253/222
f 198/230/223 197/228/223 212/252/223 213/237/223
f 191/231/224 190/229/224 205/253/224 206/239/224
f 218/247/225 217/245/225 232/254/225 233/255/225
f 211/248/226 210/246/226 225/256/226 226/257/226
f 204/250/227 1/258/227 219/259/227
f 8/260/228 218/247/228 233/255/228
f 212/252/229 211/248/229 226/257/229 227/261/229
f 205/253/230 204/250/230 219/259/230 220/262/230
f 213/237/231 212/252/231 227/261/231 228/263/231
f 206/239/232 205/253/232 220/262/232 221/264/232
f 214/238/233 213/237/233 228/263/233 229/265/233
f 207/240/234 206/239/234 221/264/234 222/266/234
f 215/241/235 214/238/235 229/265/235 230/267/235
f 208/242/236 207/240/236 222/266/236 223/268/236
f 216/243/237 215/241/237 230/267/237 231/269/237
f 209/244/238 208/242/238 223/268/238 224/270/238
f 217/245/239 216/243/239 231/269/239 232/254/239
f 210/246/240 209/244/240 224/270/240 225/256/240
f 222/266/241 221/264/241 236/271/241 237/272/241
f 230/267/242 229/265/242 244/273/242 245/274/242
f 223/268/243 222/266/243 237/272/243 238/275/243
f 231/269/244 230/267/244 245/274/244 246/276/244
f 224/270/245 223/268/245 238/275/245 239/277/245
f 232/254/246 231/269/246 246/276/246 247/278/246
f 225/256/247 224/270/247 239/277/247 240/279/247
f 233/255/248 232/254/248 247/278/248 248/280/248
f 226/257/249 225/256/249 240/279/249 241/281/249
f 219/259/250 1/282/250 234/283/250
f 8/284/251 233/255/251 248/280/251
f 227/261/252 226/257/252 241/281/252 242/285/252
f 220/262/253 219/259/253 234/283/253 235/286/253
f 228/263/254 227/261/254 242/285/254 243/287/254
f 221/264/255 220/262/255 235/286/255 236/271/255
f 229/265/256 228/263/256 243/287/256 244/273/256
f 241/281/257 240/279/257 255/288/257 256/289/257
f 234/283/258 1/290/258 249/291/258
f 8/292/259 248/280/259 263/293/259
f 242/285/260 241/281/260 256/289/260 257/294/260
f 235/286/261 234/283/261 249/291/261 250/295/261
f 243/287/262 242/285/262 257/294/262 258/296/262
f 236/271/263 235/286/263 250/295/263 251/297/263
f 244/273/264 243/287/264 258/296/264 259/298/264
f 237/272/265 236/271/265 251/297/265 252/299/265
f 245/274/266 244/273/266 259/298/266 260/300/266
f 238/275/267 237/272/267 252/299/267 253/301/267
f 246/276/268 245/274/268 260/300/268 261/302/268
f 239/277/269 238/275/269 253/301/269 254/303/269
f 247/278/270 246/276/270 261/302/270 262/304/270
f 240/279/271 239/277/271 254/303/271 255/288/271
f 248/280/272 247/278/272 262/304/272 263/293/272
f 260/300/273 259/298/273 274/305/273 275/306/273
f 253/301/274 252/299/274 267/307/274 268/308/274
f 261/302/275 260/300/275 275/306/275 276/309/275
f 254/303/276 253/301/276 268/308/276 269/310/276
f 262/304/277 261/302/277 276/309/277 277/311/277
f 255/288/278 254/303/278 269/310/278 270/312/278
f 263/293/279 262/304/279 277/311/279 278/313/279
f 256/289/280 255/288/280 270/312/280 271/314/280
f 249/291/281 1/315/281 264/316/281
f 8/317/282 263/293/282 278/313/282
f 257/294/283 256/289/283 271/314/283 272/318/283
f 250/295/284 249/291/284 264/316/284 265/319/284
f 258/296/285 257/294/285 272/318/285 273/320/285
f 251/297/286 250/295/286 265/319/286 266/321/286
f 259/298/287 258/296/287 273/320/287 274/305/287
f 252/299/288 251/297/288 266/321/288 267/307/288
f 8/322/289 278/313/289 293/323/289
f 272/318/290 271/314/290 286/324/290 287/325/290
f 265/319/291 264/316/291 279/326/291 280/327/291
f 273/320/292 272/318/292 287/325/292 288/328/292
f 266/321/293 265/319/293 280/327/293 281/329/293
f 274/305/294 273/320/294 288/328/294 289/330/294
f 267/307/295 266/321/295 281/329/295 282/331/295
f 275/306/296 274/305/296 289/330/296 290/332/296
f 268/308/297 267/307/297 282/331/297 283/333/297
f 276/309/298 275/306/298 290/332/298 291/334/298
f 269/310/299 268/308/299 283/333/299 284/335/299
f 277/311/300 276/309/300 291/334/300 292/336/300
f 270/312/301 269/310/301 284/335/301 285/337/301
f 278/313/302 277/311/302 292/336/302 293/323/302
f 271/314/303 270/312/303 285/337/303 286/324/303
f 264/316/304 1/338/304 279/326/304
f 291/334/305 290/332/305 305/339/305 306/340/305
f 284/335/306 283/333/306 298/341/306 299/342/306
f 292/336/307 291/334/307 306/340/307 307/343/307
f 285/337/308 284/335/308 299/342/308 300/344/308
f 293/323/309 292/336/309 307/343/309 308/345/309
f 286/324/310 285/337/310 300/344/310 301/346/310
f 279/326/311 1/347/311 294/348/311
f 8/349/312 293/323/312 308/345/312
f 287/325/313 286/324/313 301/346/313 302/350/313
f 280/327/314 279/326/314 294/348/314 295/351/314
f 288/328/315 287/325/315 302/350/315 303/352/315
f 281/329/316 280/327/316 295/351/316 296/353/316
f 289/330/317 288/328/317 303/352/317 304/354/317
f 282/331/318 281/329/318 296/353/318 297/355/318
f 290/332/319 289/330/319 304/354/319 305/339/319
f 283/333/320 282/331/320 297/355/320 298/341/320
f 295/351/321 294/348/321 309/356/321 310/357/321
f 303/352/322 302/350/322 317/358/322 318/359/322
f 296/353/323 295/351/323 310/357/323 311/360/323
f 304/354/324 303/352/324 318/359/324 319/361/324
f 297/355/325 296/353/325 311/360/325 312/362/325
f 305/339/326 304/354/326 319/361/326 320/363/326
f 298/341/327 297/355/327 312/362/327 313/364/327
f 306/340/328 305/339/328 320/363/328 321/365/328
f 299/342/329 298/341/329 313/364/329 314/366/329
f 307/343/330 306/340/330 321/365/330 322/367/330
f 300/344/331 299/342/331 314/366/331 315/368/331
f 308/345/332 307/343/332 322/367/332 323/369/332
f 301/346/333 300/344/333 315/368/333 316/370/333
f 294/348/334 1/371/334 309/356/334
f 8/372/335 308/345/335 323/369/335
f 302/350/336 301/346/336 316/370/336 317/358/336
f 314/366/337 313/364/337 328/373/337 329/374/337
f 322/367/338 321/365/338 336/375/338 337/376/338
f 315/368/339 314/366/339 329/374/339 330/377/339
f 323/369/340 322/367/340 337/376/340 338/378/340
f 316/370/341 315/368/341 330/377/341 331/379/341
f 309/356/342 1/380/342 324/381/342
f 8/382/343 323/369/343 338/378/343
f 317/358/344 316/370/344 331/379/344 332/383/344
f 310/357/345 309/356/345 324/381/345 325/384/345
f 318/359/346 317/358/346 332/383/346 333/385/346
f 311/360/347 310/357/347 325/384/347 326/386/347
f 319/361/348 318/359/348 333/385/348 334/387/348
f 312/362/349 311/360/349 326/386/349 327/388/349
f 320/363/350 319/361/350 334/387/350 335/389/350
f 313/364/351 312/362/351 327/388/351 328/373/351
f 321/365/352 320/363/352 335/389/352 336/375/352
f 333/385/353 332/383/353 347/390/353 348/391/353
f 326/386/354 325/384/354 340/392/354 341/393/354
f 334/387/355 333/385/355 348/391/355 349/394/355
f 327/388/356 326/386/356 341/393/356 342/395/356
f 335/389/357 334/387/357 349/394/357 350/396/357
f 328/373/358 327/388/358 342/395/358 343/397/358
f 336/375/359 335/389/359 350/396/359 351/398/359
f 329/374/360 328/373/360 343/397/360 344/399/360
f 337/376/361 336/375/361 351/398/361 352/400/361
f 330/377/362 329/374/362 344/399/362 345/401/362
f 338/378/363 337/376/363 352/400/363 353/402/363
f 331/379/364 330/377/364 345/401/364 346/403/364
f 324/381/365 1/404/365 339/405/365
f 8/406/366 338/378/366 353/402/366
f 332/383/367 331/379/367 346/403/367 347/390/367
f 325/384/368 324/381/368 339/405/368 340/392/368
f 352/400/369 351/398/369 366/407/369 367/408/369
f 345/401/370 344/399/370 359/409/370 360/410/370
f 353/402/371 352/400/371 367/408/371 368/411/371
f 346/403/372 345/401/372 360/410/372 361/412/372
f 339/405/373 1/413/373 354/414/373
f 8/415/374 353/402/374 368/411/374
f 347/390/375 346/403/375 361/412/375 362/416/375
f 340/392/376 339/405/376 354/414/376 355/417/376
f 348/391/377 347/390/377 362/416/377 363/418/377
f 341/393/378 340/392/378 355/417/378 356/419/378
f 349/394/379 348/391/379 363/418/379 364/420/379
f 342/395/380 341/393/380 356/419/380 357/421/380
f 350/396/381 349/394/381 364/420/381 365/422/381
f 343/397/382 342/395/382 357/421/382 358/423/382
f 351/398/383 350/396/383 365/422/383 366/407/383
f 344/399/384 343/397/384 358/423/384 359/409/384
f 356/424/385 355/425/385 370/426/385 371/427/385
f 364/428/386 363/429/386 378/430/386 379/431/386
f 357/432/387 356/424/387 371/427/387 372/433/387
f 365/434/388 364/428/388 379/431/388 380/435/388
f 358/436/389 357/432/389 372/433/389 373/437/389
f 366/438/390 365/434/390 380/435/390 381/439/390
f 359/440/391 358/436/391 373/437/391 374/441/391
f 367/442/392 366/438/392 381/439/392 382/443/392
f 360/444/393 359/440/393 374/441/393 375/445/393
f 368/446/394 367/442/394 382/443/394 383/447/394
f 361/448/395 360/444/395 375/445/395 376/449/395
f 354/450/396 1/451/396 369/452/396
f 8/453/397 368/446/397 383/447/397
f 362/454/398 361/448/398 376/449/398 377/455/398
f 355/425/399 354/450/399 369/452/399 370/426/399
f 363/429/400 362/454/400 377/455/400 378/430/400
f 375/445/401 374/441/401 389/456/401 390/457/401
f 383/447/402 382/443/402 397/458/402 398/459/402
f 376/449/403 375/445/403 390/457/403 391/460/403
f 369/452/404 1/461/404 384/462/404
f 8/463/405 383/447/405 398/459/405
f 377/455/406 376/449/406 391/460/406 392/464/406
f 370/426/407 369/452/407 384/462/407 385/465/407
f 378/430/408 377/455/408 392/464/408 393/466/408
f 371/427/409 370/426/409 385/465/409 386/467/409
f 379/431/410 378/430/410 393/466/410 394/468/410
f 372/433/411 371/427/411 386/467/411 387/469/411
f 380/435/412 379/431/412 394/468/412 395/470/412
f 373/437/413 372/433/413 387/469/413 388/471/413
f 381/439/414 380/435/414 395/470/414 396/472/414
f 374/441/415 373/437/415 388/471/415 389/456/415
f 382/443/416 381/439/416 396/472/416 397/458/416
f 394/468/417 393/466/417 408/473/417 409/474/417
f 387/469/418 386/467/418 401/475/418 402/476/418
f 395/470/419 394/468/419 409/474/419 410/477/419
f 388/471/420 387/469/420 402/476/420 403/478/420
f 396/472/421 395/470/421 410/477/421 411/479/421
f 389/456/422 388/471/422 403/478/422 404/480/422
f 397/458/423 396/472/423 411/479/423 412/481/423
f 390/457/424 389/456/424 404/480/424 405/482/424
f 398/459/425 397/458/425 412/481/425 413/483/425
f 391/460/426 390/457/426 405/482/426 406/484/426
f 384/462/427 1/485/427 399/486/427
f 8/487/428 398/459/428 413/483/428
f 392/464/429 391/460/429 406/484/429 407/488/429
f 385/465/430 384/462/430 399/486/430 400/489/430
f 393/466/431 392/464/431 407/488/431 408/473/431
f 386/467/432 385/465/432 400/489/432 401/475/432
f 413/483/433 412/481/433 427/490/433 428/491/433
f 406/484/434 405/482/434 420/492/434 421/493/434
f 399/486/435 1/494/435 414/495/435
f 8/496/436 413/483/436 428/491/436
f 407/488/437 406/484/437 421/493/437 422/497/437
f 400/489/438 399/486/438 414/495/438 415/498/438
f 408/473/439 407/488/439 422/497/439 423/499/439
f 401/475/440 400/489/440 415/498/440 416/500/440
f 409/474/441 408/473/441 423/499/441 424/501/441
f 402/476/442 401/475/442 416/500/442 417/502/442
f 410/477/443 409/474/443 424/501/443 425/503/443
f 403/478/444 402/476/444 417/502/444 418/504/444
f 411/479/445 410/477/445 425/503/445 426/505/445
f 404/480/446 403/478/446 418/504/446 419/506/446
f 412/481/447 411/479/447 426/505/447 427/490/447
f 405/482/448 404/480/448 419/506/448 420/492/448
f 425/503/449 424/501/449 439/507/449 440/508/449
f 418/504/450 417/502/450 432/509/450 433/510/450
f 426/505/451 425/503/451 440/508/451 441/511/451
f 419/506/452 418/504/452 433/510/452 434/512/452
f 427/490/453 426/505/453 441/511/453 442/513/453
f 420/492/454 419/506/454 434/512/454 435/514/454
f 428/491/455 427/490/455 442/513/455 443/515/455
f 421/493/456 420/492/456 435/514/456 436/516/456
f 414/495/457 1/517/457 429/518/457
f 8/519/458 428/491/458 443/515/458
f 422/497/459 421/493/459 436/516/459 437/520/459
f 415/498/460 414/495/460 429/518/460 430/521/460
f 423/499/461 422/497/461 437/520/461 438/522/461
f 416/500/462 415/498/462 430/521/462 431/523/462
f 424/501/463 423/499/463 438/522/463 439/507/463
f 417/502/464 416/500/464 431/523/464 432/509/464
f 429/518/465 1/524/465 444/525/465
f 8/526/466 443/515/466 458/527/466
f 437/520/467 436/516/467 451/528/467 452/529/467
f 430/521/468 429/518/468 444/525/468 445/530/468
f 438/522/469 437/520/469 452/529/469 453/531/469
f 431/523/470 430/521/470 445/530/470 446/532/470
f 439/507/471 438/522/471 453/531/471 454/533/471
f 432/509/472 431/523/472 446/532/472 447/534/472
f 440/508/473 439/507/473 454/533/473 455/535/473
f 433/510/474 432/509/474 447/534/474 448/536/474
f 441/511/475 440/508/475 455/535/475 456/537/475
f 434/512/476 433/510/476 448/536/476 449/538/476
f 442/513/477 441/511/477 456/537/477 457/539/477
f 435/514/478 434/512/478 449/538/478 450/540/478
f 443/515/479 442/513/479 457/539/479 458/527/479
f 436/516/480 435/514/480 450/540/480 451/528/480
f 448/536/481 447/534/481 462/541/481 463/542/481
f 456/537/482 455/535/482 470/543/482 471/544/482
f 449/538/483 448/536/483 463/542/483 464/545/483
f 457/539/484 456/537/484 471/544/484 472/546/484
f 450/540/485 449/538/485 464/545/485 465/547/485
f 458/527/486 457/539/486 472/546/486 473/548/486
f 451/528/487 450/540/487 465/547/487 466/549/487
f 444/525/488 1/550/488 459/551/488
f 8/552/489 458/527/489 473/548/489
f 452/529/490 451/528/490 466/549/490 467/553/490
f 445/530/491 444/525/491 459/551/491 460/554/491
f 453/531/492 452/529/492 467/553/492 468/555/492
f 446/532/493 445/530/493 460/554/493 461/556/493
f 454/533/494 453/531/494 468/555/494 469/557/494
f 447/534/495 446/532/495 461/556/495 462/541/495
f 455/535/496 454/533/496 469/557/496 470/543/496
f 467/553/497 466/549/497 5/8/497 6/7/497
f 460/554/498 459/551/498 474/1/498 475/11/498
f 468/555/499 467/553/499 6/7/499 478/13/499
f 461/556/500 460/554/500 475/11/500 2/15/500
f 469/557/501 468/555/501 478/13/501 7/17/501
f 462/541/502 461/556/502 2/15/502 476/19/502
f 470/543/503 469/557/503 7/17/503 479/21/503
f 463/542/504 462/541/504 476/19/504 3/23/504
f 471/544/505 470/543/505 479/21/505 480/25/505
f 464/545/506 463/542/506 3/23/506 477/27/506
f 472/546/507 471/544/507 480/25/507 481/29/507
f 465/547/508 464/545/508 477/27/508 4/31/508
f 473/548/509 472/546/509 481/29/509 482/5/509
f 466/549/510 465/547/510 4/31/510 5/8/510
f 459/551/511 1/558/511 474/1/511
f 8/559/512 473/548/512 482/5/512
