# GizmoTorus exported from GizmoTorus.bin
# Y-up OBJ coordinates; imports back to Macaw Z-up coordinates
# vertices 561, triangles 1024
o GizmoTorus
s 1
v 0 0 -0.5
v 0 0.0038268345 -0.4992388
v 0 0.0070710676 -0.4970711
v 0 0.009238794 -0.49382684
v 0 0.01 -0.49
v 0 0.009238794 -0.48617318
v 0 0.0070710676 -0.48292893
v 0 0.0038268326 -0.4807612
v 0 -8.7422775E-10 -0.48000002
v 0 -0.0038268343 -0.48076123
v 0 -0.0070710685 -0.48292893
v 0 -0.009238796 -0.48617318
v 0 -0.01 -0.49
v 0 -0.009238794 -0.49382684
v 0 -0.0070710653 -0.4970711
v 0 -0.0038268343 -0.49923882
v 0 1.7484555E-09 -0.5
v -0.09754516 0 -0.49039263
v -0.09739666 0.0038268345 -0.48964605
v -0.09697376 0.0070710676 -0.48751998
v -0.096340835 0.009238794 -0.48433807
v -0.09559426 0.01 -0.48058477
v -0.09484769 0.009238794 -0.4768315
v -0.09421476 0.0070710676 -0.47364956
v -0.09379186 0.0038268326 -0.4715235
v -0.09364336 -8.7422775E-10 -0.47077695
v -0.093791865 -0.0038268343 -0.47152352
v -0.09421476 -0.0070710685 -0.47364956
v -0.09484769 -0.009238796 -0.4768315
v -0.09559426 -0.01 -0.48058477
v -0.096340835 -0.009238794 -0.48433807
v -0.09697376 -0.0070710653 -0.48751998
v -0.097396664 -0.0038268343 -0.48964608
v -0.09754516 1.7484555E-09 -0.49039263
v -0.19134173 0 -0.46193975
v -0.19105043 0.0038268345 -0.46123648
v -0.19022088 0.0070710676 -0.4592338
v -0.18897936 0.009238794 -0.45623648
v -0.1875149 0.01 -0.45270097
v -0.18605043 0.009238794 -0.44916543
v -0.18480891 0.0070710676 -0.44616815
v -0.18397936 0.0038268326 -0.4441654
v -0.18368806 -8.7422775E-10 -0.4434622
v -0.18397936 -0.0038268343 -0.44416544
v -0.18480891 -0.0070710685 -0.44616815
v -0.18605043 -0.009238796 -0.44916543
v -0.1875149 -0.01 -0.45270097
v -0.18897936 -0.009238794 -0.45623648
v -0.19022088 -0.0070710653 -0.4592338
v -0.19105044 -0.0038268343 -0.4612365
v -0.19134173 1.7484555E-09 -0.46193975
v -0.27778512 0 -0.4157348
v -0.27736223 0.0038268345 -0.4151019
v -0.27615792 0.0070710676 -0.4132995
v -0.2743555 0.009238794 -0.410602
v -0.27222943 0.01 -0.4074201
v -0.27010337 0.009238794 -0.40423822
v -0.26830095 0.0070710676 -0.40154073
v -0.2670966 0.0038268326 -0.3997383
v -0.2666737 -8.7422775E-10 -0.39910543
v -0.26709664 -0.0038268343 -0.39973834
v -0.26830095 -0.0070710685 -0.40154073
v -0.27010337 -0.009238796 -0.40423822
v -0.27222943 -0.01 -0.4074201
v -0.2743555 -0.009238794 -0.410602
v -0.27615792 -0.0070710653 -0.4132995
v -0.27736223 -0.0038268343 -0.4151019
v -0.27778512 1.7484555E-09 -0.4157348
v -0.35355338 0 -0.35355338
v -0.35301512 0.0038268345 -0.35301512
v -0.35148233 0.0070710676 -0.35148233
v -0.3491883 0.009238794 -0.3491883
v -0.34648234 0.01 -0.34648234
v -0.34377635 0.009238794 -0.34377635
v -0.3414823 0.0070710676 -0.3414823
v -0.3399495 0.0038268326 -0.3399495
v -0.33941126 -8.7422775E-10 -0.33941126
v -0.33994952 -0.0038268343 -0.33994952
v -0.3414823 -0.0070710685 -0.3414823
v -0.34377635 -0.009238796 -0.34377635
v -0.34648234 -0.01 -0.34648234
v -0.3491883 -0.009238794 -0.3491883
v -0.35148233 -0.0070710653 -0.35148233
v -0.35301515 -0.0038268343 -0.35301515
v -0.35355338 1.7484555E-09 -0.35355338
v -0.41573483 0 -0.2777851
v -0.41510192 0.0038268345 -0.2773622
v -0.41329953 0.0070710676 -0.2761579
v -0.41060203 0.009238794 -0.27435547
v -0.40742013 0.01 -0.2722294
v -0.40423825 0.009238794 -0.27010334
v -0.40154076 0.0070710676 -0.26830092
v -0.39973834 0.0038268326 -0.26709658
v -0.39910546 -8.7422775E-10 -0.2666737
v -0.39973837 -0.0038268343 -0.2670966
v -0.40154076 -0.0070710685 -0.26830092
v -0.40423825 -0.009238796 -0.27010334
v -0.40742013 -0.01 -0.2722294
v -0.41060203 -0.009238794 -0.27435547
v -0.41329953 -0.0070710653 -0.2761579
v -0.41510192 -0.0038268343 -0.2773622
v -0.41573483 1.7484555E-09 -0.2777851
v -0.46193975 0 -0.19134171
v -0.46123648 0.0038268345 -0.19105041
v -0.4592338 0.0070710676 -0.19022086
v -0.45623648 0.009238794 -0.18897934
v -0.45270097 0.01 -0.18751489
v -0.44916543 0.009238794 -0.18605042
v -0.44616815 0.0070710676 -0.1848089
v -0.4441654 0.0038268326 -0.18397935
v -0.4434622 -8.7422775E-10 -0.18368804
v -0.44416544 -0.0038268343 -0.18397935
v -0.44616815 -0.0070710685 -0.1848089
v -0.44916543 -0.009238796 -0.18605042
v -0.45270097 -0.01 -0.18751489
v -0.45623648 -0.009238794 -0.18897934
v -0.4592338 -0.0070710653 -0.19022086
v -0.4612365 -0.0038268343 -0.19105043
v -0.46193975 1.7484555E-09 -0.19134171
v -0.49039266 0 -0.09754512
v -0.48964608 0.0038268345 -0.09739661
v -0.48752 0.0070710676 -0.09697372
v -0.4843381 0.009238794 -0.09634079
v -0.4805848 0.01 -0.09559422
v -0.47683153 0.009238794 -0.09484764
v -0.4736496 0.0070710676 -0.094214715
v -0.47152352 0.0038268326 -0.09379181
v -0.47077698 -8.7422775E-10 -0.093643315
v -0.47152355 -0.0038268343 -0.09379182
v -0.4736496 -0.0070710685 -0.094214715
v -0.47683153 -0.009238796 -0.09484764
v -0.4805848 -0.01 -0.09559422
v -0.4843381 -0.009238794 -0.09634079
v -0.48752 -0.0070710653 -0.09697372
v -0.4896461 -0.0038268343 -0.09739662
v -0.49039266 1.7484555E-09 -0.09754512
v -0.5 0 2.1855694E-08
v -0.4992388 0.0038268345 2.1822421E-08
v -0.4970711 0.0070710676 2.1727667E-08
v -0.49382684 0.009238794 2.1585857E-08
v -0.49 0.01 2.141858E-08
v -0.48617318 0.009238794 2.1251305E-08
v -0.48292893 0.0070710676 2.1109495E-08
v -0.4807612 0.0038268326 2.101474E-08
v -0.48000002 -8.7422775E-10 2.0981467E-08
v -0.48076123 -0.0038268343 2.101474E-08
v -0.48292893 -0.0070710685 2.1109495E-08
v -0.48617318 -0.009238796 2.1251305E-08
v -0.49 -0.01 2.141858E-08
v -0.49382684 -0.009238794 2.1585857E-08
v -0.4970711 -0.0070710653 2.1727667E-08
v -0.49923882 -0.0038268343 2.1822421E-08
v -0.5 1.7484555E-09 2.1855694E-08
v -0.49039263 0 0.09754516
v -0.48964605 0.0038268345 0.09739666
v -0.48751998 0.0070710676 0.09697376
v -0.48433807 0.009238794 0.096340835
v -0.48058477 0.01 0.09559426
v -0.4768315 0.009238794 0.09484769
v -0.47364956 0.0070710676 0.09421476
v -0.4715235 0.0038268326 0.09379186
v -0.47077695 -8.7422775E-10 0.09364336
v -0.47152352 -0.0038268343 0.093791865
v -0.47364956 -0.0070710685 0.09421476
v -0.4768315 -0.009238796 0.09484769
v -0.48058477 -0.01 0.09559426
v -0.48433807 -0.009238794 0.096340835
v -0.48751998 -0.0070710653 0.09697376
v -0.48964608 -0.0038268343 0.097396664
v -0.49039263 1.7484555E-09 0.09754516
v -0.46193975 0 0.19134176
v -0.46123648 0.0038268345 0.19105045
v -0.4592338 0.0070710676 0.1902209
v -0.45623648 0.009238794 0.18897939
v -0.45270097 0.01 0.18751493
v -0.44916543 0.009238794 0.18605046
v -0.44616815 0.0070710676 0.18480894
v -0.4441654 0.0038268326 0.18397939
v -0.4434622 -8.7422775E-10 0.18368809
v -0.44416544 -0.0038268343 0.18397939
v -0.44616815 -0.0070710685 0.18480894
v -0.44916543 -0.009238796 0.18605046
v -0.45270097 -0.01 0.18751493
v -0.45623648 -0.009238794 0.18897939
v -0.4592338 -0.0070710653 0.1902209
v -0.4612365 -0.0038268343 0.19105047
v -0.46193975 1.7484555E-09 0.19134176
v -0.41573477 0 0.27778518
v -0.41510186 0.0038268345 0.2773623
v -0.41329947 0.0070710676 0.27615798
v -0.41060197 0.009238794 0.27435556
v -0.40742007 0.01 0.2722295
v -0.4042382 0.009238794 0.27010342
v -0.4015407 0.0070710676 0.268301
v -0.39973828 0.0038268326 0.26709667
v -0.3991054 -8.7422775E-10 0.26667377
v -0.3997383 -0.0038268343 0.2670967
v -0.4015407 -0.0070710685 0.268301
v -0.4042382 -0.009238796 0.27010342
v -0.40742007 -0.01 0.2722295
v -0.41060197 -0.009238794 0.27435556
v -0.41329947 -0.0070710653 0.27615798
v -0.41510186 -0.0038268343 0.2773623
v -0.41573477 1.7484555E-09 0.27778518
v -0.35355338 0 0.35355338
v -0.35301512 0.0038268345 0.35301512
v -0.35148233 0.0070710676 0.35148233
v -0.3491883 0.009238794 0.3491883
v -0.34648234 0.01 0.34648234
v -0.34377635 0.009238794 0.34377635
v -0.3414823 0.0070710676 0.3414823
v -0.3399495 0.0038268326 0.3399495
v -0.33941126 -8.7422775E-10 0.33941126
v -0.33994952 -0.0038268343 0.33994952
v -0.3414823 -0.0070710685 0.3414823
v -0.34377635 -0.009238796 0.34377635
v -0.34648234 -0.01 0.34648234
v -0.3491883 -0.009238794 0.3491883
v -0.35148233 -0.0070710653 0.35148233
v -0.35301515 -0.0038268343 0.35301515
v -0.35355338 1.7484555E-09 0.35355338
v -0.2777851 0 0.41573483
v -0.2773622 0.0038268345 0.41510192
v -0.2761579 0.0070710676 0.41329953
v -0.27435547 0.009238794 0.41060203
v -0.2722294 0.01 0.40742013
v -0.27010334 0.009238794 0.40423825
v -0.26830092 0.0070710676 0.40154076
v -0.26709658 0.0038268326 0.39973834
v -0.2666737 -8.7422775E-10 0.39910546
v -0.2670966 -0.0038268343 0.39973837
v -0.26830092 -0.0070710685 0.40154076
v -0.27010334 -0.009238796 0.40423825
v -0.2722294 -0.01 0.40742013
v -0.27435547 -0.009238794 0.41060203
v -0.2761579 -0.0070710653 0.41329953
v -0.2773622 -0.0038268343 0.41510192
v -0.2777851 1.7484555E-09 0.41573483
v -0.19134164 0 0.4619398
v -0.19105034 0.0038268345 0.46123654
v -0.19022079 0.0070710676 0.45923385
v -0.18897927 0.009238794 0.45623654
v -0.18751481 0.01 0.45270103
v -0.18605034 0.009238794 0.4491655
v -0.18480882 0.0070710676 0.4461682
v -0.18397927 0.0038268326 0.44416547
v -0.18368798 -8.7422775E-10 0.44346222
v -0.18397929 -0.0038268343 0.4441655
v -0.18480882 -0.0070710685 0.4461682
v -0.18605034 -0.009238796 0.4491655
v -0.18751481 -0.01 0.45270103
v -0.18897927 -0.009238794 0.45623654
v -0.19022079 -0.0070710653 0.45923385
v -0.19105035 -0.0038268343 0.46123657
v -0.19134164 1.7484555E-09 0.4619398
v -0.097545154 0 0.49039266
v -0.09739665 0.0038268345 0.48964608
v -0.096973754 0.0070710676 0.48752
v -0.09634083 0.009238794 0.4843381
v -0.09559425 0.01 0.4805848
v -0.09484768 0.009238794 0.47683153
v -0.09421475 0.0070710676 0.4736496
v -0.09379185 0.0038268326 0.47152352
v -0.09364335 -8.7422775E-10 0.47077698
v -0.09379186 -0.0038268343 0.47152355
v -0.09421475 -0.0070710685 0.4736496
v -0.09484768 -0.009238796 0.47683153
v -0.09559425 -0.01 0.4805848
v -0.09634083 -0.009238794 0.4843381
v -0.096973754 -0.0070710653 0.48752
v -0.09739666 -0.0038268343 0.4896461
v -0.097545154 1.7484555E-09 0.49039266
v 4.371139E-08 0 0.5
v 4.3644842E-08 0.0038268345 0.4992388
v 4.3455334E-08 0.0070710676 0.4970711
v 4.3171713E-08 0.009238794 0.49382684
v 4.283716E-08 0.01 0.49
v 4.250261E-08 0.009238794 0.48617318
v 4.221899E-08 0.0070710676 0.48292893
v 4.202948E-08 0.0038268326 0.4807612
v 4.1962934E-08 -8.7422775E-10 0.48000002
v 4.202948E-08 -0.0038268343 0.48076123
v 4.221899E-08 -0.0070710685 0.48292893
v 4.250261E-08 -0.009238796 0.48617318
v 4.283716E-08 -0.01 0.49
v 4.3171713E-08 -0.009238794 0.49382684
v 4.3455334E-08 -0.0070710653 0.4970711
v 4.3644842E-08 -0.0038268343 0.49923882
v 4.371139E-08 1.7484555E-09 0.5
v 0.097545244 0 0.49039263
v 0.09739674 0.0038268345 0.48964605
v 0.096973844 0.0070710676 0.48751998
v 0.09634092 0.009238794 0.48433807
v 0.09559434 0.01 0.48058477
v 0.09484776 0.009238794 0.4768315
v 0.09421484 0.0070710676 0.47364956
v 0.09379194 0.0038268326 0.4715235
v 0.093643434 -8.7422775E-10 0.47077695
v 0.09379194 -0.0038268343 0.47152352
v 0.09421484 -0.0070710685 0.47364956
v 0.09484776 -0.009238796 0.4768315
v 0.09559434 -0.01 0.48058477
v 0.09634092 -0.009238794 0.48433807
v 0.096973844 -0.0070710653 0.48751998
v 0.09739675 -0.0038268343 0.48964608
v 0.097545244 1.7484555E-09 0.49039263
v 0.19134171 0 0.46193975
v 0.19105041 0.0038268345 0.46123648
v 0.19022086 0.0070710676 0.4592338
v 0.18897934 0.009238794 0.45623648
v 0.18751489 0.01 0.45270097
v 0.18605042 0.009238794 0.44916543
v 0.1848089 0.0070710676 0.44616815
v 0.18397935 0.0038268326 0.4441654
v 0.18368804 -8.7422775E-10 0.4434622
v 0.18397935 -0.0038268343 0.44416544
v 0.1848089 -0.0070710685 0.44616815
v 0.18605042 -0.009238796 0.44916543
v 0.18751489 -0.01 0.45270097
v 0.18897934 -0.009238794 0.45623648
v 0.19022086 -0.0070710653 0.4592338
v 0.19105043 -0.0038268343 0.4612365
v 0.19134171 1.7484555E-09 0.46193975
v 0.27778515 0 0.41573477
v 0.27736226 0.0038268345 0.41510186
v 0.27615795 0.0070710676 0.41329947
v 0.27435553 0.009238794 0.41060197
v 0.27222946 0.01 0.40742007
v 0.2701034 0.009238794 0.4042382
v 0.26830098 0.0070710676 0.4015407
v 0.26709664 0.0038268326 0.39973828
v 0.26667374 -8.7422775E-10 0.3991054
v 0.26709667 -0.0038268343 0.3997383
v 0.26830098 -0.0070710685 0.4015407
v 0.2701034 -0.009238796 0.4042382
v 0.27222946 -0.01 0.40742007
v 0.27435553 -0.009238794 0.41060197
v 0.27615795 -0.0070710653 0.41329947
v 0.27736226 -0.0038268343 0.41510186
v 0.27778515 1.7484555E-09 0.41573477
v 0.35355344 0 0.35355332
v 0.35301518 0.0038268345 0.35301507
v 0.3514824 0.0070710676 0.35148227
v 0.34918836 0.009238794 0.34918824
v 0.3464824 0.01 0.34648228
v 0.3437764 0.009238794 0.3437763
v 0.34148237 0.0070710676 0.34148225
v 0.33994955 0.0038268326 0.33994943
v 0.33941132 -8.7422775E-10 0.3394112
v 0.33994958 -0.0038268343 0.33994946
v 0.34148237 -0.0070710685 0.34148225
v 0.3437764 -0.009238796 0.3437763
v 0.3464824 -0.01 0.34648228
v 0.34918836 -0.009238794 0.34918824
v 0.3514824 -0.0070710653 0.35148227
v 0.3530152 -0.0038268343 0.3530151
v 0.35355344 1.7484555E-09 0.35355332
v 0.4157349 0 0.277785
v 0.41510198 0.0038268345 0.2773621
v 0.4132996 0.0070710676 0.2761578
v 0.4106021 0.009238794 0.27435538
v 0.4074202 0.01 0.2722293
v 0.4042383 0.009238794 0.27010325
v 0.40154082 0.0070710676 0.26830083
v 0.3997384 0.0038268326 0.2670965
v 0.39910552 -8.7422775E-10 0.26667362
v 0.39973843 -0.0038268343 0.26709652
v 0.40154082 -0.0070710685 0.26830083
v 0.4042383 -0.009238796 0.27010325
v 0.4074202 -0.01 0.2722293
v 0.4106021 -0.009238794 0.27435538
v 0.4132996 -0.0070710653 0.2761578
v 0.41510198 -0.0038268343 0.2773621
v 0.4157349 1.7484555E-09 0.277785
v 0.46193984 0 0.19134156
v 0.46123657 0.0038268345 0.19105026
v 0.45923388 0.0070710676 0.19022071
v 0.45623657 0.009238794 0.1889792
v 0.45270106 0.01 0.18751474
v 0.44916552 0.009238794 0.18605028
v 0.4461682 0.0070710676 0.18480876
v 0.4441655 0.0038268326 0.1839792
v 0.44346225 -8.7422775E-10 0.18368791
v 0.44416553 -0.0038268343 0.18397921
v 0.4461682 -0.0070710685 0.18480876
v 0.44916552 -0.009238796 0.18605028
v 0.45270106 -0.01 0.18751474
v 0.45623657 -0.009238794 0.1889792
v 0.45923388 -0.0070710653 0.19022071
v 0.4612366 -0.0038268343 0.19105028
v 0.46193984 1.7484555E-09 0.19134156
v 0.49039263 0 0.09754519
v 0.48964605 0.0038268345 0.09739669
v 0.48751998 0.0070710676 0.09697379
v 0.48433807 0.009238794 0.096340865
v 0.48058477 0.01 0.09559429
v 0.4768315 0.009238794 0.09484771
v 0.47364956 0.0070710676 0.09421479
v 0.4715235 0.0038268326 0.09379189
v 0.47077695 -8.7422775E-10 0.09364339
v 0.47152352 -0.0038268343 0.093791895
v 0.47364956 -0.0070710685 0.09421479
v 0.4768315 -0.009238796 0.09484771
v 0.48058477 -0.01 0.09559429
v 0.48433807 -0.009238794 0.096340865
v 0.48751998 -0.0070710653 0.09697379
v 0.48964608 -0.0038268343 0.097396694
v 0.49039263 1.7484555E-09 0.09754519
v 0.5 0 -5.9624403E-09
v 0.4992388 0.0038268345 -5.953363E-09
v 0.4970711 0.0070710676 -5.9275136E-09
v 0.49382684 0.009238794 -5.888826E-09
v 0.49 0.01 -5.8431917E-09
v 0.48617318 0.009238794 -5.797557E-09
v 0.48292893 0.0070710676 -5.75887E-09
v 0.4807612 0.0038268326 -5.73302E-09
v 0.48000002 -8.7422775E-10 -5.723943E-09
v 0.48076123 -0.0038268343 -5.7330203E-09
v 0.48292893 -0.0070710685 -5.75887E-09
v 0.48617318 -0.009238796 -5.797557E-09
v 0.49 -0.01 -5.8431917E-09
v 0.49382684 -0.009238794 -5.888826E-09
v 0.4970711 -0.0070710653 -5.9275136E-09
v 0.49923882 -0.0038268343 -5.953363E-09
v 0.5 1.7484555E-09 -5.9624403E-09
v 0.49039263 0 -0.09754521
v 0.48964605 0.0038268345 -0.0973967
v 0.48751998 0.0070710676 -0.09697381
v 0.48433807 0.009238794 -0.09634088
v 0.48058477 0.01 -0.0955943
v 0.4768315 0.009238794 -0.094847724
v 0.47364956 0.0070710676 -0.094214804
v 0.4715235 0.0038268326 -0.0937919
v 0.47077695 -8.7422775E-10 -0.093643405
v 0.47152352 -0.0038268343 -0.09379191
v 0.47364956 -0.0070710685 -0.094214804
v 0.4768315 -0.009238796 -0.094847724
v 0.48058477 -0.01 -0.0955943
v 0.48433807 -0.009238794 -0.09634088
v 0.48751998 -0.0070710653 -0.09697381
v 0.48964608 -0.0038268343 -0.09739671
v 0.49039263 1.7484555E-09 -0.09754521
v 0.46193972 0 -0.1913418
v 0.46123645 0.0038268345 -0.1910505
v 0.45923376 0.0070710676 -0.19022095
v 0.45623645 0.009238794 -0.18897943
v 0.45270094 0.01 -0.18751498
v 0.4491654 0.009238794 -0.1860505
v 0.44616812 0.0070710676 -0.18480898
v 0.44416538 0.0038268326 -0.18397942
v 0.44346216 -8.7422775E-10 -0.18368813
v 0.4441654 -0.0038268343 -0.18397944
v 0.44616812 -0.0070710685 -0.18480898
v 0.4491654 -0.009238796 -0.1860505
v 0.45270094 -0.01 -0.18751498
v 0.45623645 -0.009238794 -0.18897943
v 0.45923376 -0.0070710653 -0.19022095
v 0.46123648 -0.0038268343 -0.19105051
v 0.46193972 1.7484555E-09 -0.1913418
v 0.41573474 0 -0.2777852
v 0.41510183 0.0038268345 -0.27736232
v 0.41329944 0.0070710676 -0.276158
v 0.41060194 0.009238794 -0.2743556
v 0.40742004 0.01 -0.27222952
v 0.40423816 0.009238794 -0.27010345
v 0.40154067 0.0070710676 -0.26830104
v 0.39973825 0.0038268326 -0.2670967
v 0.39910537 -8.7422775E-10 -0.2666738
v 0.39973828 -0.0038268343 -0.26709673
v 0.40154067 -0.0070710685 -0.26830104
v 0.40423816 -0.009238796 -0.27010345
v 0.40742004 -0.01 -0.27222952
v 0.41060194 -0.009238794 -0.2743556
v 0.41329944 -0.0070710653 -0.276158
v 0.41510183 -0.0038268343 -0.27736232
v 0.41573474 1.7484555E-09 -0.2777852
v 0.35355327 0 -0.3535535
v 0.353015 0.0038268345 -0.35301524
v 0.3514822 0.0070710676 -0.35148245
v 0.34918818 0.009238794 -0.34918842
v 0.34648222 0.01 -0.34648243
v 0.34377623 0.009238794 -0.34377646
v 0.3414822 0.0070710676 -0.34148243
v 0.3399494 0.0038268326 -0.3399496
v 0.33941114 -8.7422775E-10 -0.33941138
v 0.3399494 -0.0038268343 -0.33994964
v 0.3414822 -0.0070710685 -0.34148243
v 0.34377623 -0.009238796 -0.34377646
v 0.34648222 -0.01 -0.34648243
v 0.34918818 -0.009238794 -0.34918842
v 0.3514822 -0.0070710653 -0.35148245
v 0.35301504 -0.0038268343 -0.35301527
v 0.35355327 1.7484555E-09 -0.3535535
v 0.27778515 0 -0.4157348
v 0.27736226 0.0038268345 -0.4151019
v 0.27615795 0.0070710676 -0.4132995
v 0.27435553 0.009238794 -0.410602
v 0.27222946 0.01 -0.4074201
v 0.2701034 0.009238794 -0.40423822
v 0.26830098 0.0070710676 -0.40154073
v 0.26709664 0.0038268326 -0.3997383
v 0.26667374 -8.7422775E-10 -0.39910543
v 0.26709667 -0.0038268343 -0.39973834
v 0.26830098 -0.0070710685 -0.40154073
v 0.2701034 -0.009238796 -0.40423822
v 0.27222946 -0.01 -0.4074201
v 0.27435553 -0.009238794 -0.410602
v 0.27615795 -0.0070710653 -0.4132995
v 0.27736226 -0.0038268343 -0.4151019
v 0.27778515 1.7484555E-09 -0.4157348
v 0.19134171 0 -0.46193978
v 0.19105041 0.0038268345 -0.4612365
v 0.19022086 0.0070710676 -0.45923382
v 0.18897934 0.009238794 -0.4562365
v 0.18751489 0.01 -0.452701
v 0.18605042 0.009238794 -0.44916546
v 0.1848089 0.0070710676 -0.44616818
v 0.18397935 0.0038268326 -0.44416544
v 0.18368804 -8.7422775E-10 -0.44346222
v 0.18397935 -0.0038268343 -0.44416547
v 0.1848089 -0.0070710685 -0.44616818
v 0.18605042 -0.009238796 -0.44916546
v 0.18751489 -0.01 -0.452701
v 0.18897934 -0.009238794 -0.4562365
v 0.19022086 -0.0070710653 -0.45923382
v 0.19105043 -0.0038268343 -0.46123654
v 0.19134171 1.7484555E-09 -0.46193978
v 0.09754512 0 -0.49039266
v 0.09739661 0.0038268345 -0.48964608
v 0.09697372 0.0070710676 -0.48752
v 0.09634079 0.009238794 -0.4843381
v 0.09559422 0.01 -0.4805848
v 0.09484764 0.009238794 -0.47683153
v 0.094214715 0.0070710676 -0.4736496
v 0.09379181 0.0038268326 -0.47152352
v 0.093643315 -8.7422775E-10 -0.47077698
v 0.09379182 -0.0038268343 -0.47152355
v 0.094214715 -0.0070710685 -0.4736496
v 0.09484764 -0.009238796 -0.47683153
v 0.09559422 -0.01 -0.4805848
v 0.09634079 -0.009238794 -0.4843381
v 0.09697372 -0.0070710653 -0.48752
v 0.09739662 -0.0038268343 -0.4896461
v 0.09754512 1.7484555E-09 -0.49039266
v -8.742278E-08 0 -0.5
v -8.7289685E-08 0.0038268345 -0.4992388
v -8.691067E-08 0.0070710676 -0.4970711
v -8.634343E-08 0.009238794 -0.49382684
v -8.567432E-08 0.01 -0.49
v -8.500522E-08 0.009238794 -0.48617318
v -8.443798E-08 0.0070710676 -0.48292893
v -8.405896E-08 0.0038268326 -0.4807612
v -8.392587E-08 -8.7422775E-10 -0.48000002
v -8.405896E-08 -0.0038268343 -0.48076123
v -8.443798E-08 -0.0070710685 -0.48292893
v -8.500522E-08 -0.009238796 -0.48617318
v -8.567432E-08 -0.01 -0.49
v -8.634343E-08 -0.009238794 -0.49382684
v -8.691067E-08 -0.0070710653 -0.4970711
v -8.7289685E-08 -0.0038268343 -0.49923882
v -8.742278E-08 1.7484555E-09 -0.5
vt 0 0
vt 0 0.0625
vt 0 0.125
vt 0 0.1875
vt 0 0.25
vt 0 0.3125
vt 0 0.375
vt 0 0.4375
vt 0 0.5
vt 0 0.5625
vt 0 0.625
vt 0 0.6875
vt 0 0.75
vt 0 0.8125
vt 0 0.875
vt 0 0.9375
vt 0 1
vt 0.03125 0
vt 0.03125 0.0625
vt 0.03125 0.125
vt 0.03125 0.1875
vt 0.03125 0.25
vt 0.03125 0.3125
vt 0.03125 0.375
vt 0.03125 0.4375
vt 0.03125 0.5
vt 0.03125 0.5625
vt 0.03125 0.625
vt 0.03125 0.6875
vt 0.03125 0.75
vt 0.03125 0.8125
vt 0.03125 0.875
vt 0.03125 0.9375
vt 0.03125 1
vt 0.0625 0
vt 0.0625 0.0625
vt 0.0625 0.125
vt 0.0625 0.1875
vt 0.0625 0.25
vt 0.0625 0.3125
vt 0.0625 0.375
vt 0.0625 0.4375
vt 0.0625 0.5
vt 0.0625 0.5625
vt 0.0625 0.625
vt 0.0625 0.6875
vt 0.0625 0.75
vt 0.0625 0.8125
vt 0.0625 0.875
vt 0.0625 0.9375
vt 0.0625 1
vt 0.09375 0
vt 0.09375 0.0625
vt 0.09375 0.125
vt 0.09375 0.1875
vt 0.09375 0.25
vt 0.09375 0.3125
vt 0.09375 0.375
vt 0.09375 0.4375
vt 0.09375 0.5
vt 0.09375 0.5625
vt 0.09375 0.625
vt 0.09375 0.6875
vt 0.09375 0.75
vt 0.09375 0.8125
vt 0.09375 0.875
vt 0.09375 0.9375
vt 0.09375 1
vt 0.125 0
vt 0.125 0.0625
vt 0.125 0.125
vt 0.125 0.1875
vt 0.125 0.25
vt 0.125 0.3125
vt 0.125 0.375
vt 0.125 0.4375
vt 0.125 0.5
vt 0.125 0.5625
vt 0.125 0.625
vt 0.125 0.6875
vt 0.125 0.75
vt 0.125 0.8125
vt 0.125 0.875
vt 0.125 0.9375
vt 0.125 1
vt 0.15625 0
vt 0.15625 0.0625
vt 0.15625 0.125
vt 0.15625 0.1875
vt 0.15625 0.25
vt 0.15625 0.3125
vt 0.15625 0.375
vt 0.15625 0.4375
vt 0.15625 0.5
vt 0.15625 0.5625
vt 0.15625 0.625
vt 0.15625 0.6875
vt 0.15625 0.75
vt 0.15625 0.8125
vt 0.15625 0.875
vt 0.15625 0.9375
vt 0.15625 1
vt 0.1875 0
vt 0.1875 0.0625
vt 0.1875 0.125
vt 0.1875 0.1875
vt 0.1875 0.25
vt 0.1875 0.3125
vt 0.1875 0.375
vt 0.1875 0.4375
vt 0.1875 0.5
vt 0.1875 0.5625
vt 0.1875 0.625
vt 0.1875 0.6875
vt 0.1875 0.75
vt 0.1875 0.8125
vt 0.1875 0.875
vt 0.1875 0.9375
vt 0.1875 1
vt 0.21875 0
vt 0.21875 0.0625
vt 0.21875 0.125
vt 0.21875 0.1875
vt 0.21875 0.25
vt 0.21875 0.3125
vt 0.21875 0.375
vt 0.21875 0.4375
vt 0.21875 0.5
vt 0.21875 0.5625
vt 0.21875 0.625
vt 0.21875 0.6875
vt 0.21875 0.75
vt 0.21875 0.8125
vt 0.21875 0.875
vt 0.21875 0.9375
vt 0.21875 1
vt 0.25 0
vt 0.25 0.0625
vt 0.25 0.125
vt 0.25 0.1875
vt 0.25 0.25
vt 0.25 0.3125
vt 0.25 0.375
vt 0.25 0.4375
vt 0.25 0.5
vt 0.25 0.5625
vt 0.25 0.625
vt 0.25 0.6875
vt 0.25 0.75
vt 0.25 0.8125
vt 0.25 0.875
vt 0.25 0.9375
vt 0.25 1
vt 0.28125 0
vt 0.28125 0.0625
vt 0.28125 0.125
vt 0.28125 0.1875
vt 0.28125 0.25
vt 0.28125 0.3125
vt 0.28125 0.375
vt 0.28125 0.4375
vt 0.28125 0.5
vt 0.28125 0.5625
vt 0.28125 0.625
vt 0.28125 0.6875
vt 0.28125 0.75
vt 0.28125 0.8125
vt 0.28125 0.875
vt 0.28125 0.9375
vt 0.28125 1
vt 0.3125 0
vt 0.3125 0.0625
vt 0.3125 0.125
vt 0.3125 0.1875
vt 0.3125 0.25
vt 0.3125 0.3125
vt 0.3125 0.375
vt 0.3125 0.4375
vt 0.3125 0.5
vt 0.3125 0.5625
vt 0.3125 0.625
vt 0.3125 0.6875
vt 0.3125 0.75
vt 0.3125 0.8125
vt 0.3125 0.875
vt 0.3125 0.9375
vt 0.3125 1
vt 0.34375 0
vt 0.34375 0.0625
vt 0.34375 0.125
vt 0.34375 0.1875
vt 0.34375 0.25
vt 0.34375 0.3125
vt 0.34375 0.375
vt 0.34375 0.4375
vt 0.34375 0.5
vt 0.34375 0.5625
vt 0.34375 0.625
vt 0.34375 0.6875
vt 0.34375 0.75
vt 0.34375 0.8125
vt 0.34375 0.875
vt 0.34375 0.9375
vt 0.34375 1
vt 0.375 0
vt 0.375 0.0625
vt 0.375 0.125
vt 0.375 0.1875
vt 0.375 0.25
vt 0.375 0.3125
vt 0.375 0.375
vt 0.375 0.4375
vt 0.375 0.5
vt 0.375 0.5625
vt 0.375 0.625
vt 0.375 0.6875
vt 0.375 0.75
vt 0.375 0.8125
vt 0.375 0.875
vt 0.375 0.9375
vt 0.375 1
vt 0.40625 0
vt 0.40625 0.0625
vt 0.40625 0.125
vt 0.40625 0.1875
vt 0.40625 0.25
vt 0.40625 0.3125
vt 0.40625 0.375
vt 0.40625 0.4375
vt 0.40625 0.5
vt 0.40625 0.5625
vt 0.40625 0.625
vt 0.40625 0.6875
vt 0.40625 0.75
vt 0.40625 0.8125
vt 0.40625 0.875
vt 0.40625 0.9375
vt 0.40625 1
vt 0.4375 0
vt 0.4375 0.0625
vt 0.4375 0.125
vt 0.4375 0.1875
vt 0.4375 0.25
vt 0.4375 0.3125
vt 0.4375 0.375
vt 0.4375 0.4375
vt 0.4375 0.5
vt 0.4375 0.5625
vt 0.4375 0.625
vt 0.4375 0.6875
vt 0.4375 0.75
vt 0.4375 0.8125
vt 0.4375 0.875
vt 0.4375 0.9375
vt 0.4375 1
vt 0.46875 0
vt 0.46875 0.0625
vt 0.46875 0.125
vt 0.46875 0.1875
vt 0.46875 0.25
vt 0.46875 0.3125
vt 0.46875 0.375
vt 0.46875 0.4375
vt 0.46875 0.5
vt 0.46875 0.5625
vt 0.46875 0.625
vt 0.46875 0.6875
vt 0.46875 0.75
vt 0.46875 0.8125
vt 0.46875 0.875
vt 0.46875 0.9375
vt 0.46875 1
vt 0.5 0
vt 0.5 0.0625
vt 0.5 0.125
vt 0.5 0.1875
vt 0.5 0.25
vt 0.5 0.3125
vt 0.5 0.375
vt 0.5 0.4375
vt 0.5 0.5
vt 0.5 0.5625
vt 0.5 0.625
vt 0.5 0.6875
vt 0.5 0.75
vt 0.5 0.8125
vt 0.5 0.875
vt 0.5 0.9375
vt 0.5 1
vt 0.53125 0
vt 0.53125 0.0625
vt 0.53125 0.125
vt 0.53125 0.1875
vt 0.53125 0.25
vt 0.53125 0.3125
vt 0.53125 0.375
vt 0.53125 0.4375
vt 0.53125 0.5
vt 0.53125 0.5625
vt 0.53125 0.625
vt 0.53125 0.6875
vt 0.53125 0.75
vt 0.53125 0.8125
vt 0.53125 0.875
vt 0.53125 0.9375
vt 0.53125 1
vt 0.5625 0
vt 0.5625 0.0625
vt 0.5625 0.125
vt 0.5625 0.1875
vt 0.5625 0.25
vt 0.5625 0.3125
vt 0.5625 0.375
vt 0.5625 0.4375
vt 0.5625 0.5
vt 0.5625 0.5625
vt 0.5625 0.625
vt 0.5625 0.6875
vt 0.5625 0.75
vt 0.5625 0.8125
vt 0.5625 0.875
vt 0.5625 0.9375
vt 0.5625 1
vt 0.59375 0
vt 0.59375 0.0625
vt 0.59375 0.125
vt 0.59375 0.1875
vt 0.59375 0.25
vt 0.59375 0.3125
vt 0.59375 0.375
vt 0.59375 0.4375
vt 0.59375 0.5
vt 0.59375 0.5625
vt 0.59375 0.625
vt 0.59375 0.6875
vt 0.59375 0.75
vt 0.59375 0.8125
vt 0.59375 0.875
vt 0.59375 0.9375
vt 0.59375 1
vt 0.625 0
vt 0.625 0.0625
vt 0.625 0.125
vt 0.625 0.1875
vt 0.625 0.25
vt 0.625 0.3125
vt 0.625 0.375
vt 0.625 0.4375
vt 0.625 0.5
vt 0.625 0.5625
vt 0.625 0.625
vt 0.625 0.6875
vt 0.625 0.75
vt 0.625 0.8125
vt 0.625 0.875
vt 0.625 0.9375
vt 0.625 1
vt 0.65625 0
vt 0.65625 0.0625
vt 0.65625 0.125
vt 0.65625 0.1875
vt 0.65625 0.25
vt 0.65625 0.3125
vt 0.65625 0.375
vt 0.65625 0.4375
vt 0.65625 0.5
vt 0.65625 0.5625
vt 0.65625 0.625
vt 0.65625 0.6875
vt 0.65625 0.75
vt 0.65625 0.8125
vt 0.65625 0.875
vt 0.65625 0.9375
vt 0.65625 1
vt 0.6875 0
vt 0.6875 0.0625
vt 0.6875 0.125
vt 0.6875 0.1875
vt 0.6875 0.25
vt 0.6875 0.3125
vt 0.6875 0.375
vt 0.6875 0.4375
vt 0.6875 0.5
vt 0.6875 0.5625
vt 0.6875 0.625
vt 0.6875 0.6875
vt 0.6875 0.75
vt 0.6875 0.8125
vt 0.6875 0.875
vt 0.6875 0.9375
vt 0.6875 1
vt 0.71875 0
vt 0.71875 0.0625
vt 0.71875 0.125
vt 0.71875 0.1875
vt 0.71875 0.25
vt 0.71875 0.3125
vt 0.71875 0.375
vt 0.71875 0.4375
vt 0.71875 0.5
vt 0.71875 0.5625
vt 0.71875 0.625
vt 0.71875 0.6875
vt 0.71875 0.75
vt 0.71875 0.8125
vt 0.71875 0.875
vt 0.71875 0.9375
vt 0.71875 1
vt 0.75 0
vt 0.75 0.0625
vt 0.75 0.125
vt 0.75 0.1875
vt 0.75 0.25
vt 0.75 0.3125
vt 0.75 0.375
vt 0.75 0.4375
vt 0.75 0.5
vt 0.75 0.5625
vt 0.75 0.625
vt 0.75 0.6875
vt 0.75 0.75
vt 0.75 0.8125
vt 0.75 0.875
vt 0.75 0.9375
vt 0.75 1
vt 0.78125 0
vt 0.78125 0.0625
vt 0.78125 0.125
vt 0.78125 0.1875
vt 0.78125 0.25
vt 0.78125 0.3125
vt 0.78125 0.375
vt 0.78125 0.4375
vt 0.78125 0.5
vt 0.78125 0.5625
vt 0.78125 0.625
vt 0.78125 0.6875
vt 0.78125 0.75
vt 0.78125 0.8125
vt 0.78125 0.875
vt 0.78125 0.9375
vt 0.78125 1
vt 0.8125 0
vt 0.8125 0.0625
vt 0.8125 0.125
vt 0.8125 0.1875
vt 0.8125 0.25
vt 0.8125 0.3125
vt 0.8125 0.375
vt 0.8125 0.4375
vt 0.8125 0.5
vt 0.8125 0.5625
vt 0.8125 0.625
vt 0.8125 0.6875
vt 0.8125 0.75
vt 0.8125 0.8125
vt 0.8125 0.875
vt 0.8125 0.9375
vt 0.8125 1
vt 0.84375 0
vt 0.84375 0.0625
vt 0.84375 0.125
vt 0.84375 0.1875
vt 0.84375 0.25
vt 0.84375 0.3125
vt 0.84375 0.375
vt 0.84375 0.4375
vt 0.84375 0.5
vt 0.84375 0.5625
vt 0.84375 0.625
vt 0.84375 0.6875
vt 0.84375 0.75
vt 0.84375 0.8125
vt 0.84375 0.875
vt 0.84375 0.9375
vt 0.84375 1
vt 0.875 0
vt 0.875 0.0625
vt 0.875 0.125
vt 0.875 0.1875
vt 0.875 0.25
vt 0.875 0.3125
vt 0.875 0.375
vt 0.875 0.4375
vt 0.875 0.5
vt 0.875 0.5625
vt 0.875 0.625
vt 0.875 0.6875
vt 0.875 0.75
vt 0.875 0.8125
vt 0.875 0.875
vt 0.875 0.9375
vt 0.875 1
vt 0.90625 0
vt 0.90625 0.0625
vt 0.90625 0.125
vt 0.90625 0.1875
vt 0.90625 0.25
vt 0.90625 0.3125
vt 0.90625 0.375
vt 0.90625 0.4375
vt 0.90625 0.5
vt 0.90625 0.5625
vt 0.90625 0.625
vt 0.90625 0.6875
vt 0.90625 0.75
vt 0.90625 0.8125
vt 0.90625 0.875
vt 0.90625 0.9375
vt 0.90625 1
vt 0.9375 0
vt 0.9375 0.0625
vt 0.9375 0.125
vt 0.9375 0.1875
vt 0.9375 0.25
vt 0.9375 0.3125
vt 0.9375 0.375
vt 0.9375 0.4375
vt 0.9375 0.5
vt 0.9375 0.5625
vt 0.9375 0.625
vt 0.9375 0.6875
vt 0.9375 0.75
vt 0.9375 0.8125
vt 0.9375 0.875
vt 0.9375 0.9375
vt 0.9375 1
vt 0.96875 0
vt 0.96875 0.0625
vt 0.96875 0.125
vt 0.96875 0.1875
vt 0.96875 0.25
vt 0.96875 0.3125
vt 0.96875 0.375
vt 0.96875 0.4375
vt 0.96875 0.5
vt 0.96875 0.5625
vt 0.96875 0.625
vt 0.96875 0.6875
vt 0.96875 0.75
vt 0.96875 0.8125
vt 0.96875 0.875
vt 0.96875 0.9375
vt 0.96875 1
vt 1 0
vt 1 0.0625
vt 1 0.125
vt 1 0.1875
vt 1 0.25
vt 1 0.3125
vt 1 0.375
vt 1 0.4375
vt 1 0.5
vt 1 0.5625
vt 1 0.625
vt 1 0.6875
vt 1 0.75
vt 1 0.8125
vt 1 0.875
vt 1 0.9375
vt 1 1
vn 0 0 -1
vn 0 0.38268346 -0.9238795
vn 0 0.70710677 -0.70710677
vn 0 0.9238795 -0.38268343
vn 0 1 4.371139E-08
vn 0 0.9238795 0.38268352
vn 0 0.70710677 0.70710677
vn 0 0.38268328 0.9238796
vn 0 -8.742278E-08 1
vn 0 -0.38268343 0.9238795
vn 0 -0.7071069 0.70710665
vn 0 -0.9238797 0.38268313
vn 0 -1 -1.1924881E-08
vn 0 -0.92387944 -0.3826836
vn 0 -0.70710653 -0.707107
vn 0 -0.38268343 -0.92387956
vn 0 1.7484555E-07 -1
vn -0.19509032 0 -0.98078525
vn -0.18023995 0.38268346 -0.9061274
vn -0.13794969 0.70710677 -0.6935199
vn -0.074657835 0.9238795 -0.37533027
vn 8.527669E-09 1 4.2871484E-08
vn 0.07465785 0.9238795 0.37533036
vn 0.13794969 0.70710677 0.6935199
vn 0.18023998 0.38268328 0.9061275
vn 0.19509032 -8.742278E-08 0.98078525
vn 0.18023995 -0.38268343 0.9061274
vn 0.13794966 -0.7071069 0.6935198
vn 0.074657775 -0.9238797 0.37532997
vn -2.3264288E-09 -1 -1.16957475E-08
vn -0.074657865 -0.92387944 -0.37533045
vn -0.13794973 -0.70710653 -0.6935201
vn -0.18023996 -0.38268343 -0.90612745
vn -0.19509032 1.7484555E-07 -0.98078525
vn -0.38268346 0 -0.9238795
vn -0.3535534 0.38268346 -0.85355335
vn -0.27059805 0.70710677 -0.65328145
vn -0.14644662 0.9238795 -0.35355338
vn 1.6727626E-08 1 4.0384055E-08
vn 0.14644665 0.9238795 0.35355344
vn 0.27059805 0.70710677 0.65328145
vn 0.35355344 0.38268328 0.8535535
vn 0.38268346 -8.742278E-08 0.9238795
vn 0.3535534 -0.38268343 0.85355335
vn 0.27059802 -0.7071069 0.65328133
vn 0.1464465 -0.9238797 0.3535531
vn -4.5634545E-09 -1 -1.10171525E-08
vn -0.14644669 -0.92387944 -0.35355353
vn -0.27059814 -0.70710653 -0.6532817
vn -0.3535534 -0.38268343 -0.8535534
vn -0.38268346 1.7484555E-07 -0.9238795
vn -0.55557024 0 -0.8314696
vn -0.51328 0.38268346 -0.7681777
vn -0.39284748 0.70710677 -0.5879378
vn -0.21260752 0.9238795 -0.31818962
vn 2.4284747E-08 1 3.634469E-08
vn 0.21260758 0.9238795 0.3181897
vn 0.39284748 0.70710677 0.5879378
vn 0.51328003 0.38268328 0.7681778
vn 0.55557024 -8.742278E-08 0.8314696
vn 0.51328 -0.38268343 0.7681777
vn 0.39284742 -0.7071069 0.58793765
vn 0.21260735 -0.9238797 0.31818938
vn -6.625109E-09 -1 -9.915175E-09
vn -0.21260762 -0.92387944 -0.31818977
vn -0.39284763 -0.70710653 -0.58793795
vn -0.51328 -0.38268343 -0.76817775
vn -0.55557024 1.7484555E-07 -0.8314696
vn -0.70710677 0 -0.70710677
vn -0.65328145 0.38268346 -0.65328145
vn -0.49999997 0.70710677 -0.49999997
vn -0.27059805 0.9238795 -0.27059805
vn 3.090862E-08 1 3.090862E-08
vn 0.2705981 0.9238795 0.2705981
vn 0.49999997 0.70710677 0.49999997
vn 0.6532815 0.38268328 0.6532815
vn 0.70710677 -8.742278E-08 0.70710677
vn 0.65328145 -0.38268343 0.65328145
vn 0.4999999 -0.7071069 0.4999999
vn 0.27059782 -0.9238797 0.27059782
vn -8.432163E-09 -1 -8.432163E-09
vn -0.27059817 -0.92387944 -0.27059817
vn -0.5000002 -0.70710653 -0.5000002
vn -0.6532815 -0.38268343 -0.6532815
vn -0.70710677 1.7484555E-07 -0.70710677
vn -0.83146966 0 -0.5555702
vn -0.76817775 0.38268346 -0.5132799
vn -0.58793783 0.70710677 -0.39284745
vn -0.31818965 0.9238795 -0.2126075
vn 3.6344694E-08 1 2.4284745E-08
vn 0.31818974 0.9238795 0.21260755
vn 0.58793783 0.70710677 0.39284745
vn 0.76817787 0.38268328 0.51328
vn 0.83146966 -8.742278E-08 0.5555702
vn 0.76817775 -0.38268343 0.5132799
vn 0.5879377 -0.7071069 0.39284736
vn 0.3181894 -0.9238797 0.21260734
vn -9.915176E-09 -1 -6.625108E-09
vn -0.3181898 -0.92387944 -0.2126076
vn -0.587938 -0.70710653 -0.39284757
vn -0.7681778 -0.38268343 -0.5132799
vn -0.83146966 1.7484555E-07 -0.5555702
vn -0.9238795 0 -0.38268343
vn -0.85355335 0.38268346 -0.35355338
vn -0.65328145 0.70710677 -0.27059805
vn -0.35355338 0.9238795 -0.1464466
vn 4.0384055E-08 1 1.6727624E-08
vn 0.35355344 0.9238795 0.14644665
vn 0.65328145 0.70710677 0.27059805
vn 0.8535535 0.38268328 0.3535534
vn 0.9238795 -8.742278E-08 0.38268343
vn 0.85355335 -0.38268343 0.35355338
vn 0.65328133 -0.7071069 0.270598
vn 0.3535531 -0.9238797 0.1464465
vn -1.10171525E-08 -1 -4.563454E-09
vn -0.35355353 -0.92387944 -0.14644668
vn -0.6532817 -0.70710653 -0.27059814
vn -0.8535534 -0.38268343 -0.35355338
vn -0.9238795 1.7484555E-07 -0.38268343
vn -0.9807853 0 -0.19509023
vn -0.90612745 0.38268346 -0.18023987
vn -0.69351995 0.70710677 -0.13794963
vn -0.37533027 0.9238795 -0.0746578
vn 4.2871488E-08 1 8.527665E-09
vn 0.37533036 0.9238795 0.07465782
vn 0.69351995 0.70710677 0.13794963
vn 0.9061276 0.38268328 0.18023989
vn 0.9807853 -8.742278E-08 0.19509023
vn 0.90612745 -0.38268343 0.18023987
vn 0.69351983 -0.7071069 0.1379496
vn 0.37533 -0.9238797 0.07465774
vn -1.16957475E-08 -1 -2.3264277E-09
vn -0.37533045 -0.92387944 -0.074657835
vn -0.6935202 -0.70710653 -0.13794968
vn -0.9061275 -0.38268343 -0.18023989
vn -0.9807853 1.7484555E-07 -0.19509023
vn -1 0 4.371139E-08
vn -0.9238795 0.38268346 4.0384055E-08
vn -0.70710677 0.70710677 3.090862E-08
vn -0.38268343 0.9238795 1.6727624E-08
vn 4.371139E-08 1 -1.9106855E-15
vn 0.38268352 0.9238795 -1.6727627E-08
vn 0.70710677 0.70710677 -3.090862E-08
vn 0.9238796 0.38268328 -4.0384062E-08
vn 1 -8.742278E-08 -4.371139E-08
vn 0.9238795 -0.38268343 -4.0384055E-08
vn 0.70710665 -0.7071069 -3.0908613E-08
vn 0.38268313 -0.9238797 -1.6727611E-08
vn -1.1924881E-08 -1 5.2125306E-16
vn -0.3826836 -0.92387944 1.672763E-08
vn -0.707107 -0.70710653 3.090863E-08
vn -0.92387956 -0.38268343 4.038406E-08
vn -1 1.7484555E-07 4.371139E-08
vn -0.98078525 0 0.19509032
vn -0.9061274 0.38268346 0.18023995
vn -0.6935199 0.70710677 0.13794969
vn -0.37533027 0.9238795 0.074657835
vn 4.2871484E-08 1 -8.527669E-09
vn 0.37533036 0.9238795 -0.07465785
vn 0.6935199 0.70710677 -0.13794969
vn 0.9061275 0.38268328 -0.18023998
vn 0.98078525 -8.742278E-08 -0.19509032
vn 0.9061274 -0.38268343 -0.18023995
vn 0.6935198 -0.7071069 -0.13794966
vn 0.37532997 -0.9238797 -0.074657775
vn -1.16957475E-08 -1 2.3264288E-09
vn -0.37533045 -0.92387944 0.074657865
vn -0.6935201 -0.70710653 0.13794973
vn -0.90612745 -0.38268343 0.18023996
vn -0.98078525 1.7484555E-07 0.19509032
vn -0.9238795 0 0.38268352
vn -0.85355335 0.38268346 0.35355344
vn -0.65328145 0.70710677 0.2705981
vn -0.35355338 0.9238795 0.14644665
vn 4.0384055E-08 1 -1.6727627E-08
vn 0.35355344 0.9238795 -0.14644668
vn 0.65328145 0.70710677 -0.2705981
vn 0.8535535 0.38268328 -0.3535535
vn 0.9238795 -8.742278E-08 -0.38268352
vn 0.85355335 -0.38268343 -0.35355344
vn 0.65328133 -0.7071069 -0.27059805
vn 0.3535531 -0.9238797 -0.14644653
vn -1.10171525E-08 -1 4.5634554E-09
vn -0.35355353 -0.92387944 0.1464467
vn -0.6532817 -0.70710653 0.2705982
vn -0.8535534 -0.38268343 0.35355347
vn -0.9238795 1.7484555E-07 0.38268352
vn -0.83146954 0 0.55557036
vn -0.7681777 0.38268346 0.5132801
vn -0.5879377 0.70710677 0.39284757
vn -0.31818962 0.9238795 0.21260758
vn 3.6344687E-08 1 -2.4284752E-08
vn 0.31818968 0.9238795 -0.21260762
vn 0.5879377 0.70710677 -0.39284757
vn 0.76817775 0.38268328 -0.51328015
vn 0.83146954 -8.742278E-08 -0.55557036
vn 0.7681777 -0.38268343 -0.5132801
vn 0.58793765 -0.7071069 -0.3928475
vn 0.31818935 -0.9238797 -0.2126074
vn -9.915175E-09 -1 6.6251102E-09
vn -0.31818977 -0.92387944 0.21260767
vn -0.58793795 -0.70710653 0.3928477
vn -0.7681777 -0.38268343 0.5132801
vn -0.83146954 1.7484555E-07 0.55557036
vn -0.70710677 0 0.70710677
vn -0.65328145 0.38268346 0.65328145
vn -0.49999997 0.70710677 0.49999997
vn -0.27059805 0.9238795 0.27059805
vn 3.090862E-08 1 -3.090862E-08
vn 0.2705981 0.9238795 -0.2705981
vn 0.49999997 0.70710677 -0.49999997
vn 0.6532815 0.38268328 -0.6532815
vn 0.70710677 -8.742278E-08 -0.70710677
vn 0.65328145 -0.38268343 -0.65328145
vn 0.4999999 -0.7071069 -0.4999999
vn 0.27059782 -0.9238797 -0.27059782
vn -8.432163E-09 -1 8.432163E-09
vn -0.27059817 -0.92387944 0.27059817
vn -0.5000002 -0.70710653 0.5000002
vn -0.6532815 -0.38268343 0.6532815
vn -0.70710677 1.7484555E-07 0.70710677
vn -0.5555702 0 0.83146966
vn -0.5132799 0.38268346 0.76817775
vn -0.39284745 0.70710677 0.58793783
vn -0.2126075 0.9238795 0.31818965
vn 2.4284745E-08 1 -3.6344694E-08
vn 0.21260755 0.9238795 -0.31818974
vn 0.39284745 0.70710677 -0.58793783
vn 0.51328 0.38268328 -0.76817787
vn 0.5555702 -8.742278E-08 -0.83146966
vn 0.5132799 -0.38268343 -0.76817775
vn 0.39284736 -0.7071069 -0.5879377
vn 0.21260734 -0.9238797 -0.3181894
vn -6.625108E-09 -1 9.915176E-09
vn -0.2126076 -0.92387944 0.3181898
vn -0.39284757 -0.70710653 0.587938
vn -0.5132799 -0.38268343 0.7681778
vn -0.5555702 1.7484555E-07 0.83146966
vn -0.38268328 0 0.9238796
vn -0.35355324 0.38268346 0.8535535
vn -0.27059793 0.70710677 0.6532815
vn -0.14644654 0.9238795 0.3535534
vn 1.6727617E-08 1 -4.0384062E-08
vn 0.14644659 0.9238795 -0.3535535
vn 0.27059793 0.70710677 -0.6532815
vn 0.3535533 0.38268328 -0.85355353
vn 0.38268328 -8.742278E-08 -0.9238796
vn 0.35355324 -0.38268343 -0.8535535
vn 0.2705979 -0.7071069 -0.65328145
vn 0.14644644 -0.9238797 -0.35355315
vn -4.5634523E-09 -1 1.1017154E-08
vn -0.14644662 -0.92387944 0.3535536
vn -0.27059802 -0.70710653 0.65328175
vn -0.35355327 -0.38268343 0.8535535
vn -0.38268328 1.7484555E-07 0.9238796
vn -0.19509031 0 0.9807853
vn -0.18023993 0.38268346 0.90612745
vn -0.13794968 0.70710677 0.69351995
vn -0.07465783 0.9238795 0.37533027
vn 8.527668E-09 1 -4.2871488E-08
vn 0.07465784 0.9238795 -0.37533036
vn 0.13794968 0.70710677 -0.69351995
vn 0.18023996 0.38268328 -0.9061276
vn 0.19509031 -8.742278E-08 -0.9807853
vn 0.18023993 -0.38268343 -0.90612745
vn 0.13794966 -0.7071069 -0.69351983
vn 0.07465777 -0.9238797 -0.37533
vn -2.3264286E-09 -1 1.16957475E-08
vn -0.074657865 -0.92387944 0.37533045
vn -0.13794972 -0.70710653 0.6935202
vn -0.18023995 -0.38268343 0.9061275
vn -0.19509031 1.7484555E-07 0.9807853
vn 8.742278E-08 0 1
vn 8.076811E-08 0.38268346 0.9238795
vn 6.181724E-08 0.70710677 0.70710677
vn 3.3455247E-08 0.9238795 0.38268343
vn -3.821371E-15 1 -4.371139E-08
vn -3.3455255E-08 0.9238795 -0.38268352
vn -6.181724E-08 0.70710677 -0.70710677
vn -8.0768125E-08 0.38268328 -0.9238796
vn -8.742278E-08 -8.742278E-08 -1
vn -8.076811E-08 -0.38268343 -0.9238795
vn -6.1817225E-08 -0.7071069 -0.70710665
vn -3.3455223E-08 -0.9238797 -0.38268313
vn 1.0425061E-15 -1 1.1924881E-08
vn 3.345526E-08 -0.92387944 0.3826836
vn 6.181726E-08 -0.70710653 0.707107
vn 8.076812E-08 -0.38268343 0.92387956
vn 8.742278E-08 1.7484555E-07 1
vn 0.19509049 0 0.98078525
vn 0.18024011 0.38268346 0.9061274
vn 0.13794981 0.70710677 0.6935199
vn 0.074657895 0.9238795 0.37533027
vn -8.527676E-09 1 -4.2871484E-08
vn -0.07465792 0.9238795 -0.37533036
vn -0.13794981 0.70710677 -0.6935199
vn -0.18024012 0.38268328 -0.9061275
vn -0.19509049 -8.742278E-08 -0.98078525
vn -0.18024011 -0.38268343 -0.9061274
vn -0.13794978 -0.7071069 -0.6935198
vn -0.074657835 -0.9238797 -0.37532997
vn 2.3264308E-09 -1 1.16957475E-08
vn 0.07465793 -0.92387944 0.37533045
vn 0.13794985 -0.70710653 0.6935201
vn 0.18024011 -0.38268343 0.90612745
vn 0.19509049 1.7484555E-07 0.98078525
vn 0.38268343 0 0.9238795
vn 0.35355338 0.38268346 0.85355335
vn 0.27059805 0.70710677 0.65328145
vn 0.1464466 0.9238795 0.35355338
vn -1.6727624E-08 1 -4.0384055E-08
vn -0.14644665 0.9238795 -0.35355344
vn -0.27059805 0.70710677 -0.65328145
vn -0.3535534 0.38268328 -0.8535535
vn -0.38268343 -8.742278E-08 -0.9238795
vn -0.35355338 -0.38268343 -0.85355335
vn -0.270598 -0.7071069 -0.65328133
vn -0.1464465 -0.9238797 -0.3535531
vn 4.563454E-09 -1 1.10171525E-08
vn 0.14644668 -0.92387944 0.35355353
vn 0.27059814 -0.70710653 0.6532817
vn 0.35355338 -0.38268343 0.8535534
vn 0.38268343 1.7484555E-07 0.9238795
vn 0.5555703 0 0.83146954
vn 0.51328003 0.38268346 0.7681777
vn 0.3928475 0.70710677 0.5879377
vn 0.21260755 0.9238795 0.31818962
vn -2.4284748E-08 1 -3.6344687E-08
vn -0.21260759 0.9238795 -0.31818968
vn -0.3928475 0.70710677 -0.5879377
vn -0.5132801 0.38268328 -0.76817775
vn -0.5555703 -8.742278E-08 -0.83146954
vn -0.51328003 -0.38268343 -0.7681777
vn -0.39284745 -0.7071069 -0.58793765
vn -0.21260738 -0.9238797 -0.31818935
vn 6.6251094E-09 -1 9.915175E-09
vn 0.21260765 -0.92387944 0.31818977
vn 0.39284766 -0.70710653 0.58793795
vn 0.51328003 -0.38268343 0.7681777
vn 0.5555703 1.7484555E-07 0.83146954
vn 0.7071069 0 0.70710665
vn 0.65328157 0.38268346 0.65328133
vn 0.50000006 0.70710677 0.4999999
vn 0.27059808 0.9238795 0.270598
vn -3.0908623E-08 1 -3.0908613E-08
vn -0.27059814 0.9238795 -0.27059805
vn -0.50000006 0.70710677 -0.4999999
vn -0.6532816 0.38268328 -0.65328145
vn -0.7071069 -8.742278E-08 -0.70710665
vn -0.65328157 -0.38268343 -0.65328133
vn -0.49999997 -0.7071069 -0.49999982
vn -0.27059788 -0.9238797 -0.2705978
vn 8.432165E-09 -1 8.4321625E-09
vn 0.2705982 -0.92387944 0.2705981
vn 0.50000024 -0.70710653 0.50000006
vn 0.6532816 -0.38268343 0.6532814
vn 0.7071069 1.7484555E-07 0.70710665
vn 0.8314698 0 0.55557
vn 0.76817787 0.38268346 0.51327974
vn 0.5879379 0.70710677 0.3928473
vn 0.3181897 0.9238795 0.21260743
vn -3.6344698E-08 1 -2.4284736E-08
vn -0.31818977 0.9238795 -0.21260749
vn -0.5879379 0.70710677 -0.3928473
vn -0.768178 0.38268328 -0.5132798
vn -0.8314698 -8.742278E-08 -0.55557
vn -0.76817787 -0.38268343 -0.51327974
vn -0.58793783 -0.7071069 -0.39284724
vn -0.31818944 -0.9238797 -0.21260726
vn 9.915178E-09 -1 6.625106E-09
vn 0.31818986 -0.92387944 0.21260753
vn 0.58793813 -0.70710653 0.39284745
vn 0.7681779 -0.38268343 0.5132798
vn 0.8314698 1.7484555E-07 0.55557
vn 0.9238797 0 0.38268313
vn 0.8535535 0.38268346 0.3535531
vn 0.65328157 0.70710677 0.27059782
vn 0.35355344 0.9238795 0.1464465
vn -4.0384062E-08 1 -1.6727611E-08
vn -0.35355353 0.9238795 -0.14644653
vn -0.65328157 0.70710677 -0.27059782
vn -0.8535536 0.38268328 -0.35355315
vn -0.9238797 -8.742278E-08 -0.38268313
vn -0.8535535 -0.38268343 -0.3535531
vn -0.65328145 -0.7071069 -0.2705978
vn -0.35355318 -0.9238797 -0.14644638
vn 1.1017155E-08 -1 4.5634505E-09
vn 0.3535536 -0.92387944 0.14644656
vn 0.6532818 -0.70710653 0.27059793
vn 0.85355353 -0.38268343 0.35355312
vn 0.9238797 1.7484555E-07 0.38268313
vn 0.98078525 0 0.19509038
vn 0.9061274 0.38268346 0.18024
vn 0.6935199 0.70710677 0.13794973
vn 0.37533027 0.9238795 0.07465786
vn -4.2871484E-08 1 -8.527672E-09
vn -0.37533036 0.9238795 -0.07465787
vn -0.6935199 0.70710677 -0.13794973
vn -0.9061275 0.38268328 -0.18024004
vn -0.98078525 -8.742278E-08 -0.19509038
vn -0.9061274 -0.38268343 -0.18024
vn -0.6935198 -0.7071069 -0.1379497
vn -0.37532997 -0.9238797 -0.0746578
vn 1.16957475E-08 -1 2.3264295E-09
vn 0.37533045 -0.92387944 0.074657895
vn 0.6935201 -0.70710653 0.13794978
vn 0.90612745 -0.38268343 0.18024002
vn 0.98078525 1.7484555E-07 0.19509038
vn 1 0 -1.1924881E-08
vn 0.9238795 0.38268346 -1.10171525E-08
vn 0.70710677 0.70710677 -8.432163E-09
vn 0.38268343 0.9238795 -4.563454E-09
vn -4.371139E-08 1 5.2125306E-16
vn -0.38268352 0.9238795 4.5634554E-09
vn -0.70710677 0.70710677 8.432163E-09
vn -0.9238796 0.38268328 1.1017154E-08
vn -1 -8.742278E-08 1.1924881E-08
vn -0.9238795 -0.38268343 1.10171525E-08
vn -0.70710665 -0.7071069 8.4321625E-09
vn -0.38268313 -0.9238797 4.5634505E-09
vn 1.1924881E-08 -1 -1.4220278E-16
vn 0.3826836 -0.92387944 -4.5634563E-09
vn 0.707107 -0.70710653 -8.432167E-09
vn 0.92387956 -0.38268343 -1.1017153E-08
vn 1 1.7484555E-07 -1.1924881E-08
vn 0.98078525 0 -0.19509041
vn 0.9061274 0.38268346 -0.18024004
vn 0.6935199 0.70710677 -0.13794975
vn 0.37533027 0.9238795 -0.074657865
vn -4.2871484E-08 1 8.527673E-09
vn -0.37533036 0.9238795 0.07465789
vn -0.6935199 0.70710677 0.13794975
vn -0.9061275 0.38268328 0.18024005
vn -0.98078525 -8.742278E-08 0.19509041
vn -0.9061274 -0.38268343 0.18024004
vn -0.6935198 -0.7071069 0.13794973
vn -0.37532997 -0.9238797 0.07465781
vn 1.16957475E-08 -1 -2.32643E-09
vn 0.37533045 -0.92387944 -0.0746579
vn 0.6935201 -0.70710653 -0.1379498
vn 0.90612745 -0.38268343 -0.18024005
vn 0.98078525 1.7484555E-07 -0.19509041
vn 0.92387944 0 -0.3826836
vn 0.8535533 0.38268346 -0.35355353
vn 0.6532814 0.70710677 -0.27059817
vn 0.35355335 0.9238795 -0.14644668
vn -4.038405E-08 1 1.672763E-08
vn -0.35355344 0.9238795 0.1464467
vn -0.6532814 0.70710677 0.27059817
vn -0.8535534 0.38268328 0.3535536
vn -0.92387944 -8.742278E-08 0.3826836
vn -0.8535533 -0.38268343 0.35355353
vn -0.6532813 -0.7071069 0.2705981
vn -0.3535531 -0.9238797 0.14644656
vn 1.10171525E-08 -1 -4.5634563E-09
vn 0.3535535 -0.92387944 -0.14644673
vn 0.6532816 -0.70710653 -0.27059826
vn 0.85355335 -0.38268343 -0.35355356
vn 0.92387944 1.7484555E-07 -0.3826836
vn 0.8314695 0 -0.5555704
vn 0.7681776 0.38268346 -0.51328015
vn 0.5879377 0.70710677 -0.3928476
vn 0.3181896 0.9238795 -0.21260759
vn -3.6344684E-08 1 2.4284754E-08
vn -0.31818965 0.9238795 0.21260764
vn -0.5879377 0.70710677 0.3928476
vn -0.7681777 0.38268328 0.5132802
vn -0.8314695 -8.742278E-08 0.5555704
vn -0.7681776 -0.38268343 0.51328015
vn -0.5879376 -0.7071069 0.39284754
vn -0.31818935 -0.9238797 0.21260743
vn 9.9151745E-09 -1 -6.625111E-09
vn 0.31818974 -0.92387944 -0.2126077
vn 0.5879379 -0.70710653 -0.39284775
vn 0.7681776 -0.38268343 -0.51328015
vn 0.8314695 1.7484555E-07 -0.5555704
vn 0.70710653 0 -0.707107
vn 0.6532812 0.38268346 -0.6532817
vn 0.49999982 0.70710677 -0.5000002
vn 0.27059796 0.9238795 -0.27059814
vn -3.090861E-08 1 3.090863E-08
vn -0.27059802 0.9238795 0.2705982
vn -0.49999982 0.70710677 0.5000002
vn -0.65328133 0.38268328 0.65328175
vn -0.70710653 -8.742278E-08 0.707107
vn -0.6532812 -0.38268343 0.6532817
vn -0.49999973 -0.7071069 0.50000006
vn -0.27059773 -0.9238797 0.27059793
vn 8.432161E-09 -1 -8.432167E-09
vn 0.27059808 -0.92387944 -0.27059826
vn 0.49999997 -0.70710653 -0.5000003
vn 0.6532813 -0.38268343 -0.6532817
vn 0.70710653 1.7484555E-07 -0.707107
vn 0.5555703 0 -0.8314696
vn 0.51328003 0.38268346 -0.7681777
vn 0.3928475 0.70710677 -0.5879378
vn 0.21260755 0.9238795 -0.31818962
vn -2.4284748E-08 1 3.634469E-08
vn -0.21260759 0.9238795 0.3181897
vn -0.3928475 0.70710677 0.5879378
vn -0.5132801 0.38268328 0.7681778
vn -0.5555703 -8.742278E-08 0.8314696
vn -0.51328003 -0.38268343 0.7681777
vn -0.39284745 -0.7071069 0.58793765
vn -0.21260738 -0.9238797 0.31818938
vn 6.6251094E-09 -1 -9.915175E-09
vn 0.21260765 -0.92387944 -0.31818977
vn 0.39284766 -0.70710653 -0.58793795
vn 0.51328003 -0.38268343 -0.76817775
vn 0.5555703 1.7484555E-07 -0.8314696
vn 0.38268343 0 -0.92387956
vn 0.35355338 0.38268346 -0.8535534
vn 0.27059805 0.70710677 -0.6532815
vn 0.1464466 0.9238795 -0.35355338
vn -1.6727624E-08 1 4.038406E-08
vn -0.14644665 0.9238795 0.35355347
vn -0.27059805 0.70710677 0.6532815
vn -0.3535534 0.38268328 0.8535535
vn -0.38268343 -8.742278E-08 0.92387956
vn -0.35355338 -0.38268343 0.8535534
vn -0.270598 -0.7071069 0.6532814
vn -0.1464465 -0.9238797 0.35355312
vn 4.563454E-09 -1 -1.1017153E-08
vn 0.14644668 -0.92387944 -0.35355356
vn 0.27059814 -0.70710653 -0.6532817
vn 0.35355338 -0.38268343 -0.8535535
vn 0.38268343 1.7484555E-07 -0.92387956
vn 0.19509023 0 -0.9807853
vn 0.18023987 0.38268346 -0.90612745
vn 0.13794963 0.70710677 -0.69351995
vn 0.0746578 0.9238795 -0.37533027
vn -8.527665E-09 1 4.2871488E-08
vn -0.07465782 0.9238795 0.37533036
vn -0.13794963 0.70710677 0.69351995
vn -0.18023989 0.38268328 0.9061276
vn -0.19509023 -8.742278E-08 0.9807853
vn -0.18023987 -0.38268343 0.90612745
vn -0.1379496 -0.7071069 0.69351983
vn -0.07465774 -0.9238797 0.37533
vn 2.3264277E-09 -1 -1.16957475E-08
vn 0.074657835 -0.92387944 -0.37533045
vn 0.13794968 -0.70710653 -0.6935202
vn 0.18023989 -0.38268343 -0.9061275
vn 0.19509023 1.7484555E-07 -0.9807853
vn -1.7484555E-07 0 -1
vn -1.6153622E-07 0.38268346 -0.9238795
vn -1.2363448E-07 0.70710677 -0.70710677
vn -6.6910495E-08 0.9238795 -0.38268343
vn 7.642742E-15 1 4.371139E-08
vn 6.691051E-08 0.9238795 0.38268352
vn 1.2363448E-07 0.70710677 0.70710677
vn 1.6153625E-07 0.38268328 0.9238796
vn 1.7484555E-07 -8.742278E-08 1
vn 1.6153622E-07 -0.38268343 0.9238795
vn 1.2363445E-07 -0.7071069 0.70710665
vn 6.6910445E-08 -0.9238797 0.38268313
vn -2.0850123E-15 -1 -1.1924881E-08
vn -6.691052E-08 -0.92387944 -0.3826836
vn -1.2363452E-07 -0.70710653 -0.707107
vn -1.6153624E-07 -0.38268343 -0.92387956
vn -1.7484555E-07 1.7484555E-07 -1
f 19/19/19 2/2/2 1/1/1
f 18/18/18 19/19/19 1/1/1
f 20/20/20 3/3/3 2/2/2
f 19/19/19 20/20/20 2/2/2
f 21/21/21 4/4/4 3/3/3
f 20/20/20 21/21/21 3/3/3
f 22/22/22 5/5/5 4/4/4
f 21/21/21 22/22/22 4/4/4
f 23/23/23 6/6/6 5/5/5
f 22/22/22 23/23/23 5/5/5
f 24/24/24 7/7/7 6/6/6
f 23/23/23 24/24/24 6/6/6
f 25/25/25 8/8/8 7/7/7
f 24/24/24 25/25/25 7/7/7
f 26/26/26 9/9/9 8/8/8
f 25/25/25 26/26/26 8/8/8
f 27/27/27 10/10/10 9/9/9
f 26/26/26 27/27/27 9/9/9
f 28/28/28 11/11/11 10/10/10
f 27/27/27 28/28/28 10/10/10
f 29/29/29 12/12/12 11/11/11
f 28/28/28 29/29/29 11/11/11
f 30/30/30 13/13/13 12/12/12
f 29/29/29 30/30/30 12/12/12
f 31/31/31 14/14/14 13/13/13
f 30/30/30 31/31/31 13/13/13
f 32/32/32 15/15/15 14/14/14
f 31/31/31 32/32/32 14/14/14
f 33/33/33 16/16/16 15/15/15
f 32/32/32 33/33/33 15/15/15
f 34/34/34 17/17/17 16/16/16
f 33/33/33 34/34/34 16/16/16
f 36/36/36 19/19/19 18/18/18
f 35/35/35 36/36/36 18/18/18
f 37/37/37 20/20/20 19/19/19
f 36/36/36 37/37/37 19/19/19
f 38/38/38 21/21/21 20/20/20
f 37/37/37 38/38/38 20/20/20
f 39/39/39 22/22/22 21/21/21
f 38/38/38 39/39/39 21/21/21
f 40/40/40 23/23/23 22/22/22
f 39/39/39 40/40/40 22/22/22
f 41/41/41 24/24/24 23/23/23
f 40/40/40 41/41/41 23/23/23
f 42/42/42 25/25/25 24/24/24
f 41/41/41 42/42/42 24/24/24
f 43/43/43 26/26/26 25/25/25
f 42/42/42 43/43/43 25/25/25
f 44/44/44 27/27/27 26/26/26
f 43/43/43 44/44/44 26/26/26
f 45/45/45 28/28/28 27/27/27
f 44/44/44 45/45/45 27/27/27
f 46/46/46 29/29/29 28/28/28
f 45/45/45 46/46/46 28/28/28
f 47/47/47 30/30/30 29/29/29
f 46/46/46 47/47/47 29/29/29
f 48/48/48 31/31/31 30/30/30
f 47/47/47 48/48/48 30/30/30
f 49/49/49 32/32/32 31/31/31
f 48/48/48 49/49/49 31/31/31
f 50/50/50 33/33/33 32/32/32
f 49/49/49 50/50/50 32/32/32
f 51/51/51 34/34/34 33/33/33
f 50/50/50 51/51/51 33/33/33
f 53/53/53 36/36/36 35/35/35
f 52/52/52 53/53/53 35/35/35
f 54/54/54 37/37/37 36/36/36
f 53/53/53 54/54/54 36/36/36
f 55/55/55 38/38/38 37/37/37
f 54/54/54 55/55/55 37/37/37
f 56/56/56 39/39/39 38/38/38
f 55/55/55 56/56/56 38/38/38
f 57/57/57 40/40/40 39/39/39
f 56/56/56 57/57/57 39/39/39
f 58/58/58 41/41/41 40/40/40
f 57/57/57 58/58/58 40/40/40
f 59/59/59 42/42/42 41/41/41
f 58/58/58 59/59/59 41/41/41
f 60/60/60 43/43/43 42/42/42
f 59/59/59 60/60/60 42/42/42
f 61/61/61 44/44/44 43/43/43
f 60/60/60 61/61/61 43/43/43
f 62/62/62 45/45/45 44/44/44
f 61/61/61 62/62/62 44/44/44
f 63/63/63 46/46/46 45/45/45
f 62/62/62 63/63/63 45/45/45
f 64/64/64 47/47/47 46/46/46
f 63/63/63 64/64/64 46/46/46
f 65/65/65 48/48/48 47/47/47
f 64/64/64 65/65/65 47/47/47
f 66/66/66 49/49/49 48/48/48
f 65/65/65 66/66/66 48/48/48
f 67/67/67 50/50/50 49/49/49
f 66/66/66 67/67/67 49/49/49
f 68/68/68 51/51/51 50/50/50
f 67/67/67 68/68/68 50/50/50
f 70/70/70 53/53/53 52/52/52
f 69/69/69 70/70/70 52/52/52
f 71/71/71 54/54/54 53/53/53
f 70/70/70 71/71/71 53/53/53
f 72/72/72 55/55/55 54/54/54
f 71/71/71 72/72/72 54/54/54
f 73/73/73 56/56/56 55/55/55
f 72/72/72 73/73/73 55/55/55
f 74/74/74 57/57/57 56/56/56
f 73/73/73 74/74/74 56/56/56
f 75/75/75 58/58/58 57/57/57
f 74/74/74 75/75/75 57/57/57
f 76/76/76 59/59/59 58/58/58
f 75/75/75 76/76/76 58/58/58
f 77/77/77 60/60/60 59/59/59
f 76/76/76 77/77/77 59/59/59
f 78/78/78 61/61/61 60/60/60
f 77/77/77 78/78/78 60/60/60
f 79/79/79 62/62/62 61/61/61
f 78/78/78 79/79/79 61/61/61
f 80/80/80 63/63/63 62/62/62
f 79/79/79 80/80/80 62/62/62
f 81/81/81 64/64/64 63/63/63
f 80/80/80 81/81/81 63/63/63
f 82/82/82 65/65/65 64/64/64
f 81/81/81 82/82/82 64/64/64
f 83/83/83 66/66/66 65/65/65
f 82/82/82 83/83/83 65/65/65
f 84/84/84 67/67/67 66/66/66
f 83/83/83 84/84/84 66/66/66
f 85/85/85 68/68/68 67/67/67
f 84/84/84 85/85/85 67/67/67
f 87/87/87 70/70/70 69/69/69
f 86/86/86 87/87/87 69/69/69
f 88/88/88 71/71/71 70/70/70
f 87/87/87 88/88/88 70/70/70
f 89/89/89 72/72/72 71/71/71
f 88/88/88 89/89/89 71/71/71
f 90/90/90 73/73/73 72/72/72
f 89/89/89 90/90/90 72/72/72
f 91/91/91 74/74/74 73/73/73
f 90/90/90 91/91/91 73/73/73
f 92/92/92 75/75/75 74/74/74
f 91/91/91 92/92/92 74/74/74
f 93/93/93 76/76/76 75/75/75
f 92/92/92 93/93/93 75/75/75
f 94/94/94 77/77/77 76/76/76
f 93/93/93 94/94/94 76/76/76
f 95/95/95 78/78/78 77/77/77
f 94/94/94 95/95/95 77/77/77
f 96/96/96 79/79/79 78/78/78
f 95/95/95 96/96/96 78/78/78
f 97/97/97 80/80/80 79/79/79
f 96/96/96 97/97/97 79/79/79
f 98/98/98 81/81/81 80/80/80
f 97/97/97 98/98/98 80/80/80
f 99/99/99 82/82/82 81/81/81
f 98/98/98 99/99/99 81/81/81
f 100/100/100 83/83/83 82/82/82
f 99/99/99 100/100/100 82/82/82
f 101/101/101 84/84/84 83/83/83
f 100/100/100 101/101/101 83/83/83
f 102/102/102 85/85/85 84/84/84
f 101/101/101 102/102/102 84/84/84
f 104/104/104 87/87/87 86/86/86
f 103/103/103 104/104/104 86/86/86
f 105/105/105 88/88/88 87/87/87
f 104/104/104 105/105/105 87/87/87
f 106/106/106 89/89/89 88/88/88
f 105/105/105 106/106/106 88/88/88
f 107/107/107 90/90/90 89/89/89
f 106/106/106 107/107/107 89/89/89
f 108/108/108 91/91/91 90/90/90
f 107/107/107 108/108/108 90/90/90
f 109/109/109 92/92/92 91/91/91
f 108/108/108 109/109/109 91/91/91
f 110/110/110 93/93/93 92/92/92
f 109/109/109 110/110/110 92/92/92
f 111/111/111 94/94/94 93/93/93
f 110/110/110 111/111/111 93/93/93
f 112/112/112 95/95/95 94/94/94
f 111/111/111 112/112/112 94/94/94
f 113/113/113 96/96/96 95/95/95
f 112/112/112 113/113/113 95/95/95
f 114/114/114 97/97/97 96/96/96
f 113/113/113 114/114/114 96/96/96
f 115/115/115 98/98/98 97/97/97
f 114/114/114 115/115/115 97/97/97
f 116/116/116 99/99/99 98/98/98
f 115/115/115 116/116/116 98/98/98
f 117/117/117 100/100/100 99/99/99
f 116/116/116 117/117/117 99/99/99
f 118/118/118 101/101/101 100/100/100
f 117/117/117 118/118/118 100/100/100
f 119/119/119 102/102/102 101/101/101
f 118/118/118 119/119/119 101/101/101
f 121/121/121 104/104/104 103/103/103
f 120/120/120 121/121/121 103/103/103
f 122/122/122 105/105/105 104/104/104
f 121/121/121 122/122/122 104/104/104
f 123/123/123 106/106/106 105/105/105
f 122/122/122 123/123/123 105/105/105
f 124/124/124 107/107/107 106/106/106
f 123/123/123 124/124/124 106/106/106
f 125/125/125 108/108/108 107/107/107
f 124/124/124 125/125/125 107/107/107
f 126/126/126 109/109/109 108/108/108
f 125/125/125 126/126/126 108/108/108
f 127/127/127 110/110/110 109/109/109
f 126/126/126 127/127/127 109/109/109
f 128/128/128 111/111/111 110/110/110
f 127/127/127 128/128/128 110/110/110
f 129/129/129 112/112/112 111/111/111
f 128/128/128 129/129/129 111/111/111
f 130/130/130 113/113/113 112/112/112
f 129/129/129 130/130/130 112/112/112
f 131/131/131 114/114/114 113/113/113
f 130/130/130 131/131/131 113/113/113
f 132/132/132 115/115/115 114/114/114
f 131/131/131 132/132/132 114/114/114
f 133/133/133 116/116/116 115/115/115
f 132/132/132 133/133/133 115/115/115
f 134/134/134 117/117/117 116/116/116
f 133/133/133 134/134/134 116/116/116
f 135/135/135 118/118/118 117/117/117
f 134/134/134 135/135/135 117/117/117
f 136/136/136 119/119/119 118/118/118
f 135/135/135 136/136/136 118/118/118
f 138/138/138 121/121/121 120/120/120
f 137/137/137 138/138/138 120/120/120
f 139/139/139 122/122/122 121/121/121
f 138/138/138 139/139/139 121/121/121
f 140/140/140 123/123/123 122/122/122
f 139/139/139 140/140/140 122/122/122
f 141/141/141 124/124/124 123/123/123
f 140/140/140 141/141/141 123/123/123
f 142/142/142 125/125/125 124/124/124
f 141/141/141 142/142/142 124/124/124
f 143/143/143 126/126/126 125/125/125
f 142/142/142 143/143/143 125/125/125
f 144/144/144 127/127/127 126/126/126
f 143/143/143 144/144/144 126/126/126
f 145/145/145 128/128/128 127/127/127
f 144/144/144 145/145/145 127/127/127
f 146/146/146 129/129/129 128/128/128
f 145/145/145 146/146/146 128/128/128
f 147/147/147 130/130/130 129/129/129
f 146/146/146 147/147/147 129/129/129
f 148/148/148 131/131/131 130/130/130
f 147/147/147 148/148/148 130/130/130
f 149/149/149 132/132/132 131/131/131
f 148/148/148 149/149/149 131/131/131
f 150/150/150 133/133/133 132/132/132
f 149/149/149 150/150/150 132/132/132
f 151/151/151 134/134/134 133/133/133
f 150/150/150 151/151/151 133/133/133
f 152/152/152 135/135/135 134/134/134
f 151/151/151 152/152/152 134/134/134
f 153/153/153 136/136/136 135/135/135
f 152/152/152 153/153/153 135/135/135
f 155/155/155 138/138/138 137/137/137
f 154/154/154 155/155/155 137/137/137
f 156/156/156 139/139/139 138/138/138
f 155/155/155 156/156/156 138/138/138
f 157/157/157 140/140/140 139/139/139
f 156/156/156 157/157/157 139/139/139
f 158/158/158 141/141/141 140/140/140
f 157/157/157 158/158/158 140/140/140
f 159/159/159 142/142/142 141/141/141
f 158/158/158 159/159/159 141/141/141
f 160/160/160 143/143/143 142/142/142
f 159/159/159 160/160/160 142/142/142
f 161/161/161 144/144/144 143/143/143
f 160/160/160 161/161/161 143/143/143
f 162/162/162 145/145/145 144/144/144
f 161/161/161 162/162/162 144/144/144
f 163/163/163 146/146/146 145/145/145
f 162/162/162 163/163/163 145/145/145
f 164/164/164 147/147/147 146/146/146
f 163/163/163 164/164/164 146/146/146
f 165/165/165 148/148/148 147/147/147
f 164/164/164 165/165/165 147/147/147
f 166/166/166 149/149/149 148/148/148
f 165/165/165 166/166/166 148/148/148
f 167/167/167 150/150/150 149/149/149
f 166/166/166 167/167/167 149/149/149
f 168/168/168 151/151/151 150/150/150
f 167/167/167 168/168/168 150/150/150
f 169/169/169 152/152/152 151/151/151
f 168/168/168 169/169/169 151/151/151
f 170/170/170 153/153/153 152/152/152
f 169/169/169 170/170/170 152/152/152
f 172/172/172 155/155/155 154/154/154
f 171/171/171 172/172/172 154/154/154
f 173/173/173 156/156/156 155/155/155
f 172/172/172 173/173/173 155/155/155
f 174/174/174 157/157/157 156/156/156
f 173/173/173 174/174/174 156/156/156
f 175/175/175 158/158/158 157/157/157
f 174/174/174 175/175/175 157/157/157
f 176/176/176 159/159/159 158/158/158
f 175/175/175 176/176/176 158/158/158
f 177/177/177 160/160/160 159/159/159
f 176/176/176 177/177/177 159/159/159
f 178/178/178 161/161/161 160/160/160
f 177/177/177 178/178/178 160/160/160
f 179/179/179 162/162/162 161/161/161
f 178/178/178 179/179/179 161/161/161
f 180/180/180 163/163/163 162/162/162
f 179/179/179 180/180/180 162/162/162
f 181/181/181 164/164/164 163/163/163
f 180/180/180 181/181/181 163/163/163
f 182/182/182 165/165/165 164/164/164
f 181/181/181 182/182/182 164/164/164
f 183/183/183 166/166/166 165/165/165
f 182/182/182 183/183/183 165/165/165
f 184/184/184 167/167/167 166/166/166
f 183/183/183 184/184/184 166/166/166
f 185/185/185 168/168/168 167/167/167
f 184/184/184 185/185/185 167/167/167
f 186/186/186 169/169/169 168/168/168
f 185/185/185 186/186/186 168/168/168
f 187/187/187 170/170/170 169/169/169
f 186/186/186 187/187/187 169/169/169
f 189/189/189 172/172/172 171/171/171
f 188/188/188 189/189/189 171/171/171
f 190/190/190 173/173/173 172/172/172
f 189/189/189 190/190/190 172/172/172
f 191/191/191 174/174/174 173/173/173
f 190/190/190 191/191/191 173/173/173
f 192/192/192 175/175/175 174/174/174
f 191/191/191 192/192/192 174/174/174
f 193/193/193 176/176/176 175/175/175
f 192/192/192 193/193/193 175/175/175
f 194/194/194 177/177/177 176/176/176
f 193/193/193 194/194/194 176/176/176
f 195/195/195 178/178/178 177/177/177
f 194/194/194 195/195/195 177/177/177
f 196/196/196 179/179/179 178/178/178
f 195/195/195 196/196/196 178/178/178
f 197/197/197 180/180/180 179/179/179
f 196/196/196 197/197/197 179/179/179
f 198/198/198 181/181/181 180/180/180
f 197/197/197 198/198/198 180/180/180
f 199/199/199 182/182/182 181/181/181
f 198/198/198 199/199/199 181/181/181
f 200/200/200 183/183/183 182/182/182
f 199/199/199 200/200/200 182/182/182
f 201/201/201 184/184/184 183/183/183
f 200/200/200 201/201/201 183/183/183
f 202/202/202 185/185/185 184/184/184
f 201/201/201 202/202/202 184/184/184
f 203/203/203 186/186/186 185/185/185
f 202/202/202 203/203/203 185/185/185
f 204/204/204 187/187/187 186/186/186
f 203/203/203 204/204/204 186/186/186
f 206/206/206 189/189/189 188/188/188
f 205/205/205 206/206/206 188/188/188
f 207/207/207 190/190/190 189/189/189
f 206/206/206 207/207/207 189/189/189
f 208/208/208 191/191/191 190/190/190
f 207/207/207 208/208/208 190/190/190
f 209/209/209 192/192/192 191/191/191
f 208/208/208 209/209/209 191/191/191
f 210/210/210 193/193/193 192/192/192
f 209/209/209 210/210/210 192/192/192
f 211/211/211 194/194/194 193/193/193
f 210/210/210 211/211/211 193/193/193
f 212/212/212 195/195/195 194/194/194
f 211/211/211 212/212/212 194/194/194
f 213/213/213 196/196/196 195/195/195
f 212/212/212 213/213/213 195/195/195
f 214/214/214 197/197/197 196/196/196
f 213/213/213 214/214/214 196/196/196
f 215/215/215 198/198/198 197/197/197
f 214/214/214 215/215/215 197/197/197
f 216/216/216 199/199/199 198/198/198
f 215/215/215 216/216/216 198/198/198
f 217/217/217 200/200/200 199/199/199
f 216/216/216 217/217/217 199/199/199
f 218/218/218 201/201/201 200/200/200
f 217/217/217 218/218/218 200/200/200
f 219/219/219 202/202/202 201/201/201
f 218/218/218 219/219/219 201/201/201
f 220/220/220 203/203/203 202/202/202
f 219/219/219 220/220/220 202/202/202
f 221/221/221 204/204/204 203/203/203
f 220/220/220 221/221/221 203/203/203
f 223/223/223 206/206/206 205/205/205
f 222/222/222 223/223/223 205/205/205
f 224/224/224 207/207/207 206/206/206
f 223/223/223 224/224/224 206/206/206
f 225/225/225 208/208/208 207/207/207
f 224/224/224 225/225/225 207/207/207
f 226/226/226 209/209/209 208/208/208
f 225/225/225 226/226/226 208/208/208
f 227/227/227 210/210/210 209/209/209
f 226/226/226 227/227/227 209/209/209
f 228/228/228 211/211/211 210/210/210
f 227/227/227 228/228/228 210/210/210
f 229/229/229 212/212/212 211/211/211
f 228/228/228 229/229/229 211/211/211
f 230/230/230 213/213/213 212/212/212
f 229/229/229 230/230/230 212/212/212
f 231/231/231 214/214/214 213/213/213
f 230/230/230 231/231/231 213/213/213
f 232/232/232 215/215/215 214/214/214
f 231/231/231 232/232/232 214/214/214
f 233/233/233 216/216/216 215/215/215
f 232/232/232 233/233/233 215/215/215
f 234/234/234 217/217/217 216/216/216
f 233/233/233 234/234/234 216/216/216
f 235/235/235 218/218/218 217/217/217
f 234/234/234 235/235/235 217/217/217
f 236/236/236 219/219/219 218/218/218
f 235/235/235 236/236/236 218/218/218
f 237/237/237 220/220/220 219/219/219
f 236/236/236 237/237/237 219/219/219
f 238/238/238 221/221/221 220/220/220
f 237/237/237 238/238/238 220/220/220
f 240/240/240 223/223/223 222/222/222
f 239/239/239 240/240/240 222/222/222
f 241/241/241 224/224/224 223/223/223
f 240/240/240 241/241/241 223/223/223
f 242/242/242 225/225/225 224/224/224
f 241/241/241 242/242/242 224/224/224
f 243/243/243 226/226/226 225/225/225
f 242/242/242 243/243/243 225/225/225
f 244/244/244 227/227/227 226/226/226
f 243/243/243 244/244/244 226/226/226
f 245/245/245 228/228/228 227/227/227
f 244/244/244 245/245/245 227/227/227
f 246/246/246 229/229/229 228/228/228
f 245/245/245 246/246/246 228/228/228
f 247/247/247 230/230/230 229/229/229
f 246/246/246 247/247/247 229/229/229
f 248/248/248 231/231/231 230/230/230
f 247/247/247 248/248/248 230/230/230
f 249/249/249 232/232/232 231/231/231
f 248/248/248 249/249/249 231/231/231
f 250/250/250 233/233/233 232/232/232
f 249/249/249 250/250/250 232/232/232
f 251/251/251 234/234/234 233/233/233
f 250/250/250 251/251/251 233/233/233
f 252/252/252 235/235/235 234/234/234
f 251/251/251 252/252/252 234/234/234
f 253/253/253 236/236/236 235/235/235
f 252/252/252 253/253/253 235/235/235
f 254/254/254 237/237/237 236/236/236
f 253/253/253 254/254/254 236/236/236
f 255/255/255 238/238/238 237/237/237
f 254/254/254 255/255/255 237/237/237
f 257/257/257 240/240/240 239/239/239
f 256/256/256 257/257/257 239/239/239
f 258/258/258 241/241/241 240/240/240
f 257/257/257 258/258/258 240/240/240
f 259/259/259 242/242/242 241/241/241
f 258/258/258 259/259/259 241/241/241
f 260/260/260 243/243/243 242/242/242
f 259/259/259 260/260/260 242/242/242
f 261/261/261 244/244/244 243/243/243
f 260/260/260 261/261/261 243/243/243
f 262/262/262 245/245/245 244/244/244
f 261/261/261 262/262/262 244/244/244
f 263/263/263 246/246/246 245/245/245
f 262/262/262 263/263/263 245/245/245
f 264/264/264 247/247/247 246/246/246
f 263/263/263 264/264/264 246/246/246
f 265/265/265 248/248/248 247/247/247
f 264/264/264 265/265/265 247/247/247
f 266/266/266 249/249/249 248/248/248
f 265/265/265 266/266/266 248/248/248
f 267/267/267 250/250/250 249/249/249
f 266/266/266 267/267/267 249/249/249
f 268/268/268 251/251/251 250/250/250
f 267/267/267 268/268/268 250/250/250
f 269/269/269 252/252/252 251/251/251
f 268/268/268 269/269/269 251/251/251
f 270/270/270 253/253/253 252/252/252
f 269/269/269 270/270/270 252/252/252
f 271/271/271 254/254/254 253/253/253
f 270/270/270 271/271/271 253/253/253
f 272/272/272 255/255/255 254/254/254
f 271/271/271 272/272/272 254/254/254
f 274/274/274 257/257/257 256/256/256
f 273/273/273 274/274/274 256/256/256
f 275/275/275 258/258/258 257/257/257
f 274/274/274 275/275/275 257/257/257
f 276/276/276 259/259/259 258/258/258
f 275/275/275 276/276/276 258/258/258
f 277/277/277 260/260/260 259/259/259
f 276/276/276 277/277/277 259/259/259
f 278/278/278 261/261/261 260/260/260
f 277/277/277 278/278/278 260/260/260
f 279/279/279 262/262/262 261/261/261
f 278/278/278 279/279/279 261/261/261
f 280/280/280 263/263/263 262/262/262
f 279/279/279 280/280/280 262/262/262
f 281/281/281 264/264/264 263/263/263
f 280/280/280 281/281/281 263/263/263
f 282/282/282 265/265/265 264/264/264
f 281/281/281 282/282/282 264/264/264
f 283/283/283 266/266/266 265/265/265
f 282/282/282 283/283/283 265/265/265
f 284/284/284 267/267/267 266/266/266
f 283/283/283 284/284/284 266/266/266
f 285/285/285 268/268/268 267/267/267
f 284/284/284 285/285/285 267/267/267
f 286/286/286 269/269/269 268/268/268
f 285/285/285 286/286/286 268/268/268
f 287/287/287 270/270/270 269/269/269
f 286/286/286 287/287/287 269/269/269
f 288/288/288 271/271/271 270/270/270
f 287/287/287 288/288/288 270/270/270
f 289/289/289 272/272/272 271/271/271
f 288/288/288 289/289/289 271/271/271
f 291/291/291 274/274/274 273/273/273
f 290/290/290 291/291/291 273/273/273
f 292/292/292 275/275/275 274/274/274
f 291/291/291 292/292/292 274/274/274
f 293/293/293 276/276/276 275/275/275
f 292/292/292 293/293/293 275/275/275
f 294/294/294 277/277/277 276/276/276
f 293/293/293 294/294/294 276/276/276
f 295/295/295 278/278/278 277/277/277
f 294/294/294 295/295/295 277/277/277
f 296/296/296 279/279/279 278/278/278
f 295/295/295 296/296/296 278/278/278
f 297/297/297 280/280/280 279/279/279
f 296/296/296 297/297/297 279/279/279
f 298/298/298 281/281/281 280/280/280
f 297/297/297 298/298/298 280/280/280
f 299/299/299 282/282/282 281/281/281
f 298/298/298 299/299/299 281/281/281
f 300/300/300 283/283/283 282/282/282
f 299/299/299 300/300/300 282/282/282
f 301/301/301 284/284/284 283/283/283
f 300/300/300 301/301/301 283/283/283
f 302/302/302 285/285/285 284/284/284
f 301/301/301 302/302/302 284/284/284
f 303/303/303 286/286/286 285/285/285
f 302/302/302 303/303/303 285/285/285
f 304/304/304 287/287/287 286/286/286
f 303/303/303 304/304/304 286/286/286
f 305/305/305 288/288/288 287/287/287
f 304/304/304 305/305/305 287/287/287
f 306/306/306 289/289/289 288/288/288
f 305/305/305 306/306/306 288/288/288
f 308/308/308 291/291/291 290/290/290
f 307/307/307 308/308/308 290/290/290
f 309/309/309 292/292/292 291/291/291
f 308/308/308 309/309/309 291/291/291
f 310/310/310 293/293/293 292/292/292
f 309/309/309 310/310/310 292/292/292
f 311/311/311 294/294/294 293/293/293
f 310/310/310 311/311/311 293/293/293
f 312/312/312 295/295/295 294/294/294
f 311/311/311 312/312/312 294/294/294
f 313/313/313 296/296/296 295/295/295
f 312/312/312 313/313/313 295/295/295
f 314/314/314 297/297/297 296/296/296
f 313/313/313 314/314/314 296/296/296
f 315/315/315 298/298/298 297/297/297
f 314/314/314 315/315/315 297/297/297
f 316/316/316 299/299/299 298/298/298
f 315/315/315 316/316/316 298/298/298
f 317/317/317 300/300/300 299/299/299
f 316/316/316 317/317/317 299/299/299
f 318/318/318 301/301/301 300/300/300
f 317/317/317 318/318/318 300/300/300
f 319/319/319 302/302/302 301/301/301
f 318/318/318 319/319/319 301/301/301
f 320/320/320 303/303/303 302/302/302
f 319/319/319 320/320/320 302/302/302
f 321/321/321 304/304/304 303/303/303
f 320/320/320 321/321/321 303/303/303
f 322/322/322 305/305/305 304/304/304
f 321/321/321 322/322/322 304/304/304
f 323/323/323 306/306/306 305/305/305
f 322/322/322 323/323/323 305/305/305
f 325/325/325 308/308/308 307/307/307
f 324/324/324 325/325/325 307/307/307
f 326/326/326 309/309/309 308/308/308
f 325/325/325 326/326/326 308/308/308
f 327/327/327 310/310/310 309/309/309
f 326/326/326 327/327/327 309/309/309
f 328/328/328 311/311/311 310/310/310
f 327/327/327 328/328/328 310/310/310
f 329/329/329 312/312/312 311/311/311
f 328/328/328 329/329/329 311/311/311
f 330/330/330 313/313/313 312/312/312
f 329/329/329 330/330/330 312/312/312
f 331/331/331 314/314/314 313/313/313
f 330/330/330 331/331/331 313/313/313
f 332/332/332 315/315/315 314/314/314
f 331/331/331 332/332/332 314/314/314
f 333/333/333 316/316/316 315/315/315
f 332/332/332 333/333/333 315/315/315
f 334/334/334 317/317/317 316/316/316
f 333/333/333 334/334/334 316/316/316
f 335/335/335 318/318/318 317/317/317
f 334/334/334 335/335/335 317/317/317
f 336/336/336 319/319/319 318/318/318
f 335/335/335 336/336/336 318/318/318
f 337/337/337 320/320/320 319/319/319
f 336/336/336 337/337/337 319/319/319
f 338/338/338 321/321/321 320/320/320
f 337/337/337 338/338/338 320/320/320
f 339/339/339 322/322/322 321/321/321
f 338/338/338 339/339/339 321/321/321
f 340/340/340 323/323/323 322/322/322
f 339/339/339 340/340/340 322/322/322
f 342/342/342 325/325/325 324/324/324
f 341/341/341 342/342/342 324/324/324
f 343/343/343 326/326/326 325/325/325
f 342/342/342 343/343/343 325/325/325
f 344/344/344 327/327/327 326/326/326
f 343/343/343 344/344/344 326/326/326
f 345/345/345 328/328/328 327/327/327
f 344/344/344 345/345/345 327/327/327
f 346/346/346 329/329/329 328/328/328
f 345/345/345 346/346/346 328/328/328
f 347/347/347 330/330/330 329/329/329
f 346/346/346 347/347/347 329/329/329
f 348/348/348 331/331/331 330/330/330
f 347/347/347 348/348/348 330/330/330
f 349/349/349 332/332/332 331/331/331
f 348/348/348 349/349/349 331/331/331
f 350/350/350 333/333/333 332/332/332
f 349/349/349 350/350/350 332/332/332
f 351/351/351 334/334/334 333/333/333
f 350/350/350 351/351/351 333/333/333
f 352/352/352 335/335/335 334/334/334
f 351/351/351 352/352/352 334/334/334
f 353/353/353 336/336/336 335/335/335
f 352/352/352 353/353/353 335/335/335
f 354/354/354 337/337/337 336/336/336
f 353/353/353 354/354/354 336/336/336
f 355/355/355 338/338/338 337/337/337
f 354/354/354 355/355/355 337/337/337
f 356/356/356 339/339/339 338/338/338
f 355/355/355 356/356/356 338/338/338
f 357/357/357 340/340/340 339/339/339
f 356/356/356 357/357/357 339/339/339
f 359/359/359 342/342/342 341/341/341
f 358/358/358 359/359/359 341/341/341
f 360/360/360 343/343/343 342/342/342
f 359/359/359 360/360/360 342/342/342
f 361/361/361 344/344/344 343/343/343
f 360/360/360 361/361/361 343/343/343
f 362/362/362 345/345/345 344/344/344
f 361/361/361 362/362/362 344/344/344
f 363/363/363 346/346/346 345/345/345
f 362/362/362 363/363/363 345/345/345
f 364/364/364 347/347/347 346/346/346
f 363/363/363 364/364/364 346/346/346
f 365/365/365 348/348/348 347/347/347
f 364/364/364 365/365/365 347/347/347
f 366/366/366 349/349/349 348/348/348
f 365/365/365 366/366/366 348/348/348
f 367/367/367 350/350/350 349/349/349
f 366/366/366 367/367/367 349/349/349
f 368/368/368 351/351/351 350/350/350
f 367/367/367 368/368/368 350/350/350
f 369/369/369 352/352/352 351/351/351
f 368/368/368 369/369/369 351/351/351
f 370/370/370 353/353/353 352/352/352
f 369/369/369 370/370/370 352/352/352
f 371/371/371 354/354/354 353/353/353
f 370/370/370 371/371/371 353/353/353
f 372/372/372 355/355/355 354/354/354
f 371/371/371 372/372/372 354/354/354
f 373/373/373 356/356/356 355/355/355
f 372/372/372 373/373/373 355/355/355
f 374/374/374 357/357/357 356/356/356
f 373/373/373 374/374/374 356/356/356
f 376/376/376 359/359/359 358/358/358
f 375/375/375 376/376/376 358/358/358
f 377/377/377 360/360/360 359/359/359
f 376/376/376 377/377/377 359/359/359
f 378/378/378 361/361/361 360/360/360
f 377/377/377 378/378/378 360/360/360
f 379/379/379 362/362/362 361/361/361
f 378/378/378 379/379/379 361/361/361
f 380/380/380 363/363/363 362/362/362
f 379/379/379 380/380/380 362/362/362
f 381/381/381 364/364/364 363/363/363
f 380/380/380 381/381/381 363/363/363
f 382/382/382 365/365/365 364/364/364
f 381/381/381 382/382/382 364/364/364
f 383/383/383 366/366/366 365/365/365
f 382/382/382 383/383/383 365/365/365
f 384/384/384 367/367/367 366/366/366
f 383/383/383 384/384/384 366/366/366
f 385/385/385 368/368/368 367/367/367
f 384/384/384 385/385/385 367/367/367
f 386/386/386 369/369/369 368/368/368
f 385/385/385 386/386/386 368/368/368
f 387/387/387 370/370/370 369/369/369
f 386/386/386 387/387/387 369/369/369
f 388/388/388 371/371/371 370/370/370
f 387/387/387 388/388/388 370/370/370
f 389/389/389 372/372/372 371/371/371
f 388/388/388 389/389/389 371/371/371
f 390/390/390 373/373/373 372/372/372
f 389/389/389 390/390/390 372/372/372
f 391/391/391 374/374/374 373/373/373
f 390/390/390 391/391/391 373/373/373
f 393/393/393 376/376/376 375/375/375
f 392/392/392 393/393/393 375/375/375
f 394/394/394 377/377/377 376/376/376
f 393/393/393 394/394/394 376/376/376
f 395/395/395 378/378/378 377/377/377
f 394/394/394 395/395/395 377/377/377
f 396/396/396 379/379/379 378/378/378
f 395/395/395 396/396/396 378/378/378
f 397/397/397 380/380/380 379/379/379
f 396/396/396 397/397/397 379/379/379
f 398/398/398 381/381/381 380/380/380
f 397/397/397 398/398/398 380/380/380
f 399/399/399 382/382/382 381/381/381
f 398/398/398 399/399/399 381/381/381
f 400/400/400 383/383/383 382/382/382
f 399/399/399 400/400/400 382/382/382
f 401/401/401 384/384/384 383/383/383
f 400/400/400 401/401/401 383/383/383
f 402/402/402 385/385/385 384/384/384
f 401/401/401 402/402/402 384/384/384
f 403/403/403 386/386/386 385/385/385
f 402/402/402 403/403/403 385/385/385
f 404/404/404 387/387/387 386/386/386
f 403/403/403 404/404/404 386/386/386
f 405/405/405 388/388/388 387/387/387
f 404/404/404 405/405/405 387/387/387
f 406/406/406 389/389/389 388/388/388
f 405/405/405 406/406/406 388/388/388
f 407/407/407 390/390/390 389/389/389
f 406/406/406 407/407/407 389/389/389
f 408/408/408 391/391/391 390/390/390
f 407/407/407 408/408/408 390/390/390
f 410/410/410 393/393/393 392/392/392
f 409/409/409 410/410/410 392/392/392
f 411/411/411 394/394/394 393/393/393
f 410/410/410 411/411/411 393/393/393
f 412/412/412 395/395/395 394/394/394
f 411/411/411 412/412/412 394/394/394
f 413/413/413 396/396/396 395/395/395
f 412/412/412 413/413/413 395/395/395
f 414/414/414 397/397/397 396/396/396
f 413/413/413 414/414/414 396/396/396
f 415/415/415 398/398/398 397/397/397
f 414/414/414 415/415/415 397/397/397
f 416/416/416 399/399/399 398/398/398
f 415/415/415 416/416/416 398/398/398
f 417/417/417 400/400/400 399/399/399
f 416/416/416 417/417/417 399/399/399
f 418/418/418 401/401/401 400/400/400
f 417/417/417 418/418/418 400/400/400
f 419/419/419 402/402/402 401/401/401
f 418/418/418 419/419/419 401/401/401
f 420/420/420 403/403/403 402/402/402
f 419/419/419 420/420/420 402/402/402
f 421/421/421 404/404/404 403/403/403
f 420/420/420 421/421/421 403/403/403
f 422/422/422 405/405/405 404/404/404
f 421/421/421 422/422/422 404/404/404
f 423/423/423 406/406/406 405/405/405
f 422/422/422 423/423/423 405/405/405
f 424/424/424 407/407/407 406/406/406
f 423/423/423 424/424/424 406/406/406
f 425/425/425 408/408/408 407/407/407
f 424/424/424 425/425/425 407/407/407
f 427/427/427 410/410/410 409/409/409
f 426/426/426 427/427/427 409/409/409
f 428/428/428 411/411/411 410/410/410
f 427/427/427 428/428/428 410/410/410
f 429/429/429 412/412/412 411/411/411
f 428/428/428 429/429/429 411/411/411
f 430/430/430 413/413/413 412/412/412
f 429/429/429 430/430/430 412/412/412
f 431/431/431 414/414/414 413/413/413
f 430/430/430 431/431/431 413/413/413
f 432/432/432 415/415/415 414/414/414
f 431/431/431 432/432/432 414/414/414
f 433/433/433 416/416/416 415/415/415
f 432/432/432 433/433/433 415/415/415
f 434/434/434 417/417/417 416/416/416
f 433/433/433 434/434/434 416/416/416
f 435/435/435 418/418/418 417/417/417
f 434/434/434 435/435/435 417/417/417
f 436/436/436 419/419/419 418/418/418
f 435/435/435 436/436/436 418/418/418
f 437/437/437 420/420/420 419/419/419
f 436/436/436 437/437/437 419/419/419
f 438/438/438 421/421/421 420/420/420
f 437/437/437 438/438/438 420/420/420
f 439/439/439 422/422/422 421/421/421
f 438/438/438 439/439/439 421/421/421
f 440/440/440 423/423/423 422/422/422
f 439/439/439 440/440/440 422/422/422
f 441/441/441 424/424/424 423/423/423
f 440/440/440 441/441/441 423/423/423
f 442/442/442 425/425/425 424/424/424
f 441/441/441 442/442/442 424/424/424
f 444/444/444 427/427/427 426/426/426
f 443/443/443 444/444/444 426/426/426
f 445/445/445 428/428/428 427/427/427
f 444/444/444 445/445/445 427/427/427
f 446/446/446 429/429/429 428/428/428
f 445/445/445 446/446/446 428/428/428
f 447/447/447 430/430/430 429/429/429
f 446/446/446 447/447/447 429/429/429
f 448/448/448 431/431/431 430/430/430
f 447/447/447 448/448/448 430/430/430
f 449/449/449 432/432/432 431/431/431
f 448/448/448 449/449/449 431/431/431
f 450/450/450 433/433/433 432/432/432
f 449/449/449 450/450/450 432/432/432
f 451/451/451 434/434/434 433/433/433
f 450/450/450 451/451/451 433/433/433
f 452/452/452 435/435/435 434/434/434
f 451/451/451 452/452/452 434/434/434
f 453/453/453 436/436/436 435/435/435
f 452/452/452 453/453/453 435/435/435
f 454/454/454 437/437/437 436/436/436
f 453/453/453 454/454/454 436/436/436
f 455/455/455 438/438/438 437/437/437
f 454/454/454 455/455/455 437/437/437
f 456/456/456 439/439/439 438/438/438
f 455/455/455 456/456/456 438/438/438
f 457/457/457 440/440/440 439/439/439
f 456/456/456 457/457/457 439/439/439
f 458/458/458 441/441/441 440/440/440
f 457/457/457 458/458/458 440/440/440
f 459/459/459 442/442/442 441/441/441
f 458/458/458 459/459/459 441/441/441
f 461/461/461 444/444/444 443/443/443
f 460/460/460 461/461/461 443/443/443
f 462/462/462 445/445/445 444/444/444
f 461/461/461 462/462/462 444/444/444
f 463/463/463 446/446/446 445/445/445
f 462/462/462 463/463/463 445/445/445
f 464/464/464 447/447/447 446/446/446
f 463/463/463 464/464/464 446/446/446
f 465/465/465 448/448/448 447/447/447
f 464/464/464 465/465/465 447/447/447
f 466/466/466 449/449/449 448/448/448
f 465/465/465 466/466/466 448/448/448
f 467/467/467 450/450/450 449/449/449
f 466/466/466 467/467/467 449/449/449
f 468/468/468 451/451/451 450/450/450
f 467/467/467 468/468/468 450/450/450
f 469/469/469 452/452/452 451/451/451
f 468/468/468 469/469/469 451/451/451
f 470/470/470 453/453/453 452/452/452
f 469/469/469 470/470/470 452/452/452
f 471/471/471 454/454/454 453/453/453
f 470/470/470 471/471/471 453/453/453
f 472/472/472 455/455/455 454/454/454
f 471/471/471 472/472/472 454/454/454
f 473/473/473 456/456/456 455/455/455
f 472/472/472 473/473/473 455/455/455
f 474/474/474 457/457/457 456/456/456
f 473/473/473 474/474/474 456/456/456
f 475/475/475 458/458/458 457/457/457
f 474/474/474 475/475/475 457/457/457
f 476/476/476 459/459/459 458/458/458
f 475/475/475 476/476/476 458/458/458
f 478/478/478 461/461/461 460/460/460
f 477/477/477 478/478/478 460/460/460
f 479/479/479 462/462/462 461/461/461
f 478/478/478 479/479/479 461/461/461
f 480/480/480 463/463/463 462/462/462
f 479/479/479 480/480/480 462/462/462
f 481/481/481 464/464/464 463/463/463
f 480/480/480 481/481/481 463/463/463
f 482/482/482 465/465/465 464/464/464
f 481/481/481 482/482/482 464/464/464
f 483/483/483 466/466/466 465/465/465
f 482/482/482 483/483/483 465/465/465
f 484/484/484 467/467/467 466/466/466
f 483/483/483 484/484/484 466/466/466
f 485/485/485 468/468/468 467/467/467
f 484/484/484 485/485/485 467/467/467
f 486/486/486 469/469/469 468/468/468
f 485/485/485 486/486/486 468/468/468
f 487/487/487 470/470/470 469/469/469
f 486/486/486 487/487/487 469/469/469
f 488/488/488 471/471/471 470/470/470
f 487/487/487 488/488/488 470/470/470
f 489/489/489 472/472/472 471/471/471
f 488/488/488 489/489/489 471/471/471
f 490/490/490 473/473/473 472/472/472
f 489/489/489 490/490/490 472/472/472
f 491/491/491 474/474/474 473/473/473
f 490/490/490 491/491/491 473/473/473
f 492/492/492 475/475/475 474/474/474
f 491/491/491 492/492/492 474/474/474
f 493/493/493 476/476/476 475/475/475
f 492/492/492 493/493/493 475/475/475
f 495/495/495 478/478/478 477/477/477
f 494/494/494 495/495/495 477/477/477
f 496/496/496 479/479/479 478/478/478
f 495/495/495 496/496/496 478/478/478
f 497/497/497 480/480/480 479/479/479
f 496/496/496 497/497/497 479/479/479
f 498/498/498 481/481/481 480/480/480
f 497/497/497 498/498/498 480/480/480
f 499/499/499 482/482/482 481/481/481
f 498/498/498 499/499/499 481/481/481
f 500/500/500 483/483/483 482/482/482
f 499/499/499 500/500/500 482/482/482
f 501/501/501 484/484/484 483/483/483
f 500/500/500 501/501/501 483/483/483
f 502/502/502 485/485/485 484/484/484
f 501/501/501 502/502/502 484/484/484
f 503/503/503 486/486/486 485/485/485
f 502/502/502 503/503/503 485/485/485
f 504/504/504 487/487/487 486/486/486
f 503/503/503 504/504/504 486/486/486
f 505/505/505 488/488/488 487/487/487
f 504/504/504 505/505/505 487/487/487
f 506/506/506 489/489/489 488/488/488
f 505/505/505 506/506/506 488/488/488
f 507/507/507 490/490/490 489/489/489
f 506/506/506 507/507/507 489/489/489
f 508/508/508 491/491/491 490/490/490
f 507/507/507 508/508/508 490/490/490
f 509/509/509 492/492/492 491/491/491
f 508/508/508 509/509/509 491/491/491
f 510/510/510 493/493/493 492/492/492
f 509/509/509 510/510/510 492/492/492
f 512/512/512 495/495/495 494/494/494
f 511/511/511 512/512/512 494/494/494
f 513/513/513 496/496/496 495/495/495
f 512/512/512 513/513/513 495/495/495
f 514/514/514 497/497/497 496/496/496
f 513/513/513 514/514/514 496/496/496
f 515/515/515 498/498/498 497/497/497
f 514/514/514 515/515/515 497/497/497
f 516/516/516 499/499/499 498/498/498
f 515/515/515 516/516/516 498/498/498
f 517/517/517 500/500/500 499/499/499
f 516/516/516 517/517/517 499/499/499
f 518/518/518 501/501/501 500/500/500
f 517/517/517 518/518/518 500/500/500
f 519/519/519 502/502/502 501/501/501
f 518/518/518 519/519/519 501/501/501
f 520/520/520 503/503/503 502/502/502
f 519/519/519 520/520/520 502/502/502
f 521/521/521 504/504/504 503/503/503
f 520/520/520 521/521/521 503/503/503
f 522/522/522 505/505/505 504/504/504
f 521/521/521 522/522/522 504/504/504
f 523/523/523 506/506/506 505/505/505
f 522/522/522 523/523/523 505/505/505
f 524/524/524 507/507/507 506/506/506
f 523/523/523 524/524/524 506/506/506
f 525/525/525 508/508/508 507/507/507
f 524/524/524 525/525/525 507/507/507
f 526/526/526 509/509/509 508/508/508
f 525/525/525 526/526/526 508/508/508
f 527/527/527 510/510/510 509/509/509
f 526/526/526 527/527/527 509/509/509
f 529/529/529 512/512/512 511/511/511
f 528/528/528 529/529/529 511/511/511
f 530/530/530 513/513/513 512/512/512
f 529/529/529 530/530/530 512/512/512
f 531/531/531 514/514/514 513/513/513
f 530/530/530 531/531/531 513/513/513
f 532/532/532 515/515/515 514/514/514
f 531/531/531 532/532/532 514/514/514
f 533/533/533 516/516/516 515/515/515
f 532/532/532 533/533/533 515/515/515
f 534/534/534 517/517/517 516/516/516
f 533/533/533 534/534/534 516/516/516
f 535/535/535 518/518/518 517/517/517
f 534/534/534 535/535/535 517/517/517
f 536/536/536 519/519/519 518/518/518
f 535/535/535 536/536/536 518/518/518
f 537/537/537 520/520/520 519/519/519
f 536/536/536 537/537/537 519/519/519
f 538/538/538 521/521/521 520/520/520
f 537/537/537 538/538/538 520/520/520
f 539/539/539 522/522/522 521/521/521
f 538/538/538 539/539/539 521/521/521
f 540/540/540 523/523/523 522/522/522
f 539/539/539 540/540/540 522/522/522
f 541/541/541 524/524/524 523/523/523
f 540/540/540 541/541/541 523/523/523
f 542/542/542 525/525/525 524/524/524
f 541/541/541 542/542/542 524/524/524
f 543/543/543 526/526/526 525/525/525
f 542/542/542 543/543/543 525/525/525
f 544/544/544 527/527/527 526/526/526
f 543/543/543 544/544/544 526/526/526
f 546/546/546 529/529/529 528/528/528
f 545/545/545 546/546/546 528/528/528
f 547/547/547 530/530/530 529/529/529
f 546/546/546 547/547/547 529/529/529
f 548/548/548 531/531/531 530/530/530
f 547/547/547 548/548/548 530/530/530
f 549/549/549 532/532/532 531/531/531
f 548/548/548 549/549/549 531/531/531
f 550/550/550 533/533/533 532/532/532
f 549/549/549 550/550/550 532/532/532
f 551/551/551 534/534/534 533/533/533
f 550/550/550 551/551/551 533/533/533
f 552/552/552 535/535/535 534/534/534
f 551/551/551 552/552/552 534/534/534
f 553/553/553 536/536/536 535/535/535
f 552/552/552 553/553/553 535/535/535
f 554/554/554 537/537/537 536/536/536
f 553/553/553 554/554/554 536/536/536
f 555/555/555 538/538/538 537/537/537
f 554/554/554 555/555/555 537/537/537
f 556/556/556 539/539/539 538/538/538
f 555/555/555 556/556/556 538/538/538
f 557/557/557 540/540/540 539/539/539
f 556/556/556 557/557/557 539/539/539
f 558/558/558 541/541/541 540/540/540
f 557/557/557 558/558/558 540/540/540
f 559/559/559 542/542/542 541/541/541
f 558/558/558 559/559/559 541/541/541
f 560/560/560 543/543/543 542/542/542
f 559/559/559 560/560/560 542/542/542
f 561/561/561 544/544/544 543/543/543
f 560/560/560 561/561/561 543/543/543
